<svg width="147" height="134" viewBox="0 0 147 134" fill="none" xmlns="http://www.w3.org/2000/svg">
<g clip-path="url(#clip0_78_41)">
<path d="M52.224 5.7099L124.978 25.2044C128.34 26.1051 130.336 29.5622 129.435 32.9236L101.783 136.121C100.883 139.483 97.4256 141.479 94.0642 140.578L21.3094 121.084C17.9483 120.183 15.9521 116.726 16.8528 113.364L44.5045 10.1665C45.4055 6.80519 48.8626 4.80921 52.224 5.7099ZM111.874 36.9166C112.458 34.7365 111.163 32.4936 108.985 31.9099L62.7226 19.5139C60.5406 18.9293 58.2976 20.2241 57.7134 22.4044L44.7882 70.6419C44.204 72.822 45.4991 75.0651 47.6811 75.6498L93.9433 88.0457C96.1214 88.6293 98.3643 87.3342 98.9484 85.1541L111.874 36.9166ZM70.351 110.129C70.0647 111.197 70.6965 112.294 71.7668 112.581L76.2098 113.772L75.0187 118.216C74.7325 119.285 75.3682 120.383 76.4345 120.669L82.1806 122.208C83.2513 122.495 84.3504 121.862 84.6366 120.794L85.8277 116.349L90.2706 117.539C91.3409 117.826 92.4371 117.192 92.7234 116.123L94.263 110.377C94.5494 109.309 93.9173 108.211 92.8468 107.925L88.4039 106.734L89.5953 102.288C89.8812 101.221 89.2465 100.121 88.1758 99.8338L82.4298 98.2942C81.3634 98.0084 80.2633 98.6436 79.9774 99.7104L78.786 104.157L74.343 102.967C73.2727 102.68 72.177 103.314 71.8906 104.383L70.351 110.129ZM53.1083 114.418C55.9776 115.187 58.9299 113.483 59.6991 110.612C60.4685 107.74 58.7636 104.79 55.8944 104.021C53.0212 103.251 50.0692 104.954 49.2998 107.825C48.5305 110.696 50.2352 113.649 53.1083 114.418ZM42.0282 97.9771C44.8975 98.7459 47.8495 97.0432 48.6189 94.1718C49.3883 91.3003 47.6835 88.3483 44.8143 87.5795C41.9414 86.8097 38.9889 88.5141 38.2196 91.3853C37.4502 94.2565 39.1553 97.2073 42.0282 97.9771Z" fill="#003DA5" fill-opacity="0.24"/>
</g>
<defs>
<clipPath id="clip0_78_41">
<rect width="119.444" height="119.444" fill="white" transform="matrix(-0.965926 -0.258819 -0.258819 0.965926 146.288 30.9143)"/>
</clipPath>
</defs>
</svg>
