<?xml version="1.0" encoding="utf-8"?>
<!-- Generator: Adobe Illustrator 22.0.1, SVG Export Plug-In . SVG Version: 6.00 Build 0)  -->
<svg version="1.1" id="Calque_1" xmlns="http://www.w3.org/2000/svg" xmlns:xlink="http://www.w3.org/1999/xlink" x="0px" y="0px"
	 viewBox="0 0 154.7 87.1" style="enable-background:new 0 0 154.7 87.1;" xml:space="preserve">
<style type="text/css">
	.st0{fill:#4D81D9;}
</style>
<path class="st0" d="M19.6,35l-6.5,6.5c-0.3,0.3-0.8,0.6-1.3,0.7l-2.5,0.6c-0.4,0.1-0.8-0.3-0.7-0.7l0.6-2.5
	c0.1-0.5,0.4-0.9,0.7-1.3l6.5-6.5L19.6,35z M21.1,30.4c0.8,0.8,0.8,2.2,0,3.1l-0.8,0.8l-3.1-3.1l0.8-0.8
	C18.9,29.6,20.3,29.6,21.1,30.4z"/>
<g id="Calque_1_-_copie">
	<g>
		<path class="st0" d="M77.4,0c-18,0-32.7,14.6-32.7,32.7c0,13.2,4.6,16.9,29.3,52.7c1.6,2.3,5.1,2.3,6.7,0
			C105.4,49.5,110,45.9,110,32.7C110.1,14.6,95.5,0,77.4,0z M99,38.6c0,1.1-0.9,2-2,2h-9.8c-1.1,0-2,0.9-2,2v9.8c0,1.1-0.9,2-2,2
			H71.5c-1.1,0-2-0.9-2-2v-9.8c0-1.1-0.9-2-2-2h-9.8c-1.1,0-2-0.9-2-2V26.8c0-1.1,0.9-2,2-2h9.8c1.1,0,2-0.9,2-2V13c0-1.1,0.9-2,2-2
			h11.7c1.1,0,2,0.9,2,2v9.8c0,1.1,0.9,2,2,2H97c1.1,0,2,0.9,2,2V38.6z"/>
		<circle class="st0" cx="77.4" cy="32.7" r="4.1"/>
	</g>
</g>
<g>
	<path class="st0" d="M15.2,21.1C6.8,21.1,0,27.9,0,36.3s6.8,15.2,15.2,15.2s15.2-6.8,15.2-15.2S23.6,21.1,15.2,21.1z M15.2,47.7
		C9,47.7,3.9,42.6,3.9,36.3S9,25,15.2,25c6.3,0,11.4,5.1,11.4,11.4S21.5,47.7,15.2,47.7z"/>
</g>
<g>
	<path class="st0" d="M28.4,56.6c-8.4,0-15.2,6.8-15.2,15.2S20,87,28.4,87s15.2-6.8,15.2-15.2S36.8,56.6,28.4,56.6z M28.4,83.2
		c-6.3,0-11.4-5.1-11.4-11.4s5.1-11.4,11.4-11.4c6.3,0,11.4,5.1,11.4,11.4S34.7,83.2,28.4,83.2z"/>
</g>
<path class="st0" d="M19.6,35l-6.5,6.5c-0.3,0.3-0.8,0.6-1.3,0.7l-2.5,0.6c-0.4,0.1-0.8-0.3-0.7-0.7l0.6-2.5
	c0.1-0.5,0.4-0.9,0.7-1.3l6.5-6.5L19.6,35z M21.1,30.4c0.8,0.8,0.8,2.2,0,3.1l-0.8,0.8l-3.1-3.1l0.8-0.8
	C18.9,29.6,20.3,29.6,21.1,30.4z"/>
<g>
	<path class="st0" d="M15.2,21.1C6.8,21.1,0,27.9,0,36.3s6.8,15.2,15.2,15.2s15.2-6.8,15.2-15.2S23.6,21.1,15.2,21.1z M15.2,47.7
		C9,47.7,3.9,42.6,3.9,36.3S9,25,15.2,25c6.3,0,11.4,5.1,11.4,11.4S21.5,47.7,15.2,47.7z"/>
</g>
<g>
	<path class="st0" d="M28.4,56.6c-8.4,0-15.2,6.8-15.2,15.2S20,87,28.4,87s15.2-6.8,15.2-15.2S36.8,56.6,28.4,56.6z M28.4,83.2
		c-6.3,0-11.4-5.1-11.4-11.4s5.1-11.4,11.4-11.4c6.3,0,11.4,5.1,11.4,11.4S34.7,83.2,28.4,83.2z"/>
</g>
<g>
	<path class="st0" d="M141.5,71.8c0-8.4-6.8-15.2-15.2-15.2S111,63.4,111,71.8S117.9,87,126.3,87S141.5,80.2,141.5,71.8z
		 M137.6,71.8c0,6.3-5.1,11.4-11.4,11.4c-6.3,0-11.4-5.1-11.4-11.4s5.1-11.4,11.4-11.4C132.6,60.4,137.6,65.5,137.6,71.8z"/>
</g>
<g>
	<path class="st0" d="M154.7,36.3c0-8.4-6.8-15.2-15.2-15.2s-15.2,6.8-15.2,15.2s6.8,15.2,15.2,15.2S154.7,44.7,154.7,36.3z
		 M150.8,36.3c0,6.3-5.1,11.4-11.4,11.4c-6.3,0-11.4-5.1-11.4-11.4S133.2,25,139.4,25C145.7,25,150.8,30.1,150.8,36.3z"/>
</g>
<g>
	<path class="st0" d="M132.3,70c1,0,1.8,0.8,1.7,1.7c0,1-0.8,1.8-1.8,1.8l-4.2,0l0,4.2c0,1-0.8,1.7-1.8,1.7c-1,0-1.7-0.8-1.7-1.7
		l0-4.2l-4.2,0c-1,0-1.8-0.8-1.7-1.7c0-1,0.8-1.8,1.8-1.8l4.2,0l0-4.2c0-1,0.8-1.7,1.8-1.7c1,0,1.7,0.8,1.7,1.7l0,4.2L132.3,70
		L132.3,70z"/>
</g>
<g>
	<path class="st0" d="M139.2,28.6c2.7,0,5.3,1.2,5.3,4.2c0,2.7-3.1,3.7-3.8,4.7c-0.5,0.7-0.3,1.7-1.7,1.7c-0.9,0-1.3-0.7-1.3-1.4
		c0-2.5,3.6-3,3.6-5.1c0-1.1-0.7-1.8-2-1.8c-2.7,0-1.6,2.7-3.6,2.7c-0.7,0-1.4-0.4-1.4-1.3C134.4,30.4,136.7,28.6,139.2,28.6z
		 M139.1,40.6c0.9,0,1.7,0.8,1.7,1.7s-0.8,1.7-1.7,1.7c-0.9,0-1.7-0.8-1.7-1.7C137.4,41.4,138.2,40.6,139.1,40.6z"/>
</g>
<g>
	<path class="st0" d="M28.4,64.1c-4.2,0-7.7,3.4-7.7,7.7c0,4.2,3.4,7.7,7.7,7.7s7.7-3.4,7.7-7.7C36.1,67.6,32.6,64.1,28.4,64.1z
		 M33.6,73.1H23.2c-0.5,0-1-0.4-1-1v-0.6c0-0.5,0.4-1,1-1h10.5c0.5,0,1,0.4,1,1v0.6C34.6,72.6,34.2,73.1,33.6,73.1z"/>
</g>
</svg>
