<svg xmlns="http://www.w3.org/2000/svg" version="1.1" xmlns:xlink="http://www.w3.org/1999/xlink" xmlns:svgjs="http://svgjs.dev/svgjs" width="65.3" height="65.3"><svg version="1.1" id="SvgjsSvg1004" xmlns="http://www.w3.org/2000/svg" xmlns:xlink="http://www.w3.org/1999/xlink" x="0px" y="0px" viewBox="0 0 65.3 65.3" style="enable-background:new 0 0 65.3 65.3;" xml:space="preserve">
<style type="text/css">
	.st0{display:none;}
	.st1{display:inline;fill:#224492;}
	.st2{display:inline;fill:#FFFFFF;}
	.st3{fill:#003DA5;}
</style>
<g id="SvgjsG1003" class="st0">
	<rect x="-17.3" y="-6" class="st1" width="100" height="100"></rect>
	<path class="st2" d="M29.5,83.2c-23.4-34-27.8-37.5-27.8-50c0-17.1,13.9-31,31-31s31,13.9,31,31c0,12.5-4.4,16-27.8,50
		C34.4,85.5,31.1,85.5,29.5,83.2L29.5,83.2z M32.7,46.2c7.1,0,12.9-5.8,12.9-12.9s-5.8-13-12.9-13s-12.9,5.8-12.9,12.9
		S25.6,46.2,32.7,46.2z M32.7,46.2c7.1,0,12.9-5.8,12.9-12.9s-5.8-13-12.9-13s-12.9,5.8-12.9,12.9S25.6,46.2,32.7,46.2z"></path>
	<path class="st1" d="M53.2,27.7c0-1-0.8-1.9-1.9-1.9H42c-1,0-1.9-0.8-1.9-1.9v-9.3c0-1-0.8-1.9-1.9-1.9H27.1c-1,0-1.9,0.8-1.9,1.9
		V24c0,1-0.8,1.9-1.9,1.9H14c-1,0-1.9,0.8-1.9,1.9v11.1c0,1,0.8,1.9,1.9,1.9h9.3c1,0,1.9,0.8,1.9,1.9V52c0,1,0.8,1.9,1.9,1.9h11.1
		c1,0,1.9-0.8,1.9-1.9v-9.3c0-1,0.8-1.9,1.9-1.9h9.3c1,0,1.9-0.8,1.9-1.9C53.2,38.9,53.2,27.7,53.2,27.7z"></path>
	<circle class="st2" cx="32.7" cy="33.2" r="3.9"></circle>
</g>
<g>
	<circle class="st3" cx="32.7" cy="32.7" r="4.1"></circle>
	<path class="st3" d="M32.7,0C14.6,0,0,14.7,0,32.7c0,18,14.6,32.7,32.7,32.7c18,0,32.7-14.6,32.7-32.7C65.3,14.7,50.7,0,32.7,0z
		 M54.3,38.6c0,1.1-0.9,2-2,2h-9.8c-1.1,0-2,0.9-2,2v9.8c0,1.1-0.9,2-2,2H26.8c-1.1,0-2-0.9-2-2v-9.8c0-1.1-0.9-2-2-2H13
		c-1.1,0-2-0.9-2-2V26.8c0-1.1,0.9-2,2-2h9.8c1.1,0,2-0.9,2-2V13c0-1.1,0.9-2,2-2h11.7c1.1,0,2,0.9,2,2v9.8c0,1.1,0.9,2,2,2h9.8
		c1.1,0,2,0.9,2,2V38.6z"></path>
</g>
</svg><style>@media (prefers-color-scheme: light) { :root { filter: none; } }
@media (prefers-color-scheme: dark) { :root { filter: none; } }
</style></svg>