<svg width="180" height="127" viewBox="0 0 180 127" fill="none" xmlns="http://www.w3.org/2000/svg">
<g clip-path="url(#clip0_78_30)">
<path d="M108.188 7.47898C102.635 9.88732 98.0645 13.392 94.6623 18.4201L84.4099 22.8662L82.5573 18.5944C77.3701 6.63324 63.8964 1.31085 51.9352 6.49804L39.1197 12.0558C31.8575 15.2051 23.8958 12.0601 20.7464 4.79794L15.1887 -8.01759C14.0772 -10.5807 11.6274 -11.5484 9.06431 -10.4369C6.5012 -9.32532 5.53349 -6.87556 6.64504 -4.31245L12.2027 8.50308C17.3899 20.4642 30.8637 25.7866 42.8248 20.5994L55.6404 15.0417C62.9025 11.8924 70.8642 15.0374 74.0136 22.2995L75.8662 26.5714L65.6137 31.0176C59.6179 30.0651 53.9359 31.0066 48.3825 33.415C31.7223 40.64 24.2226 59.6257 31.4476 76.2859C38.6727 92.9461 57.6583 100.446 74.3185 93.2208C79.8719 90.8124 84.4424 87.3078 87.8446 82.2797L116.893 69.6822C122.889 70.6347 128.571 69.6931 134.124 67.2848C150.785 60.0598 158.284 41.0741 151.059 24.4139C143.834 7.75369 124.849 0.253951 108.188 7.47898ZM71.7468 63.8846L67.4749 65.7371L69.3275 70.009C70.4391 72.5721 69.4714 75.0219 66.9082 76.1334C64.3451 77.2449 61.8954 76.2772 60.7838 73.7141L58.9313 69.4423L54.6594 71.2949C52.0963 72.4064 49.6465 71.4387 48.535 68.8756C47.4235 66.3125 48.3912 63.8627 50.9543 62.7512L55.2261 60.8986L53.3735 56.6268C52.262 54.0637 53.2297 51.6139 55.7928 50.5023C58.3559 49.3908 60.8057 50.3585 61.9172 52.9216L63.7698 57.1935L68.0416 55.3409C70.6048 54.2293 73.0545 55.1971 74.1661 57.7602C75.2776 60.3233 74.3099 62.773 71.7468 63.8846ZM112.866 28.7968C113.107 28.1843 112.922 27.7571 113.164 27.1447C113.89 25.3074 115.413 24.1392 117.493 24.2525C118.105 24.4944 118.532 24.3092 119.145 24.5511C119.757 24.793 120.37 25.035 120.555 25.4622C120.74 25.8893 121.538 26.5584 121.723 26.9856C121.908 27.4128 122.279 28.2672 122.037 28.8796C121.795 29.4921 121.98 29.9192 121.738 30.5317C121.496 31.1441 121.254 31.7566 120.827 31.9418C120.585 32.5543 119.731 32.9248 119.304 33.11C118.022 33.6658 116.983 33.6091 115.758 33.1253C115.145 32.8834 114.533 32.6414 114.348 32.2142C114.162 31.7871 113.365 31.1179 113.179 30.6908C112.994 30.2636 112.624 29.4092 112.866 28.7968ZM114.465 45.3589C113.184 45.9146 112.144 45.858 110.919 45.3741C110.307 45.1322 109.694 44.8903 109.509 44.4631C109.324 44.0359 108.526 43.3668 108.341 42.9396C107.785 41.658 107.842 40.6184 108.326 39.3935C109.293 36.9438 111.856 35.8322 114.306 36.7999L114.919 37.0419C115.104 37.469 115.531 37.2838 115.716 37.711C115.902 38.1382 115.902 38.1382 116.514 38.3801C116.699 38.8073 116.699 38.8073 116.884 39.2345C117.44 40.516 117.384 41.5556 116.9 42.7805C116.416 44.0054 115.747 44.8031 114.465 45.3589ZM129.504 44.9274C129.689 45.3546 129.689 45.3545 129.447 45.967C129.632 46.3942 129.205 46.5794 129.39 47.0066L129.149 47.6191C128.907 48.2315 128.665 48.8439 128.238 49.0292C127.996 49.6416 127.141 50.0122 126.714 50.1974C125.432 50.7532 124.393 50.6965 123.168 50.2127C121.943 49.7288 121.145 49.0597 120.59 47.7781C120.034 46.4966 120.091 45.457 120.574 44.2321C121.3 42.3948 122.824 41.2265 124.903 41.3399C125.515 41.5818 125.943 41.3965 126.555 41.6385C127.78 42.1223 128.578 42.7914 129.133 44.073C129.319 44.5002 129.319 44.5002 129.504 44.9274ZM134.286 33.7182C134.044 34.3306 134.229 34.7578 133.987 35.3702C133.56 35.5555 133.745 35.9827 133.745 35.9827C133.318 36.1679 133.503 36.5951 133.076 36.7804C132.649 36.9656 132.649 36.9656 132.407 37.5781C131.98 37.7633 131.98 37.7633 131.553 37.9486C130.271 38.5044 129.231 38.4477 128.007 37.9638C127.394 37.7219 126.782 37.48 126.596 37.0528C126.411 36.6256 125.613 35.9565 125.428 35.5293C125.243 35.1021 124.872 34.2478 125.114 33.6353C125.356 33.0229 125.171 32.5957 125.413 31.9832C125.897 30.7584 127.42 29.5902 128.702 29.0344C129.129 28.8491 129.129 28.8491 129.741 29.0911C130.169 28.9058 130.354 29.333 130.781 29.1477L131.394 29.3896C132.006 29.6316 132.618 29.8735 132.804 30.3007C132.989 30.7279 133.787 31.397 133.972 31.8242C134.157 32.2514 134.528 33.1057 134.286 33.7182Z" fill="#003DA5" fill-opacity="0.24"/>
</g>
<defs>
<clipPath id="clip0_78_30">
<rect width="149" height="149" fill="white" transform="translate(-16 -9.71771) rotate(-23.4449)"/>
</clipPath>
</defs>
</svg>
