<svg width="116" height="83" viewBox="0 0 116 83" fill="none" xmlns="http://www.w3.org/2000/svg">
<g clip-path="url(#clip0_78_44)">
<path d="M99.975 34.8031C102.869 11.9657 96.2073 2.87825 91.602 1.43742C84.4153 -0.811043 80.8999 3.95489 65.5483 -0.650484C50.3093 -5.61585 50.137 -11.5355 42.9504 -13.784C38.3451 -15.2248 27.6876 -11.5559 17.0495 8.85852C10.9789 20.5127 2.81579 38.1926 7.83512 42.1922C14.0816 47.1686 18.6455 41.0389 28.2711 37.6641C38.0399 34.2473 42.2758 34.0495 53.5849 37.5877C64.8939 41.1259 68.2617 43.7027 74.3413 52.0779C80.3285 60.3326 80.5836 67.9748 88.5524 67.4459C94.9563 67.0202 98.324 47.8448 99.975 34.8031ZM40.0762 19.1427C37.7475 18.4141 35.8036 16.7903 34.6722 14.6285C33.5407 12.4667 33.3144 9.944 34.0429 7.61532C34.7715 5.28664 36.3953 3.34276 38.5571 2.2113C40.7189 1.07985 43.2416 0.853511 45.5703 1.58208C47.899 2.31064 49.8428 3.93443 50.9743 6.09623C52.1058 8.25803 52.3321 10.7807 51.6035 13.1094C50.875 15.4381 49.2512 17.382 47.0894 18.5134C44.9276 19.6449 42.4049 19.8712 40.0762 19.1427ZM70.8072 28.7574C69.6429 28.3931 68.6709 27.5812 68.1052 26.5003C67.5395 25.4194 67.4263 24.158 67.7906 22.9937C68.1549 21.8293 68.9668 20.8574 70.0477 20.2917C71.1286 19.726 72.3899 19.6128 73.5543 19.9771C74.7186 20.3413 75.6906 21.1532 76.2563 22.2341C76.822 23.315 76.9352 24.5764 76.5709 25.7407C76.2066 26.9051 75.3947 27.877 74.3138 28.4428C73.2329 29.0085 71.9716 29.1216 70.8072 28.7574ZM82.3346 22.7241C81.1702 22.3598 80.1983 21.5479 79.6326 20.467C79.0669 19.3861 78.9537 18.1248 79.318 16.9604C79.6822 15.7961 80.4941 14.8242 81.575 14.2584C82.6559 13.6927 83.9173 13.5795 85.0816 13.9438C86.246 14.3081 87.2179 15.12 87.7836 16.2009C88.3494 17.2818 88.4625 18.5432 88.0983 19.7075C87.734 20.8718 86.9221 21.8438 85.8412 22.4095C84.7603 22.9752 83.4989 23.0884 82.3346 22.7241Z" fill="#003DA5" fill-opacity="0.24"/>
</g>
<defs>
<clipPath id="clip0_78_44">
<rect width="92" height="92" fill="white" transform="translate(27.4705 -33) rotate(17.3731)"/>
</clipPath>
</defs>
</svg>
