<svg width="166" height="146" viewBox="0 0 166 146" fill="none" xmlns="http://www.w3.org/2000/svg">
<path d="M100.997 105.07L102.851 101.493C103.44 100.343 103.988 99.2141 104.504 98.0621C105.514 95.7679 106.341 93.4384 106.861 91.1368C107.919 86.4904 107.369 82.2286 104.544 79.0726C101.719 75.8538 97.0556 73.6935 92.2348 72.1878C81.9719 69.2342 71.477 65.9473 61.3228 62.092C58.7738 61.1242 56.2371 60.1188 53.7104 59.0476C51.2217 58.0016 48.5236 56.779 46.055 55.1239C43.6146 53.4743 41.0552 51.276 39.734 47.9058C39.0794 46.2484 38.9076 44.3738 39.1277 42.6706C39.3498 40.963 39.9059 39.409 40.5958 38.0243C42.0308 35.187 43.7916 33.1405 45.3783 30.9449L50.3178 24.5024L60.3002 11.7535L77.2961 -9.62845L64.3396 -10C64.3396 -10 34.8273 17.14 21.654 34.2672C10.2013 49.1534 16.4567 62.3066 37.1743 71.1542C54.6604 78.6252 71.0273 84.4083 71.0273 84.4083C73.847 85.8686 75.853 88.4279 76.5199 91.4143C77.1868 94.4033 76.4492 97.5135 74.4961 99.9413L29.4128 156H74.3927L93.5235 119.406L100.997 105.07Z" fill="#003DA5" fill-opacity="0.24"/>
<path d="M144.269 74.6285C137.99 64.1258 127.242 56.718 114.792 54.3101L70.681 45.0102C68.8417 44.6565 67.2955 43.4893 66.5148 41.8672C65.7341 40.2477 65.8174 38.3702 66.7346 36.8165L96.0576 -9.09285L81.7751 -9.50201L63.7181 14.3838L54.0719 27.3396L49.3296 33.8506C47.8035 36.041 46.1208 38.2065 45.1935 40.2325C44.2059 42.327 43.9582 44.3232 44.6709 45.9802C45.3579 47.6782 47.038 49.2571 49.0644 50.5258C51.116 51.8243 53.3723 52.8018 55.8736 53.7822C58.3344 54.7549 60.8306 55.6773 63.3446 56.5614C73.4456 60.111 83.6199 63.0316 94.1454 65.7884C99.542 67.3952 105.254 69.5477 109.805 74.3484C112.023 76.7509 113.678 79.9065 114.307 83.1733C114.954 86.4427 114.742 89.6616 114.176 92.6376C113.579 95.6113 112.647 98.4058 111.553 101.069C111 102.392 110.403 103.704 109.792 104.967L108.013 108.613L100.886 123.138L84.7132 156H130.307L147.553 109.103C151.744 97.6983 150.547 85.131 144.269 74.6285Z" fill="#003DA5" fill-opacity="0.24"/>
</svg>
