<svg width="130" height="102" viewBox="0 0 130 102" fill="none" xmlns="http://www.w3.org/2000/svg">
<path fill-rule="evenodd" clip-rule="evenodd" d="M55.4243 -22.274C53.3091 -24.3893 49.8795 -24.3893 47.7642 -22.274L5.6324 19.8578C3.51707 21.9731 3.51707 25.4028 5.6324 27.5181L9.46274 31.3483L74.5755 96.4609C76.6907 98.5761 80.1206 98.5761 82.2358 96.4609L86.0226 92.6741L86.0659 92.6308L86.1098 92.5869L120.497 58.1997L120.538 58.1597L120.578 58.119L124.367 54.329C126.483 52.2138 126.483 48.7845 124.367 46.6687L120.577 42.8782L120.538 42.8386L120.498 42.7996L59.2875 -18.411C59.2767 -18.422 59.2658 -18.4329 59.255 -18.4438C59.2436 -18.4547 59.2328 -18.4656 59.222 -18.4764L55.4243 -22.274ZM43.9341 -3.1232L24.7833 16.0276C29.014 20.2583 29.0141 27.1178 24.7834 31.3483L47.7643 54.329L70.7454 77.3103C74.9758 73.0793 81.8355 73.0793 86.0659 77.3103L105.217 58.1597C100.986 53.9287 100.986 47.0696 105.217 42.8386L82.2758 19.8981C91.2236 28.8956 89.2514 43.4837 80.3204 52.4142C71.377 61.3582 56.7585 63.3234 47.7643 54.329C38.7703 45.3352 40.7355 30.7167 49.6794 21.7729C58.6099 12.8424 73.1981 10.8697 82.1957 19.8177L59.2545 -3.12309C55.0241 1.10754 48.1648 1.10743 43.9341 -3.1232C43.9341 -3.1232 43.9341 -3.12325 43.9341 -3.1232ZM57.3397 29.4335C63.2032 23.5696 70.8776 23.8201 74.5755 27.5181C78.2735 31.2161 78.5237 38.8904 72.6602 44.754C66.7966 50.6175 59.1228 50.3667 55.4243 46.6687C51.7266 42.9708 51.4761 35.297 57.3397 29.4335Z" fill="#003DA5" fill-opacity="0.24"/>
</svg>
