<svg width="236" height="146" viewBox="0 0 236 146" fill="none" xmlns="http://www.w3.org/2000/svg">
<g clip-path="url(#clip0_78_32)">
<path d="M227.259 95.4439C222.927 93.9955 192.793 87.4099 192.793 87.4099C192.793 87.4099 136.932 55.6444 130.228 55.6444C123.524 55.6444 77.5375 55.6649 77.5375 55.6649C66.3017 55.6649 56.9119 64.2268 46.0401 74.1396C40.9163 78.8102 35.2608 83.9505 29.0227 88.5228L5.78942 91.612C2.43221 92.6825 0.000488281 95.8238 0.000488281 99.5354V126.155C0.000488281 130.749 3.72404 134.473 8.31832 134.473H24.2834C25.4429 147.835 36.6822 158.355 50.3397 158.355C63.9965 158.355 75.2365 147.834 76.3961 134.473H152.628C153.788 147.835 165.027 158.355 178.685 158.355C192.342 158.355 203.581 147.834 204.741 134.473H217.857C228.25 134.473 233.328 129.985 234.603 125.771C237.828 115.109 235.508 98.2019 227.259 95.4439ZM50.3397 145.747C42.8664 145.747 36.786 139.667 36.786 132.194C36.786 124.721 42.8657 118.64 50.3397 118.64C57.8131 118.64 63.8928 124.72 63.8928 132.194C63.8931 139.667 57.8131 145.747 50.3397 145.747ZM100.65 87.4107H55.1959C58.4837 84.8131 61.5235 82.056 64.3239 79.5035C71.6838 72.793 78.0404 66.9971 85.6464 66.9971C85.6464 66.9971 92.5297 66.994 100.651 66.9905V87.4107H100.65ZM111.719 66.9863C117.344 66.9844 122.359 66.9828 124.875 66.9828C131.139 66.9828 156.548 81.7382 166.084 87.4111H111.719V66.9863ZM178.684 145.747C171.211 145.747 165.131 139.667 165.131 132.194C165.131 124.721 171.211 118.64 178.684 118.64C186.158 118.64 192.238 124.72 192.238 132.194C192.238 139.667 186.158 145.747 178.684 145.747Z" fill="#003DA5" fill-opacity="0.24"/>
</g>
<defs>
<clipPath id="clip0_78_32">
<rect width="236" height="236" fill="white" transform="translate(0.000488281 -11)"/>
</clipPath>
</defs>
</svg>
