<svg width="539" height="570" viewBox="0 0 539 570" fill="none" xmlns="http://www.w3.org/2000/svg">
<path fill-rule="evenodd" clip-rule="evenodd" d="M434.803 482.674H435.128L435.29 482.447L435.452 481.994V480.86V480.633H435.29L434.803 480.86L434.478 481.086L434.316 481.313V481.54V481.767L434.478 481.994L434.641 482.22L434.803 482.674ZM410.62 555.937L410.458 556.164L410.133 556.618H409.971L408.51 556.844H408.348L408.186 557.071L408.023 557.298V557.525L408.186 557.752L408.348 557.979L408.673 558.205H408.835H408.997H409.16L410.133 557.752L410.62 557.525L410.783 557.298L411.107 557.071L411.269 556.844L411.432 556.618V556.164L411.594 555.71V555.483V555.257V555.03V554.803L411.432 554.576L410.62 555.937ZM510.76 407.37L510.597 407.143V406.916V406.689V406.462L510.11 406.236L509.624 406.009L508.812 405.328L508.487 405.102L508.163 404.875H508.001L507.838 404.648L507.514 404.421H507.351L506.864 404.194L506.702 403.967L506.54 403.741L505.566 403.287L505.079 403.06H504.917L504.592 403.287H504.43L503.943 403.06L503.294 402.833H503.132L501.833 403.06L501.184 402.833H501.022H500.859L500.697 402.606L500.535 402.38H500.372L499.723 401.926L499.561 401.699H499.399H499.074H498.912L498.263 401.472H498.1L497.938 401.699H497.776H497.613L496.477 401.019L496.315 400.792H496.153H495.99H495.828H495.666L494.854 400.111L494.367 399.885H493.718H493.394L492.095 399.431H491.771H491.446H491.121H490.797L489.661 398.977L489.174 399.204H489.011L488.2 398.751L487.713 398.524H486.577L485.279 398.07H484.305L481.87 397.616H480.085L478.949 397.843L477.65 397.616H474.567L473.755 397.39H473.593H473.268L471.645 396.936L470.671 397.163H470.509V397.39V397.616V397.843H470.347H470.022L469.373 398.07L468.562 398.751L468.399 399.431L468.562 400.111L468.886 400.338H469.211L469.535 400.565L469.86 401.019L470.347 401.246L470.834 401.472H471.158L470.671 401.019L470.834 400.792L471.321 401.019L471.97 401.472L472.294 401.699L474.242 402.153L476.027 402.38L478.137 402.833L481.059 403.967L483.006 405.102L483.818 405.555L484.142 405.782L484.467 406.009L484.792 406.462L485.116 406.916L485.441 407.143L485.928 407.37L486.252 407.596L486.415 408.05L488.2 408.277H488.849H489.174H489.498L489.985 408.504H490.797L492.095 409.184H492.744L494.043 409.638L496.802 409.865L499.561 410.318L501.509 409.865L502.807 410.092H503.781L504.105 410.318L504.43 410.545H504.755H505.079L506.053 409.865L507.027 409.638L508.487 408.731H508.65L509.299 408.957H509.461V408.05H509.624H509.786H509.948L510.76 407.37ZM409.484 553.896L409.646 554.123L410.133 554.349L410.296 554.576H410.62H410.945H411.107L411.269 554.123H411.432H411.107H410.783H410.62L410.296 553.896H410.133H409.971L408.835 554.123V554.349L409.484 553.896ZM434.154 498.778L434.803 497.644L435.128 496.51L435.29 496.283V496.057L435.128 494.696V494.242L434.965 493.788L434.641 493.562L434.316 493.335H433.992L433.505 493.788L433.342 494.469L433.18 496.283L432.531 497.871L432.369 498.778L432.855 499.232L433.505 499.005L434.154 498.778ZM408.997 552.535L409.322 552.762H409.484H409.809L410.783 551.854L411.269 551.174L411.432 550.947H411.594L413.055 550.72L415.165 550.947H415.327H415.489L415.652 550.72V550.493V550.04V549.813L415.814 549.586V549.359V549.133L415.652 548.906L415.002 547.998L414.84 547.772L414.678 547.545L414.515 547.318V547.091V546.864V546.184V545.957L414.353 545.73L414.029 545.277L413.542 543.689L413.379 543.462L413.217 543.008L413.055 542.782H412.892L412.568 543.008L412.406 543.235V543.462V543.689V544.142L411.919 545.503V545.73V545.957V546.638V546.864V547.545L411.756 548.225L411.594 548.679L410.945 549.359L410.783 549.586H410.62H410.458H410.296L409.971 549.813H409.646V550.04V550.72V550.947L409.322 551.401L408.673 552.762L408.997 552.535ZM232.252 150.382L233.064 151.289L234.2 152.197L234.687 152.65V152.877L235.011 153.331V153.557L235.498 154.238L235.66 154.465L235.823 154.918V155.372V155.599L236.472 156.053H236.796V155.599L236.472 154.918L237.608 155.826L238.095 156.053L238.257 155.826L237.77 155.372V154.918L238.095 154.465V154.238L237.77 153.784L237.608 153.557L237.77 153.331L237.283 152.877H236.959H236.634L236.31 152.65L235.985 152.197L235.336 151.062H235.173L234.849 150.609L234.2 150.382H233.388V150.609L232.252 150.382ZM411.432 544.823L411.594 544.142L411.756 543.689L411.919 543.235V543.008L411.756 542.782H411.594H411.432L410.62 543.462H410.458H410.133H409.971H409.809L409.322 544.142L409.16 544.596L408.997 545.05L408.835 546.411L408.673 546.864L408.51 547.545V547.998V548.225L408.673 548.452H408.835H409.16L410.296 547.998L410.783 547.772L410.945 547.545L411.107 547.318L411.269 547.091L411.432 546.411L411.269 545.05L411.107 544.823H411.432ZM408.997 549.586L408.348 550.267V550.493V550.72V550.947H408.51H408.673H408.835H408.997L409.16 550.72L409.322 550.267V549.813L408.997 549.586ZM494.53 429.825L493.88 429.598L493.394 429.371L493.231 429.144L492.907 428.691L492.582 427.784L492.744 427.557H493.069L493.231 427.33L492.907 427.103L492.582 426.876L492.257 426.649H492.095L491.771 426.423L490.472 425.515L489.498 425.062H489.174L488.687 424.835H488.525H488.362V425.062H488.2V424.835H488.362H488.687V424.608L488.525 424.154L488.362 423.928H488.2L487.875 423.701H487.551H487.064L486.577 424.154H486.252L486.09 423.928L486.739 423.474L486.577 423.247L485.279 422.567L488.687 423.02L489.661 423.474H489.985L490.31 423.701L490.797 424.154L491.284 424.381V423.928L490.959 423.701L490.472 423.474L489.661 422.793L489.174 421.659L488.687 421.206L487.388 420.525L487.226 420.298L486.902 420.072H486.739H486.577H486.252H486.09L485.279 419.618L484.954 419.391L484.142 419.164H483.98L483.493 418.711H483.331H483.169H483.006L481.87 418.03H481.383L480.896 417.803H480.734H479.76H479.436L478.624 417.577L477.813 417.123L477.488 416.896H476.839L475.54 416.669C474.242 416.896 472.944 416.896 471.483 417.123H469.86L467.75 417.577L467.263 417.803L466.776 418.484L464.666 419.618L462.556 420.072L460.933 420.979L458.499 423.928L457.525 424.608L455.578 427.33L453.955 430.279L452.332 431.866L451.845 432.547L451.52 433.454L450.059 434.134L449.897 435.042L449.41 435.269L449.248 435.495L449.086 436.176V436.403L447.462 439.578L447.3 439.805L446.651 440.032L446.326 440.259L446.164 440.485V441.166L446.002 441.393L445.353 441.62L445.19 441.846L444.703 443.661V444.568L444.541 444.795L443.892 445.022L443.73 445.702L443.892 447.517L443.73 448.197L443.08 448.878V449.105V449.332L442.756 450.466L442.431 450.692L441.62 450.919L441.457 451.146L441.62 451.827L440.808 453.641L440.484 455.456V457.951L439.997 459.765V461.58L439.834 462.033L439.672 462.26L439.185 462.714L438.861 462.941L438.698 463.168L439.023 466.343L439.185 466.797L439.51 467.25L439.672 467.477L439.834 467.704L439.997 467.931V468.158L439.834 468.611V471.333L439.997 474.509L439.834 477.004L439.51 477.457V477.684V477.911V478.138L439.347 478.365L439.185 478.591V478.818V479.725L439.997 481.767L440.159 482.674L439.347 484.489V485.396L439.672 487.664V490.613L439.185 494.015L439.023 494.242L438.374 494.469L437.075 496.057L436.913 496.283L437.075 496.964V497.191H436.913H436.588H436.426V497.417V497.871L436.264 498.098H436.101H435.615H435.452L435.29 498.325L435.128 499.459L434.641 499.912L433.18 500.366L432.693 500.82V501.273L432.855 502.408L432.693 502.634L432.531 502.861L432.369 503.542L432.206 503.768L427.662 508.758L426.85 508.985L425.877 508.758L425.39 508.532H424.903L424.578 508.758L424.416 509.666L423.929 510.573V511.027V511.48V511.934L423.604 512.161L423.28 512.388L422.63 512.841L421.819 514.202V514.429L421.981 514.883L422.144 515.563L422.306 516.697L422.144 517.378L420.521 518.512L420.034 519.419L419.709 519.646L419.547 519.873L419.384 521.687L418.898 522.821L418.573 523.502L418.411 523.955L418.735 524.409L419.06 524.863L418.735 526.224L418.411 526.451L417.437 527.811L416.95 528.038L416.463 528.265L415.976 528.038C415.814 528.265 415.814 528.719 415.652 529.172L415.489 529.626L415.327 530.08L415.165 530.533V530.76L413.704 531.667L413.542 531.894V532.121V532.348L413.704 532.575L413.866 532.801L414.029 533.028V533.709V534.162L414.353 534.616L414.678 535.07L415.002 535.523L415.165 535.977V537.565L414.191 541.194V541.874L414.353 542.782L414.678 543.689L415.327 544.596V544.823L415.489 545.277L415.652 545.503V545.73L415.489 546.184L415.652 547.545L415.814 547.998L415.976 548.452L416.138 548.679L417.112 549.813L417.437 550.267V550.947L417.275 551.174L417.112 551.401L416.95 551.628H416.788L416.463 551.401H416.301L415.976 551.628L414.353 551.854L414.191 552.081V552.308L413.866 552.535V552.762V553.669V553.896L413.379 555.03L413.217 555.483L413.055 555.71H412.568L412.406 555.937L412.243 558.432L411.919 559.339L411.269 560.02L409.484 560.474L409.16 560.7L408.997 561.608L408.673 561.834L407.212 562.742L406.887 562.969L406.725 563.649L406.563 563.876L406.4 564.103H406.238L406.076 564.33L406.238 564.556L406.4 564.783L406.563 565.01V565.917L406.238 566.598L404.128 569.093L402.992 570H403.317C413.704 566.825 423.767 563.649 433.342 560.247C441.62 557.525 449.735 554.576 457.687 551.628L457.201 550.947L457.038 550.493L456.876 550.04L456.714 548.679L456.551 548.452L456.389 547.998L456.227 547.772L456.064 546.638L455.902 546.184L455.415 545.957L454.928 545.73V545.503L455.415 545.05V544.823V543.916L455.578 543.462L455.902 543.235H456.227L458.174 543.689H458.661H459.148L459.31 543.462L459.148 542.328V541.874L459.31 541.647L459.635 541.421L459.797 541.194V540.74V540.286V540.06L460.122 539.833H460.609L461.096 540.06L463.206 542.101L463.53 542.328L463.693 541.874L463.53 541.647L463.206 541.194L463.043 540.967V540.74L463.206 540.286V540.06L462.881 539.606L462.07 538.472L461.745 538.018L461.583 537.565V537.111L461.745 536.884H462.07H462.556L463.53 537.338H464.017H464.342L464.504 537.111V536.657L464.017 536.204L463.53 535.977L462.719 535.75L462.232 535.523L461.745 535.07L461.42 534.616L460.933 532.575L461.096 530.08L461.258 529.626L461.745 528.719L461.907 528.038L462.07 527.811L462.394 527.585H462.556L462.719 527.131V526.677L462.556 526.224L462.232 525.77L462.07 525.543L461.907 525.316L461.745 525.09L461.583 524.863V524.636V524.182L462.07 522.594V521.914L461.907 521.007L461.583 520.326L461.42 520.099H461.096L460.609 519.873L460.122 519.646L459.797 519.192L459.31 518.285V518.058L459.148 517.831H458.986H458.824H458.661L458.499 517.604L458.337 517.378V517.151L458.499 516.47V516.017L458.174 515.563L457.687 515.109L457.201 514.656L456.714 514.429L456.389 513.975L456.064 512.841L455.74 511.707V511.253L456.064 511.027L455.902 510.8L455.578 510.119L455.415 509.439L455.578 508.985L455.74 508.758L456.064 507.171L455.74 506.49C454.766 504.449 453.792 502.634 452.656 500.593L452.169 499.459C451.52 491.974 451.033 484.489 450.546 477.004V476.55L450.709 476.323H450.871L453.468 476.55L453.955 476.777L454.441 477.457L455.253 479.045L455.74 479.952L455.902 480.179V479.952L456.551 479.045C457.038 478.591 457.525 478.138 458.012 477.684L458.661 477.004C459.148 476.323 459.635 475.416 460.122 474.735L460.284 474.282V473.601V472.921V472.24C460.284 471.787 460.447 471.56 460.447 471.106L460.284 470.426L459.96 469.745C459.797 469.292 459.473 469.065 459.31 468.611C457.687 466.116 456.064 463.394 454.279 460.899C455.415 460.673 456.551 460.219 457.85 459.992L457.687 459.765L457.525 459.538L457.363 459.312C457.2 459.085 457.201 459.085 457.038 458.858L456.876 458.631C456.714 458.404 456.714 458.404 456.551 458.177C458.824 457.497 460.933 456.817 463.043 456.363L463.206 456.59C463.368 456.817 463.53 457.043 463.693 457.27L463.855 457.497L464.017 457.724L464.179 457.951L464.342 458.177H464.666H464.991H465.316H465.64H466.127H466.452C466.614 458.177 466.776 458.404 467.101 458.404H467.425H467.588H467.75H467.912H468.075L468.237 458.631L468.399 458.858L468.562 459.085L468.724 459.312L469.211 459.538V459.312L468.886 458.858L468.724 458.404V458.177H468.886H469.211H469.373C469.535 458.177 469.535 457.951 469.698 457.951H469.86H470.185H470.509H470.671L470.834 457.724L470.996 457.497L471.158 457.27V457.043V456.817V456.59L471.321 456.363L471.483 456.136L471.645 455.909H471.97L472.294 456.136L472.781 456.363L473.268 456.59L473.431 456.363L473.268 455.909L472.944 455.456L472.619 455.002L472.457 454.548V454.095L472.619 453.641L472.781 453.414H473.106H472.944L473.106 453.187H473.268H473.593H473.755L473.917 452.961L474.404 452.507L474.729 452.053V451.827V451.6V451.373H474.891H475.216H475.378L475.216 450.919H475.703L475.54 450.466L475.216 449.558L475.54 449.105L476.839 448.878L477.488 449.105H477.65H477.813L477.975 449.332H478.137H478.3H478.462L478.624 449.558H478.786H478.949V449.332L478.624 448.651H478.3H478.137H477.975V448.424L478.137 448.197L479.273 447.971L480.572 448.197L480.896 447.971V447.517L480.734 445.476V445.249L480.896 445.022H481.059H481.221V444.795L481.059 444.341L481.383 444.795L481.708 445.249L482.033 445.702L482.519 445.929L483.493 446.61L484.142 446.836H485.765L487.388 447.29H487.875H488.362H488.525L488.687 447.517L489.011 447.971L489.174 448.197L489.498 448.424H489.985H490.31L490.472 448.197L491.608 447.744L492.257 446.61L492.744 444.795L493.069 443.888V443.207L492.744 442.981L492.42 442.754H492.582H492.744H492.907L493.88 441.62L493.718 441.166L493.556 440.712L493.231 440.032L493.069 439.578V439.351V439.125V438.898L492.907 438.671L492.744 438.444H492.582H492.42V438.217L492.744 437.99V437.764L493.394 436.403L493.88 436.176L494.205 435.722L495.017 435.269L495.179 435.042V434.588H494.854L494.692 434.134V433.681V433.454L494.854 433.227L495.179 433V432.774V432.547V432.32V432.093V431.866H495.017L494.53 429.825ZM536.89 438.898L535.754 439.351L535.592 439.578V440.032L535.754 442.527V442.3L535.916 442.073V441.62L535.754 440.712V440.259L535.916 440.032L536.079 439.805H536.403L536.565 440.259L536.728 440.712V441.166L536.565 441.393L536.89 441.62L537.052 441.393L537.215 440.939L537.052 440.485L536.89 440.032V439.805L537.052 439.578V439.351L536.89 438.898ZM513.032 340.458C509.948 336.375 506.864 332.292 503.943 328.209C498.749 330.251 493.231 332.065 487.713 333.653C481.708 335.468 475.703 337.282 469.211 338.87C462.556 340.684 455.578 342.272 448.274 343.633C446.164 344.087 444.054 344.54 441.782 344.994L441.133 344.767L440.321 344.087L439.672 343.406L439.997 343.179C440.484 343.406 440.808 343.406 441.295 343.633L441.944 343.86H442.269L442.107 343.406L441.782 342.953L441.295 342.499L440.97 342.045L440.159 340.911L439.185 339.777L438.211 338.87L437.238 338.189C437.075 337.963 436.913 337.963 436.588 337.736L436.264 337.509L436.101 337.282V337.055H436.264V336.828L436.101 336.602L435.615 336.375H435.128L434.641 336.602H434.316H433.829L433.018 336.375L432.206 336.148L431.882 335.694H432.206H432.693L432.855 335.468L432.206 334.787L431.882 334.56L431.557 334.333L431.232 334.107L431.07 333.88H430.746V334.107V334.333V334.56H430.583H430.259L429.934 334.333L429.447 333.88L429.285 333.426L429.123 332.746L428.96 332.065V331.612L429.123 330.931L429.285 330.478L429.609 330.024L429.934 329.797L430.421 329.57C431.07 329.343 431.557 329.117 432.206 328.89C432.531 328.89 432.693 328.663 433.018 328.663H433.342H433.667H433.992H434.316L434.478 328.209L433.992 327.756L433.342 327.302L432.693 326.848L432.369 326.622H432.044H431.719L431.395 326.395C431.07 326.168 430.908 326.168 430.583 325.941L430.259 325.714H429.934C429.609 325.034 429.123 324.353 428.798 323.673L428.149 322.539L427.5 321.405L427.013 320.724L426.526 320.271L426.039 319.817L425.552 319.59L425.065 319.363L424.74 319.137L424.416 318.683L424.091 318.229L423.442 317.776L422.793 317.549H422.144L421.819 317.776C421.494 318.002 421.332 318.002 421.008 318.229L420.845 318.683L421.008 319.363L421.332 319.817L421.819 320.271L422.306 320.724L422.63 321.178L422.793 321.632V322.085V322.539L423.28 322.992L424.091 323.9V324.127H423.604H423.117H422.63L422.306 324.353L422.144 324.58V325.261L422.306 325.714L422.63 326.168L422.955 326.622C423.28 326.848 423.767 327.302 424.091 327.529L424.416 327.983L424.578 328.436L424.903 329.117L425.227 329.57L426.039 330.478L426.363 330.931L426.526 331.158V331.385V331.612L426.688 331.838L427.013 332.292L427.337 332.519L427.662 332.746L427.986 332.973L428.473 333.426L428.96 333.88C429.285 334.333 429.772 334.56 430.096 335.014L430.421 335.241L430.746 335.468L430.908 335.694L431.232 335.921L431.557 336.375L431.719 336.602C431.719 336.828 431.882 337.055 431.882 337.282L432.206 337.963L432.531 338.643L433.018 339.324L433.505 340.004L433.829 340.458C434.154 340.684 434.316 341.138 434.641 341.365L434.965 341.819L435.128 342.272L434.803 342.499H434.316H433.992L433.667 342.726L433.829 343.179L434.154 343.633L434.478 344.314L434.641 344.54L434.803 344.767L434.965 344.994L435.128 345.221L435.452 345.448L435.777 345.674L435.939 345.901V346.128V346.582L436.264 347.035L436.751 347.716L437.238 348.396L437.4 348.85L437.562 349.304L437.724 349.757L438.211 350.211L438.536 350.438L438.861 350.891L439.185 351.118L439.51 351.345H439.672H439.834H439.997L440.321 351.572L440.484 351.799V352.025V352.252V352.479V352.933L440.321 353.16L440.159 353.386L439.997 353.613L439.834 353.84V354.294C439.997 354.747 439.997 354.974 440.159 355.428V355.655V355.881V356.108H439.997H439.834H439.672V356.335C439.672 356.562 439.834 356.789 439.834 357.016V357.242L439.51 357.016L439.023 356.335L438.536 355.655L438.049 354.974L437.4 354.521L436.751 354.294L436.264 354.067L435.777 353.613C435.452 353.386 435.29 352.933 434.965 352.706L434.803 352.479L434.965 352.252L435.128 352.025L435.452 351.799V351.345L434.965 350.665L434.316 350.211L433.667 349.984H433.018L432.369 349.757L431.882 349.53L431.232 349.304L430.583 348.85L430.096 348.396L429.772 347.716L429.609 347.262L429.447 346.809L428.798 346.355L428.149 345.901L427.5 345.674L426.85 345.448L426.201 344.994C425.714 344.54 425.227 344.314 424.74 343.86L423.929 343.406L423.28 342.953H422.63C422.306 343.179 421.981 343.179 421.494 343.406L420.845 343.179L420.683 342.953C420.521 342.726 420.358 342.726 420.196 342.499L420.034 342.272H419.709H419.384H419.222H419.06H418.898H418.735L418.573 342.499V342.726L418.735 343.179L418.898 343.633L419.06 344.087V344.54L419.384 345.221L419.871 346.128L420.196 346.809L419.871 347.035L419.547 346.809L419.222 346.582L418.898 346.355L418.573 346.128L418.086 345.901H417.599H417.112H416.788H416.625H416.463L416.301 346.128V346.355L416.463 346.809L416.788 347.262L417.112 347.716L417.275 347.943H417.112H416.95L416.625 347.716H416.463H416.138H415.976H415.814H415.489L415.002 347.489L414.353 347.262L413.542 346.809L412.892 346.355L412.406 345.674L412.081 344.994L411.756 344.314L411.269 343.86L410.783 343.633L410.458 343.86L410.133 344.087L409.484 343.86L409.16 343.633C408.997 343.406 408.835 343.406 408.51 343.179L408.186 342.953L407.861 342.726L407.537 342.499L407.374 342.272L407.05 342.045H406.725V342.499L407.05 343.179L407.537 343.86L407.699 344.087L407.861 344.314L408.023 344.54L408.186 344.767V344.994V345.221L408.348 345.448L408.673 345.901L408.997 346.128L409.16 346.355L408.835 346.128L408.51 345.901H408.348H408.186H407.861L407.212 345.448L406.725 344.994L406.238 344.314L405.589 343.633L405.102 343.179L404.128 342.499L403.804 342.045L403.479 341.365L403.317 341.138L403.154 340.911V340.684V340.458L403.317 340.231L403.479 340.004L403.641 339.777V339.55H403.479C403.317 339.324 402.992 339.097 402.83 339.097L402.668 338.87L402.505 338.643L402.343 338.416L402.181 338.189L401.856 337.963L401.531 337.736L401.207 337.509C401.045 337.282 400.882 337.282 400.72 337.055L400.233 336.602H400.395H400.72H401.045L401.207 336.375L400.72 335.921L399.908 335.241L399.422 334.787L399.259 334.56L399.097 334.333L398.935 334.107L398.772 333.88L398.61 333.653L398.448 333.426L398.285 333.199L398.123 332.973L397.636 332.292V332.065H397.961L398.448 332.292H398.772V332.065L398.448 331.612L398.123 331.158L397.636 330.704L396.987 330.251L396.013 328.89L395.689 328.209L395.851 327.983L396.176 327.756L396.338 327.302L396.176 326.848L395.689 326.622L395.202 326.395L394.715 325.941L394.228 325.261L393.741 324.58L393.254 324.127L392.767 323.9L392.28 323.673L391.956 323.446L391.631 323.219L391.307 322.992H391.144L390.982 323.219L391.144 323.446L391.307 323.673L391.631 324.127L392.118 324.807L392.28 325.261L392.118 325.487H391.793H391.307L390.82 325.261L390.657 325.487L390.982 326.168L391.469 326.848L392.443 328.209C392.93 328.89 393.416 329.57 393.741 330.251L394.228 330.931L394.39 331.385L394.066 331.612L393.741 331.838L393.579 332.065L393.741 332.746L393.579 333.199L392.93 332.519L392.118 331.612L391.631 331.158H391.307L391.793 331.838L392.443 332.519L392.767 332.973H392.605L392.28 332.746L391.956 332.519L391.631 332.292H391.307H390.982H390.82H390.657H390.17L389.684 332.065L389.197 331.612L387.898 331.158L387.574 330.478L387.249 329.797L386.762 329.117L386.113 328.209C385.788 327.756 385.464 327.529 385.139 327.075L384.652 326.622L384.328 326.168L384.165 325.487C384.165 325.261 384.328 325.034 384.328 324.58L384.165 323.9C384.003 323.446 383.841 322.992 383.678 322.766L383.354 322.085L383.029 321.632L382.542 321.178L382.055 320.724L381.568 320.271L381.082 319.59L380.757 318.683L380.595 318.002C380.432 317.549 380.432 317.095 380.27 316.641L379.945 316.188L379.459 315.734L378.972 315.281C378.647 315.054 378.322 314.827 377.998 314.6L377.673 314.373H377.349H377.186V314.6V314.827V315.054H376.862L376.537 314.6L376.05 313.92L375.563 313.466L375.239 313.239L374.914 313.012L374.59 312.786L374.265 312.332L373.94 311.878L373.778 311.425L373.616 310.971L373.291 310.744L372.48 310.29L371.668 310.064H371.019H370.532H370.045H369.396H368.747L368.098 309.837L366.799 308.93L366.15 307.342L365.501 305.754L364.527 304.393L364.202 304.166L363.878 303.94L363.553 303.713L363.229 303.486L362.742 303.259L362.255 303.032L361.768 302.805L361.281 302.579L360.956 302.352L360.794 302.125L360.632 301.898L360.307 301.444L359.983 300.991L359.658 300.764L359.333 300.537C359.009 300.31 358.684 300.084 358.36 299.857L357.71 299.403L357.061 298.949L356.412 298.496L355.763 298.042L355.438 297.589L355.276 297.135C355.276 296.908 355.113 296.681 355.113 296.228L354.951 295.774V295.547V295.32L355.113 295.094L355.276 294.867V294.64V294.186V293.959L355.438 293.733C355.6 293.733 355.6 293.506 355.763 293.506V293.279V293.052V292.825V292.599H355.925H356.087H356.25V292.372L355.925 291.918H355.6H355.276H355.113C355.113 291.691 355.114 291.464 354.951 291.011L354.627 290.33L353.977 289.877C353.653 289.65 353.166 289.423 352.841 289.423L352.354 288.969L351.867 288.289L351.543 287.835L351.381 287.382L351.056 286.928L350.731 286.474L350.407 286.248L350.082 286.021L349.758 285.794L349.433 285.34L349.108 284.66L348.784 283.979L348.459 283.299L348.297 282.845L348.459 282.618H348.946H349.595L350.244 282.845L351.218 283.526L352.354 284.206L353.328 284.66L353.815 284.433V284.206V283.979L353.653 283.753L353.328 283.299L353.004 282.845V282.618C353.004 282.392 353.004 282.392 353.004 282.165C353.004 281.938 353.004 281.938 353.004 281.711V281.484H353.166H353.491L353.815 281.711H354.14H354.464L354.627 281.484L354.789 281.257V280.804L354.302 280.35L353.815 280.123L353.328 279.897H352.841H352.354H352.192H352.03H351.867H351.543L351.381 279.67L351.218 279.443V279.216V278.989V278.762L351.056 278.536L350.569 278.989L350.244 278.762L349.758 278.536L348.946 278.082L348.135 277.628L347.648 277.175V276.948L347.81 276.721L347.972 276.494V276.267L347.648 276.041L347.161 275.814C346.836 275.587 346.674 275.587 346.349 275.36L345.7 274.906L345.213 274.453C344.889 273.999 344.402 273.546 344.077 273.092L343.59 272.638L343.103 272.185L342.616 271.731L342.129 271.277L341.48 270.37L341.318 269.69V269.236L341.643 269.009H341.967L342.292 269.236L342.779 269.463C342.941 269.463 343.266 269.69 343.428 269.69L343.59 269.916V270.143V270.37V270.597V270.824V271.051L343.752 271.277L344.077 271.504L344.564 271.731C344.889 271.731 345.051 271.958 345.375 271.958L346.025 272.411L346.674 272.865L347.485 273.319L348.297 273.772L348.621 273.999L348.946 274.226L349.271 274.453L349.758 274.68L350.082 274.906L350.407 275.36L350.894 275.814L351.218 276.267L352.03 276.948L352.679 277.402L353.328 277.628L353.977 277.855C354.627 278.082 355.113 278.309 355.763 278.762L356.574 278.989L356.899 278.762L356.737 278.536C356.574 278.309 356.25 278.309 356.087 278.082L355.925 277.855V277.628H356.25H356.574H356.899V276.948L355.6 275.587L353.977 274.226L352.841 273.319L352.517 272.638L352.679 272.411L353.004 272.185V271.958L352.679 271.731L352.354 271.504C352.192 271.277 351.868 271.277 351.705 271.051L351.381 270.824L351.056 270.597L350.569 269.916L350.244 269.69L350.082 269.463C349.92 269.236 349.758 269.236 349.595 269.009L349.433 268.782L349.108 268.556L348.946 268.329L348.784 268.102L348.621 267.875L348.459 267.421L348.297 266.968L348.135 266.741L347.972 266.514V266.287H348.135H348.297L348.135 266.06L347.648 265.607L346.836 265.153L346.025 264.7L345.538 264.246L345.213 264.019L344.726 263.792L344.239 263.339L343.915 263.112L343.59 262.885V262.658H343.752H343.915H344.402L345.051 262.885L345.862 263.339C346.349 263.792 346.674 264.246 347.161 264.7H347.485H347.81H348.297L348.946 265.153L349.595 265.834L350.407 266.514L351.056 267.195L351.381 267.421L351.705 267.648H352.03L352.354 267.875L352.679 268.102L353.004 268.329L353.328 268.556L353.653 268.782L354.951 269.69L356.25 270.824L357.548 271.731L358.684 272.185C358.846 272.185 359.171 272.185 359.333 272.411L359.658 272.638L360.145 272.865L360.632 273.092L361.119 273.546L361.606 273.772L361.93 273.999H362.092V273.772V273.546H362.417H362.742C362.904 273.546 363.229 273.772 363.391 273.772H363.553H363.878L364.202 273.999L364.527 274.226L364.852 274.68L365.176 275.133L365.501 275.36L365.825 275.814L366.637 276.494L367.286 276.948L367.935 277.402L368.584 277.855L369.234 278.309L369.721 278.762L370.045 278.989H370.532L371.019 278.762C371.344 278.536 371.506 278.309 371.83 278.082L372.317 277.855H372.48C372.642 277.855 372.804 277.855 373.129 278.082H373.453H373.778H374.103H374.427H374.752C375.239 278.309 375.726 278.536 376.213 278.536L376.862 278.762H377.511L378.485 278.536C378.972 278.082 379.459 277.855 379.783 277.402L380.595 277.175H381.082L381.731 277.402C382.218 277.628 382.705 277.628 383.029 277.855H383.678L384.165 277.628L384.49 277.402L384.815 276.948L385.139 276.721H385.626L386.113 276.948L386.762 277.175L387.736 277.628L388.547 278.082L389.359 278.536L390.17 278.989L391.631 279.67L393.092 280.123L394.39 280.35H395.526L395.851 279.897L395.689 278.989L395.039 277.628C394.553 276.721 394.066 275.814 393.579 274.906L392.93 273.546L392.443 272.185L392.118 271.051L391.793 270.37L391.144 269.916L390.495 269.463L390.008 269.236L389.359 268.782L388.872 268.329L388.385 267.648L387.898 266.741L387.574 266.06L387.249 265.38L387.087 264.7V264.246L387.411 264.019C387.736 264.019 387.898 263.792 388.223 263.792L388.547 263.565C388.71 263.112 389.034 262.658 389.197 262.431L389.359 261.524L389.034 260.617L388.547 260.163L388.061 259.71L387.574 259.256L387.087 259.029L386.6 258.575L386.275 257.895L385.951 257.215L385.626 256.534L384.977 255.854H384.49L384.003 256.08H383.678L383.191 255.854L382.542 255.4L381.893 254.946L381.406 254.719L381.082 254.493L380.757 254.266L380.432 254.039L379.945 253.585L379.621 253.132L379.296 252.678L378.972 252.224L378.647 251.771L378.16 251.317L377.673 250.864L377.186 250.637L376.699 250.183C375.888 249.729 375.076 249.049 374.265 248.595L372.804 247.461L371.668 246.1L371.344 245.42L371.181 244.966V244.739L371.344 244.513C371.344 244.286 371.344 244.286 371.506 244.059V243.832V243.605L371.668 243.378H371.83H371.993H372.155H372.317L372.48 243.152V242.925L372.317 242.698L371.993 242.471H371.668L371.344 242.698H371.181H371.019H370.857H370.532H370.207L369.883 242.471L369.558 242.244L369.234 242.018H368.909H368.584H368.26H367.935L367.448 241.791L367.286 241.564L367.124 241.337L366.961 241.11H366.799H366.637H366.475L366.312 240.883V240.657V240.43V240.203V239.976L366.15 239.749H365.988H365.825L365.663 239.976V240.203V240.43L365.501 240.883L365.338 241.11L364.852 240.657C364.527 240.203 364.365 239.749 364.04 239.522L363.715 239.069V238.615L363.878 238.388L364.202 238.162L364.365 237.935L364.04 237.254L363.391 236.801L362.579 236.347L361.93 236.12H361.606L361.443 236.347H361.281H361.119L360.794 236.12H360.632L360.469 235.893C360.307 235.893 360.307 235.667 360.145 235.667L359.983 235.44H359.82H359.658L359.496 235.213L359.333 234.759L359.009 234.079L358.522 233.398L357.873 232.718L357.71 232.491L357.386 232.264L357.061 232.037L356.737 231.811L356.574 231.584H356.737H357.061H357.223L358.035 231.811L358.684 232.037H359.171L359.658 231.811L359.82 231.584L359.658 231.357L359.171 231.13L358.684 230.903L358.197 230.676L357.873 230.223L357.548 229.542L357.223 229.089L356.899 228.862L356.574 228.635L356.25 228.408L355.925 228.181L355.438 227.955L355.113 227.728L354.789 227.501L354.302 227.047L353.815 226.594L353.328 226.367L352.841 225.913L352.192 225.46L351.867 225.006L351.543 224.326L351.381 223.872L351.218 223.418L351.381 223.191L351.705 222.965L351.867 222.738L351.381 222.057L350.731 221.377L350.569 220.923V220.696L350.731 220.47H350.894H351.218H351.543V220.243L351.381 220.016L351.056 219.789L350.731 219.562L350.407 219.335L349.92 218.882L349.595 218.428L349.433 217.975V217.748V217.521L349.271 217.294L348.946 217.067L348.621 216.84L348.459 216.614L348.135 216.16L347.972 215.706L347.323 215.48V215.026L347.485 214.799L347.648 214.572L347.323 213.892L347.161 213.665L346.836 213.438L346.674 213.211L346.512 212.984L346.349 212.531L346.187 212.077L346.025 211.624L345.862 211.17L345.375 210.716L344.726 210.263L344.239 209.809H344.077C344.402 210.263 344.726 210.716 345.051 211.397L345.375 212.077L345.051 211.85L344.402 211.17L344.077 210.489L343.752 209.809L343.428 209.129L343.266 208.902L343.103 208.675L342.941 208.448V208.221V207.994V207.768V207.541V207.314L343.103 207.087L343.266 206.86L343.103 206.407H342.454L341.967 205.953L341.48 205.499L340.993 204.819C340.669 204.365 340.344 203.912 340.02 203.458L339.37 202.778L338.883 202.097L338.559 201.417V200.963L338.721 200.736L338.883 200.509V200.056L338.721 199.602L338.559 198.922L338.072 198.241L337.423 197.561L337.098 197.334H336.936L336.774 197.561L336.936 197.788L337.098 198.014L337.26 198.241L337.423 198.468L337.585 198.695V199.148L337.098 198.695C336.611 198.241 336.287 198.014 335.8 197.561L335.313 197.107V197.334L335.475 197.788L335.637 198.241H335.475L335.313 198.014L334.988 197.788L334.664 197.561L334.339 197.334H334.177H334.014L333.69 197.107L333.203 196.653L332.716 196.2L332.229 195.746L331.905 195.519L331.58 195.292H331.255H330.931L330.606 195.066H330.444L330.606 195.292L330.931 195.746L331.093 196.2L330.931 196.427L329.632 195.292L328.172 193.932L327.198 192.797L326.549 192.344C326.224 191.89 325.737 191.663 325.413 191.21L324.763 190.529L324.276 189.849L323.789 189.168L323.303 188.715H322.816H322.653H322.329L322.004 188.488L321.68 188.261H321.355H321.193H321.03H320.868L320.381 188.034L319.894 187.354C319.57 186.9 319.407 186.446 319.083 185.993L318.596 184.859L318.758 184.405L319.245 184.178H319.732H319.894V183.951V183.725L319.732 183.498L319.57 183.044C319.407 182.817 319.245 182.591 319.083 182.137L318.921 181.683L318.758 181.456L318.596 181.23L318.434 181.003V180.776V180.549L318.596 180.322C318.758 180.322 318.92 180.322 319.083 180.096V179.869L318.921 179.415L318.758 178.961V178.508H319.083H319.57H319.894V178.054L319.732 177.6L319.57 177.374L319.732 176.92L319.407 176.693L319.083 176.466L318.758 176.24L318.596 176.013L318.271 175.786L317.622 175.332L317.46 175.559V176.013L317.297 176.24H316.973H316.648L316.324 176.013L315.674 175.559L315.025 175.105L314.538 174.652L314.051 173.971L313.727 173.291L313.402 172.384L313.565 172.157H313.889H314.376H314.538L314.701 171.703H314.863H315.188H315.512H315.837H315.999C316.324 171.703 316.811 171.703 317.135 171.703H317.784L318.271 171.476L318.596 171.25L318.758 170.796L318.434 170.115L317.46 169.208L316.973 168.981L316.486 168.754L315.999 168.528L315.512 168.301L315.025 168.074L314.701 167.847H314.376L314.051 167.62L313.402 167.394L312.915 167.167H312.428L312.266 167.394V167.62L312.428 167.847V168.074V168.301L312.266 168.528H311.942H311.617H311.292H310.968L310.805 168.981V169.435V170.115L310.643 170.569H310.319L309.832 170.342C309.507 170.115 309.345 170.115 309.02 169.889L308.696 169.662L308.371 169.435L308.046 169.208L307.722 168.754C307.559 168.528 307.397 168.301 307.235 168.074L306.91 167.62L306.099 166.94L305.45 166.713H304.963H304.638H304.313L303.989 166.486L303.664 166.259H303.34H303.015C302.853 166.259 302.69 166.259 302.528 166.486H302.204L301.554 166.259L300.905 165.806L300.256 165.352L299.607 164.899H299.282C299.282 165.125 299.12 165.352 299.12 165.579H298.795H298.633L298.308 165.352L297.984 165.125L297.659 164.899V164.672V164.445V164.218L297.497 163.991L297.335 163.764L297.172 163.538L297.01 163.311L296.848 163.084V162.857C296.685 162.63 296.685 162.404 296.523 162.177V161.95V161.496L296.848 161.269H297.335L297.984 161.723L298.308 161.95L298.633 162.177L298.958 162.404L299.282 162.63H299.607H299.931H300.256L300.743 162.857L301.067 163.084H301.23H301.392L301.717 163.311L302.204 163.538L302.528 163.764H302.853H303.177H303.502L303.827 163.538V163.084L303.177 162.404L302.853 162.177L302.528 161.95L302.204 161.723L301.879 161.496L301.392 161.269C301.23 161.269 300.905 161.269 300.743 161.043L300.256 160.816L299.607 160.362L299.12 159.682L298.795 159.001L298.308 158.548L297.984 158.321L297.659 158.094L297.335 157.867L297.01 157.64L296.685 157.187L296.523 156.733L296.361 156.506L296.198 156.053L295.874 155.826L295.549 155.599L295.225 155.372L294.9 155.145L294.738 154.918L294.575 154.692V154.465V154.238L294.251 153.784L293.764 153.331L293.277 152.877V152.65H293.439V152.423V152.197L293.115 151.97L292.79 151.743L292.628 151.516V151.289C292.628 151.062 292.79 151.062 292.79 150.836C292.79 150.609 292.952 150.609 292.952 150.382L293.115 150.155L293.277 149.928L293.439 149.702V149.475L293.115 149.021L292.466 148.567L291.816 148.341H291.329L291.167 148.567L291.005 148.794L290.842 149.248L290.68 149.475L290.518 149.702L290.356 149.928L290.193 150.155H289.869L289.382 149.928L289.057 149.702L288.733 149.475L288.408 149.248L288.083 148.794H287.921V148.567L287.759 148.341L287.596 148.114H287.434H287.272H287.11L286.46 147.66L285.973 147.207L285.649 146.753L285.324 146.072V145.846V145.619L285.162 145.392L285 145.165L284.837 144.938L284.675 144.712L284.513 144.485L284.35 144.031L284.188 143.577L284.026 143.124L283.864 142.67L283.701 142.443L283.539 142.216L283.377 141.99L283.214 141.763C283.052 141.536 282.89 141.536 282.727 141.309C282.565 141.082 282.403 140.856 282.241 140.856L282.078 140.629L281.916 140.402L281.754 140.175L281.591 139.948V139.721V139.495L281.429 139.268L281.267 139.041L281.104 138.814L280.78 138.587V138.361H280.942H281.104V138.134L280.78 138.361C280.618 138.134 280.293 137.907 280.131 137.907L279.968 137.68L280.131 137.453L280.78 137.68H281.104L280.618 136.773L279.968 136.092L279.481 135.866L278.995 135.639L278.508 135.412L278.183 135.185L277.858 134.958L277.696 134.731H277.534L277.372 134.958H277.209L277.047 134.731L276.722 134.505L276.398 134.278L276.073 134.051L275.749 133.824L275.424 133.597L275.099 133.37L274.775 133.144L274.612 132.917L274.45 132.69H274.612L274.937 132.917L275.424 133.144L275.749 133.37H275.911H276.073L276.235 133.144H276.398H276.56V132.917L276.398 132.69C276.235 132.463 275.911 132.463 275.749 132.236L275.424 132.01H275.586C275.749 132.01 276.073 132.01 276.235 132.01C276.398 132.01 276.722 132.01 276.885 132.01H277.047L276.885 131.783L276.56 131.556L276.235 131.102L275.262 130.195L274.612 129.968H274.288L273.963 130.195L273.476 129.968L272.665 129.515L271.853 128.834L271.366 128.38L270.88 127.7L271.042 127.246L271.366 127.02H271.691H272.016C272.178 127.02 272.503 127.02 272.665 127.246H272.989C273.152 127.246 273.314 127.246 273.476 127.02H273.801H274.126H273.963L272.827 126.339L272.503 126.112L272.178 125.885L271.529 125.659L271.204 125.432L271.366 125.659H271.529H271.691L272.016 125.885H271.853L271.366 125.659H271.204L270.555 125.205L270.23 124.978H269.743H269.581H269.419H269.257L269.419 125.205L269.906 125.659L270.23 126.112L270.393 126.566L270.555 127.02V127.473V127.7L270.23 127.927L272.016 129.288L272.34 129.741V129.968H272.016H271.691L272.016 130.422L272.34 130.875H272.178L272.34 131.102L272.503 131.329L272.665 131.556L272.827 131.783V132.01L272.665 131.783H272.503H272.34L272.178 132.01V132.236L272.34 132.463L272.665 132.69L273.152 132.917L273.476 133.597L273.314 133.824H272.503L272.665 134.051L272.827 134.278L273.152 134.731L273.476 134.958L273.801 135.185L274.126 135.412L274.45 135.639L274.775 136.092H274.612L274.288 135.866H274.126L273.963 136.092L274.937 136.773L275.424 137.226L275.586 137.68L274.937 137.226L274.775 137L274.45 136.773H274.288L274.45 137L274.612 137.226L274.775 137.453L274.612 137.68H274.45H273.963L274.126 137.907L274.937 138.134L275.424 138.361L275.911 138.814L276.073 139.268L275.586 139.041L274.937 138.587H274.775L274.612 138.361H274.45L274.612 138.587L274.775 138.814L275.262 139.268L275.586 139.495L275.424 139.721L275.586 139.948L276.073 140.175L277.372 141.082L278.183 141.536L278.832 141.99H278.995L279.968 142.216L280.131 142.443L279.319 142.216L278.832 141.99L278.183 141.536L277.372 141.082L276.56 140.402L276.235 140.175L274.45 139.268H274.288H274.126V139.495H273.963L274.126 139.721L273.801 139.495V139.721L273.963 140.175V140.402H273.801H273.639L273.152 140.175V140.402L273.963 141.082V141.309L273.639 141.536V141.99L274.126 142.443L274.612 142.897L276.56 145.165L279.319 147.887L279.806 148.341L280.131 148.567L281.267 148.794L282.403 149.475L283.214 149.702L283.539 149.928L285 151.062L286.136 151.743L287.11 152.423L287.921 152.65L287.759 152.877L287.11 152.65H286.947L286.623 152.423L284.188 150.836L284.026 150.609L283.864 150.382L283.701 150.155H283.539H283.377L282.565 149.928L280.78 149.475H280.618L280.293 149.702H279.806L278.508 149.021H278.021L278.508 149.475L278.995 149.702L279.481 149.928L279.968 150.155L280.131 150.382H279.806L279.968 150.609L281.591 151.289L282.241 151.743L281.754 151.516H281.591L281.754 151.97L282.078 152.65L282.403 153.104L282.727 153.331H283.052L284.837 155.145H284.675L281.267 152.65L280.293 151.97V152.197L280.618 152.65L281.104 153.331L281.591 153.784L281.916 154.011L282.241 154.238L283.052 154.918L283.377 155.145L283.539 155.372H283.377L282.727 154.918H282.565L282.727 155.145V155.372H282.565L282.403 155.145L282.241 154.918V155.145L283.377 156.279L283.701 156.733L281.916 155.145L281.104 154.465L280.293 154.238H280.131L280.293 154.465L280.455 154.692L280.78 154.918L280.942 155.145L281.429 155.599L281.754 155.826L282.078 156.053L282.565 156.279L282.403 156.506V156.733L282.565 156.96L282.89 157.413L283.052 157.64L284.35 158.774L285.162 159.682L285.487 159.908L285.811 160.135H286.136H286.298V159.908V159.682V159.455H286.46H286.623L287.434 159.682L288.408 160.362H289.382L290.031 160.816L290.193 161.043L289.869 161.269L288.57 161.043L287.921 160.816L287.434 160.589H287.272H286.947H286.785L286.46 160.816V161.043L287.434 161.723L287.596 161.95H287.921L288.246 162.177L288.57 162.404L289.057 162.857H288.895L287.11 161.95L285.811 161.043H285.487L285.324 160.816L285 161.269H284.837H284.513L285.162 161.496L285.324 161.723H284.837H284.675L284.837 161.95L286.623 162.857L286.785 163.084L286.947 163.311L287.272 163.538L287.596 163.764L287.759 164.218L287.272 163.764L285.973 162.857L283.864 161.723H283.701L284.026 162.177L284.513 162.63L285 163.084L285.324 163.538L284.837 163.764V163.991L284.513 164.218L284.837 164.672L285.324 165.125L285.811 165.352L286.623 165.579L287.759 165.806L287.921 166.033L288.083 166.259V166.486L287.921 166.713L287.596 166.94L286.298 166.486V166.94L285.162 166.033L285 165.806V166.033L285.487 167.62V167.847L285.811 168.074L286.785 168.528L286.947 168.754L287.434 169.208L287.921 169.889L288.083 170.342L288.57 170.569L289.382 170.796L289.869 171.25L290.031 171.476L290.518 172.157L290.842 172.384L291.167 172.61L291.654 172.837L291.816 173.064L292.466 173.745L292.628 173.971L293.277 174.425L293.115 174.652L292.466 174.425H292.303V174.652L292.466 174.879L292.628 175.105L292.79 175.332L292.952 175.559V175.786V176.466V176.92L293.115 177.374L293.439 177.6H293.764L294.089 177.827L294.413 178.281L294.251 178.508C294.413 178.735 294.575 178.735 294.575 178.961L294.738 179.188V179.415H294.575H294.413H294.251V179.642L294.413 180.096L294.738 180.549L294.9 180.776H294.738L294.413 180.549L293.602 179.869L293.439 179.415L293.764 178.961V178.508L293.439 177.827L292.79 177.147L292.141 176.466L291.816 176.24L291.654 176.013L291.492 175.559L291.329 175.105V174.879V174.652L291.167 174.425L291.005 174.198L290.842 173.971L290.68 173.518L290.518 173.064L290.356 172.61L290.031 172.384L289.706 172.157L289.219 171.93L288.895 171.703L288.733 171.25L288.408 171.023H288.083L287.921 171.25H287.759L287.434 171.023L286.947 170.569L286.623 170.115L286.136 169.662L285.811 169.208L285.487 168.981L285.162 168.754H284.837L283.864 168.301L283.539 168.074L282.727 167.167L282.241 166.94L281.591 166.713L280.293 165.806L280.131 165.579V165.352H279.806L279.481 165.125H279.319V165.352V165.579H279.157L278.995 165.806V166.033L279.157 166.259L279.481 166.486L279.806 166.94L279.968 167.394L279.806 167.62L280.131 167.847L280.293 168.074L280.78 168.301L280.942 168.981H280.618H280.131L279.968 169.208L280.455 169.889L280.618 170.342H280.455L280.131 170.115L280.293 170.342L280.618 170.796L280.942 171.023L281.267 171.476L281.429 171.93V172.157L281.591 172.61L281.916 173.064L282.241 173.518L282.403 173.745L282.241 173.971L281.916 174.198L282.403 174.652L283.539 175.559L283.377 175.786H283.052L282.241 175.559L280.942 175.332L281.429 176.013L281.591 176.466L281.429 176.92L281.591 177.147L281.754 177.374V177.6L281.591 177.374L281.429 177.147L281.104 176.92L280.618 176.693L279.968 175.559L279.319 175.105H278.832V175.332L278.995 175.559L279.319 176.693V176.92H279.157H278.67L278.995 177.374L279.319 177.6L279.481 177.827L280.78 176.92L280.942 177.147V177.374H280.78H280.618L280.293 177.147L279.806 176.92L279.481 176.693L279.319 176.92V177.374V177.6H279.157H278.345L278.021 177.827L278.345 178.961H277.858L277.209 178.735H276.885L276.722 178.961V179.188L276.885 180.096H276.56L276.722 180.776L277.047 181.456L277.209 182.364L277.372 183.044L277.858 183.498L278.345 183.951L278.832 184.405L279.157 184.859L279.319 185.312V185.993L279.481 186.446L279.968 187.127L280.455 187.581L280.78 187.807L280.942 188.034H280.78L280.618 187.807L280.293 187.581L280.131 187.354L279.644 186.673L279.319 186.22L279.157 185.766V185.312L278.995 184.859L278.345 183.498L277.209 182.364L276.398 181.456L275.911 180.549L275.424 179.188L275.262 178.735L274.937 178.281L274.45 177.827L273.963 177.374L273.476 177.147H273.152H272.989V176.92L272.34 176.24L272.178 176.013V175.332L271.529 174.652L271.366 173.971L271.204 173.518L270.717 173.064L270.23 172.837H270.068L269.906 172.61L269.743 172.384H269.581L269.094 172.157L268.77 171.93H268.445V172.157L268.607 172.384L268.932 172.837L269.094 173.064L269.257 173.745V173.971L269.419 174.198L270.717 176.013L271.204 176.466L271.853 177.147L271.691 177.6L271.853 178.054L272.34 178.735H272.016L271.691 178.961L271.529 179.415L271.691 180.096L272.178 181.23V181.456V181.683L271.853 181.91V182.137L272.016 183.044V183.271L271.691 183.044L271.529 182.591L270.88 181.003L271.042 179.642H271.204L271.366 178.281V177.827L271.204 177.374L270.88 176.92L270.555 176.466L270.393 176.24L269.257 175.332L268.932 175.105L268.77 174.879L268.607 174.652L268.445 174.425L268.283 174.198L268.12 173.971L267.958 173.745L267.796 173.518L266.984 172.384L266.822 171.93L266.66 171.476L266.497 171.023L266.011 170.569H265.686H265.361L265.037 170.342L264.874 170.115L264.712 169.662L263.901 168.981L263.251 168.754L263.576 169.435L263.901 169.889L264.063 170.115H263.901H263.576H263.251L262.764 169.889L262.44 169.662V169.889L262.602 170.569V170.796L262.764 171.023L264.063 172.837L264.225 173.064L264.388 173.291L264.55 173.518V173.745L264.712 173.971L265.037 174.198L265.199 174.425L265.524 175.332L265.686 176.013L266.011 176.693L266.335 177.147L266.66 177.6L266.822 178.054L266.497 178.281V178.508L266.822 179.188L267.309 179.869L268.12 181.003L268.283 181.456L268.445 181.683L268.607 182.137V182.364L268.283 182.591V182.817V183.044L268.445 183.271L268.607 183.498V183.725L268.283 184.178L266.66 184.632H265.524L264.874 185.086L262.602 185.766L261.953 186.673L261.142 186.9V187.127V187.581L259.681 190.076L260.005 187.581L260.492 186.673L261.628 186.446V186.22L261.953 185.766V185.539V185.312V185.086L263.414 184.859L264.55 183.951L267.147 183.725L267.471 183.498V181.683L267.634 181.456V181.23L267.471 180.776H267.309L266.984 180.549L266.66 180.322V180.096L266.497 179.869L265.524 178.054L264.55 175.105L263.901 173.971L263.414 173.291L263.251 173.064V172.837L263.089 172.61L262.764 172.157L262.44 171.93L261.953 171.476L261.628 170.796L261.142 169.662H260.817L260.655 170.115H260.33L259.843 169.889L259.681 169.435L259.518 168.981L259.194 168.301L258.707 167.847L258.22 168.074L257.733 167.62L257.246 166.94L256.759 165.806L256.435 165.352L256.11 165.125L255.299 164.672L255.136 164.445L254.812 164.218L254.325 163.538L254.163 163.311V162.857L254 162.63L253.676 162.177L253.351 161.95L252.864 161.723L252.54 161.496L252.377 161.269L252.053 161.043L250.592 160.589L250.43 160.362L249.456 159.682L247.671 158.548L247.184 158.321L245.723 157.867L245.236 157.64L245.074 157.413L244.911 157.187L244.749 156.96H244.587L243.938 158.094L242.315 157.867V157.64L242.152 157.413V157.187L240.042 156.96H239.231L238.095 156.733H237.77L237.608 156.96H237.283H237.121H236.959H236.796V157.187V157.64L236.959 158.094L236.634 159.001L235.823 159.455L235.498 159.682L235.66 160.362H235.498L235.823 160.816L235.985 161.043L236.147 161.496H235.985H235.823L235.498 161.269H235.336L235.498 161.496L235.66 161.95L235.823 162.404L235.66 163.084L235.823 163.538L236.147 163.991H235.985L235.498 163.764L235.011 163.538L234.524 163.084L234.2 162.857L234.037 162.63V162.404V161.95H234.2L234.362 161.723V161.496V161.269L234.2 161.043L234.037 160.816L233.226 160.362H232.901L232.739 160.589V161.043L232.577 161.269L232.09 160.816L231.603 160.135L231.278 159.682L231.116 159.228L230.954 159.001L230.791 158.774H230.467H230.304V159.228L230.142 159.455L229.818 159.682H229.493L229.331 159.455L229.006 159.001H228.844L227.708 158.774L227.383 158.548L226.734 158.094L226.247 157.867H225.435L225.598 157.64H225.76L227.058 158.094H227.87H228.032V157.64V157.413H228.195L228.844 157.64H229.168L229.818 157.187L229.655 156.96L229.493 156.733L228.681 155.826H229.006L229.331 156.053L229.655 156.279L229.98 156.506L230.791 157.187L231.278 157.413H231.441L231.278 157.187L230.791 156.733L230.304 156.279L229.98 156.053L229.331 154.918L228.519 154.011L227.708 153.557L227.058 153.331L227.221 153.104V152.877L227.058 152.65L226.734 152.197L225.922 151.289L225.598 150.836V150.609L226.247 151.062L228.844 154.238L229.493 154.692L229.168 154.238L229.818 154.465L230.629 155.145L230.954 155.826L231.116 156.053L231.278 156.279L231.441 156.506H231.603L231.278 156.053L231.603 156.279L232.09 156.96L232.252 157.413V157.64V158.094L234.037 160.135L234.524 160.589H234.849L235.66 160.362V160.135L235.336 159.455L235.011 158.774L234.687 158.321L234.524 157.867H234.687L235.011 158.094L235.336 158.321L235.66 158.548V158.321L235.498 157.867L235.336 157.64L234.362 156.506L230.954 152.197H231.278L231.441 152.423L231.765 152.65L232.09 153.104L232.414 153.331L232.901 153.557L233.226 153.784L232.901 152.877V152.423L233.226 151.97L232.739 151.516L232.414 151.289L232.09 151.062H231.765L231.603 151.289H231.441H231.278H231.116L230.954 151.062L230.467 150.609L230.304 150.382V150.609V150.836L230.467 151.062H230.142L229.655 150.836L229.331 150.382V150.155L229.006 149.928L228.844 149.702L228.357 149.248L228.195 148.794L228.519 147.66H228.681L229.006 147.887L229.168 148.114L229.331 148.341L229.493 148.567L229.655 148.794L229.818 149.021H229.98H230.142V148.794L229.98 148.567L229.655 147.887L229.493 147.66V147.433H229.818H230.467L231.278 148.114L231.603 148.341H231.927L232.09 148.114L231.927 147.66L231.603 147.207L231.278 146.98L231.116 146.753L230.791 146.526L230.629 146.072L230.467 145.846L229.818 145.165L229.331 144.712H229.006L228.844 145.165H228.519L228.195 144.938V144.485L227.708 144.031L227.221 143.804L226.734 143.577H226.409L225.76 144.258H225.111H224.949L224.786 144.485H224.624V144.712V144.938L223.163 144.712H222.839L222.352 144.258L222.027 143.804L221.865 143.577L223.001 143.124L222.839 142.67L222.676 142.443L222.514 142.216H222.027L221.865 141.99V141.763V141.536H222.027L221.702 141.082L221.378 140.629L221.053 140.402L220.729 140.175L220.404 139.948L220.079 139.721L219.917 139.495L219.755 139.041H219.268H219.106L218.781 138.814L218.619 138.361L218.456 138.134V137L218.619 136.546L218.943 136.319H219.268L219.43 136.092V135.639L219.268 134.958L218.619 134.051L218.456 133.824L217.483 133.597L217.32 133.37L217.158 133.144L216.996 132.917H216.833H216.509H216.347L216.184 132.69V132.463V132.01L216.509 131.783L216.347 131.102L216.509 130.875L216.184 130.649L215.86 130.422L215.535 130.195H215.21L215.048 129.968L214.886 129.741L214.724 129.288L214.561 129.061L214.237 129.288L214.074 129.061L213.912 128.834L214.074 128.38V128.154L213.425 127.7L210.828 126.566L209.855 125.885H210.341V125.659L210.179 125.205L209.692 124.524L209.205 124.071L208.718 123.844H207.582L206.284 123.617H204.986L204.012 123.39L202.876 122.937L201.253 122.483H200.928H199.63L199.305 122.256L198.656 121.803H198.331H198.007L197.195 122.029L195.41 121.576L192.326 120.215L191.352 119.988L190.541 119.534L189.567 119.081L189.08 118.854L187.944 118.174L185.834 117.493L186.321 117.266L193.138 119.988L194.111 120.669L194.598 120.895L195.085 121.122L198.656 121.576L198.818 121.349L198.331 120.895H198.169L198.007 120.669L198.818 121.122L205.472 122.937L207.095 123.617H207.42V123.39L206.933 122.937L206.284 122.71L205.959 122.483L205.472 121.576L205.31 121.122H205.635L206.284 121.349L207.258 122.029H207.42L207.258 121.576H207.42H208.069L208.232 121.349L207.745 120.895L207.907 120.669L207.745 120.215L207.42 119.761L207.095 119.081L206.933 118.627L206.771 118.4L206.609 118.174L205.797 117.947L205.635 117.72V117.266V117.039L205.148 116.586L204.336 116.359L203.849 115.905L203.525 115.678L202.064 114.544H201.902H201.577L201.415 114.318L200.928 113.864L200.766 113.637V113.41L200.603 112.957L200.441 112.503L200.279 112.049L199.954 111.823L199.305 110.915L198.98 110.688L198.656 110.462L198.494 110.235L198.331 110.008V109.554L198.169 109.101L198.007 108.874L197.033 108.193L196.059 107.286L195.734 107.059L195.897 106.832L197.357 106.606L197.52 106.379L197.357 105.925L196.871 105.472L196.546 105.245L196.221 105.018L196.059 104.564L195.734 104.111L195.248 103.43L194.761 102.977L194.436 102.75L194.598 102.523L194.923 102.296H195.085V102.069V101.389L195.248 101.162L195.897 100.708H196.708L197.033 100.481V100.028L196.708 99.3474L196.546 99.1206L195.897 98.4401L195.572 97.9865L195.248 97.5328L194.923 96.8524L194.761 96.3987L193.949 96.1719H193.787L193.462 95.7183L192.813 95.0378L192.164 94.3573L191.839 94.1305L191.515 93.9037L189.892 92.0891L189.405 91.6355L188.918 91.1819L188.431 90.955L187.944 90.7282H187.782V91.1819H187.619L187.782 91.4087L187.944 91.6355L188.106 91.8623V92.0891V92.316L188.269 92.5428L188.431 92.7696L188.755 93.4501L188.918 93.6769L189.242 94.1305L189.729 94.5842L190.378 95.0378L190.703 95.4914L191.19 96.3987L190.865 96.6255L190.054 96.1719L189.242 95.0378H188.755L188.431 95.2646L188.269 95.7183V96.1719H188.106L187.944 96.3987V96.6255L188.269 96.8524H188.593L188.918 96.6255H189.08L189.242 97.0792L189.08 97.5328V97.7597L188.918 97.9865L188.593 97.7597L187.944 97.306L187.782 97.0792L187.295 96.6255L187.132 96.3987H186.97L186.159 96.1719L185.834 95.9451L185.509 95.7183L185.347 95.2646L184.86 95.0378L183.724 94.811L183.562 94.5842H184.211V94.3573L184.049 94.1305L183.886 93.9037L183.724 93.6769H183.562L183.4 93.4501L183.237 93.2232L183.075 92.9964V92.7696L182.913 92.5428L182.75 92.316L182.588 92.0891H182.426H182.263L182.101 91.8623L181.614 91.1819L181.452 90.955V90.7282L181.127 90.5014L180.965 90.7282H180.64L180.316 90.2746L179.991 89.8209V89.5941L180.154 89.3673L179.991 89.1405H179.829H179.667L179.342 88.9137L179.18 88.6868L178.531 88.46L178.044 88.2332H177.881V88.46H177.719H177.394L177.232 88.2332L176.745 87.7795L176.096 87.5527L175.934 87.3259L175.609 87.0991L175.447 87.3259L175.609 87.7795L175.934 88.2332H175.609L174.635 87.5527L174.148 87.3259L174.311 87.5527L174.473 87.7795L174.635 88.0064L175.285 88.46H174.96H174.798L174.635 88.2332V88.46L174.798 88.6868L175.122 88.9137L175.447 89.3673L174.798 89.1405L174.635 88.9137L174.473 88.6868L174.148 88.2332H173.986L173.662 88.0064L173.337 87.7795H173.012H172.85L173.012 88.0064H173.175H173.337H173.012H172.85L173.175 88.46L173.499 88.6868L173.824 88.9137L173.986 89.1405L174.148 89.3673L173.824 89.1405L172.688 88.46H171.714L171.227 88.2332V88.0064H171.389L171.227 87.7795L169.604 86.6454L168.793 86.1918V86.4186L169.117 86.6454L169.442 86.8723L169.604 87.0991H169.442H169.117H168.793L168.468 86.8723L168.143 86.6454H168.306L167.656 86.1918L166.196 85.965L166.033 85.5113L165.547 85.0577L165.06 84.6041L163.437 83.6968L162.787 83.47L162.625 83.6968H162.301L161.002 83.0163H160.84L161.164 83.47L160.84 83.2431L160.353 82.7895L160.028 82.3359L159.704 81.8822H159.379L158.892 82.109H157.431L158.081 82.7895L157.756 82.5627L157.431 82.3359L157.107 82.109L155.484 80.7481L155.159 80.5213L154.672 79.8408L154.185 79.3872L153.699 79.1604L153.374 79.3872V79.8408L153.699 80.2945L154.185 80.7481L154.672 81.2018L154.51 81.4286H154.348H154.185H153.861L153.536 81.2018L153.374 80.7481L153.212 80.0676L153.049 79.8408L152.725 79.614L152.562 78.9335L152.238 78.7067H152.076V79.1604H151.913L151.589 78.7067L151.426 78.2531L151.264 77.5726L149.316 76.6653L148.505 76.2117L148.343 75.9849L148.667 75.7581V75.5312L148.505 74.8508H148.18L147.369 74.3971L146.882 74.1703H146.233L145.908 73.9435L145.421 73.7167H145.584L145.746 73.4899L145.584 73.263H145.421L144.934 73.0362L147.044 73.7167H147.531V73.4899V73.263V73.0362H147.856L148.343 72.8094L147.531 72.3558L145.746 72.1289L144.447 71.4485L143.474 71.2216L142.662 70.768L142.5 70.5412H143.636L144.123 70.3144V69.8607H143.961L143.636 69.6339L142.824 69.4071L142.662 69.1803H142.824L142.662 68.9534L142.338 68.7266L142.175 68.4998H141.688L141.364 68.0462L141.039 67.5925H141.851L143.798 68.273H144.61V68.0462L144.447 67.8193V67.5925H144.61L145.421 68.0462H145.584L145.421 67.5925L144.934 67.1389L144.447 66.6852L144.123 66.4584H144.447L143.961 66.0048L142.013 64.6439L141.526 64.417L140.39 63.9634L139.903 63.5098H139.416L138.442 63.0561L137.144 62.3756L135.196 61.4684H135.034L135.196 61.6952L135.683 62.1488L136.008 62.3756L136.17 62.6025L136.332 62.8293L136.495 63.2829V63.5098H136.332V63.7366L136.495 63.9634L136.657 64.417L136.819 64.6439V64.8707H136.657L136.008 64.6439H135.846L135.521 64.8707H135.359L134.709 64.6439L132.6 63.7366H132.275L131.788 64.417L131.463 63.2829L131.788 63.0561L132.6 63.2829L134.223 63.9634L134.709 64.1902H135.034L135.196 63.9634L135.359 63.2829V62.8293L135.196 62.3756L135.034 62.1488L134.709 61.922L134.223 61.6952L134.06 61.2415L133.898 61.0147L133.573 60.7879L133.086 60.3343L132.6 60.1074L131.139 59.427H130.977V59.8806H130.814H130.652H130.49L129.84 59.2002L129.516 58.7465V58.2929H129.84L129.678 58.0661H129.516L129.191 57.8392H130.003H130.327L130.003 57.3856L129.029 56.7051L128.704 56.2515L128.38 56.0247L128.055 55.7979L127.73 55.3442L126.919 54.6637L124.647 53.7565L121.401 52.1687L119.778 51.4883L119.129 51.0346H118.966V51.4883L119.615 52.3955L120.427 53.3028L121.238 54.2101L121.888 55.1174L121.238 54.6637L120.102 53.5296L119.291 52.3955L118.966 52.6224V53.3028L118.804 53.5296L118.155 53.3028L118.479 51.4883L118.317 51.2614L117.992 50.8078L117.506 50.1273V49.9005V49.6737H118.317L118.479 49.4469L118.155 48.9932L117.83 48.3128L117.668 47.8591L117.343 47.6323L117.019 47.4055L116.694 47.6323H116.856L116.369 47.1787L116.045 46.9519L115.396 46.725V46.2714L115.233 45.8177L114.746 45.3641L113.448 44.6836L112.474 44.0032L111.987 43.7764H111.663H110.851L110.689 44.0032L111.825 44.9105L111.987 45.1373L111.014 44.6836L108.741 44.0032H108.904H109.066H109.228V43.7764L108.254 43.0959L107.281 42.4154L106.307 41.9618L105.658 41.735L105.495 40.8277L105.171 40.6009L104.846 40.1472L104.522 39.6936L101.438 37.6522L100.789 36.9717L100.464 36.2913L99.9771 35.8376L99.1656 35.384L97.7049 34.7035L97.0557 34.2499L96.4065 33.5694L95.7573 33.1158L95.1081 32.6622H94.7835H94.6212H94.4589H94.1343L93.972 32.4353L93.6474 32.2085L93.3228 31.9817L92.9982 31.7549L92.5113 31.5281H92.1867L91.6998 31.3012L90.8883 30.394L89.103 28.5794L88.6161 28.1257L87.9669 27.6721H87.48H86.6685L84.5586 27.2185L84.7209 27.4453V27.8989V28.3526L84.3963 28.5794V29.033L84.5586 29.9403H84.3963H84.234H83.0979L82.611 30.394H82.4487H82.1241L81.7995 30.1671L81.1503 29.7135H80.988H80.8257H80.3388L80.501 30.394L80.3388 30.6208H79.8519H79.6895V30.8476V31.0744L79.5272 31.3012H79.2026L73.6844 29.7135H73.5221V30.1671L73.6844 30.6208L74.009 31.0744L74.4959 31.5281L76.2812 32.889L77.4173 33.5694L78.878 34.7035L79.5272 34.9304L79.6895 35.1572L78.878 34.9304L77.0927 34.0231L74.8205 32.6622L74.4959 32.4353L74.009 31.7549H73.5221L73.3598 31.5281L71.8991 30.394L70.2761 29.033L67.1924 27.2185L66.2186 26.7648H65.5694H65.7317H65.4071V27.4453H65.0825L64.7579 26.7648L64.4333 26.0844L63.9464 25.6307H63.2972L59.7266 23.8162L57.1298 23.5893H56.8052L56.3183 24.7234L55.0199 24.9503L54.8576 25.1771L54.2084 25.6307H53.5592L53.2346 26.0844H52.91L51.6116 25.6307L52.2608 25.1771L52.4231 24.9503L52.5854 24.7234H53.3969L53.5592 24.4966L53.8838 24.043L55.8314 23.8162L55.6691 23.5893L53.5592 22.4552L49.664 20.8675L49.0148 20.4138L47.554 19.7334L46.7425 19.0529L46.4179 18.8261H46.0933L45.6064 19.0529H45.2818L45.1195 18.8261L44.4703 18.1456L44.1457 17.9188H43.8211H43.6588H43.4965L43.1719 17.692L43.0096 17.4652L42.3604 16.7847L42.0358 16.5579L41.5489 16.3311L40.7374 15.8774L39.9259 15.197L37.9783 14.2897L35.3815 12.702L33.9208 12.2483L31.9732 11.341L30.6748 10.8874L30.0256 10.6606L29.2141 10.2069V9.9801L28.7272 9.52646L27.7534 9.07282L27.2665 8.846L26.6173 8.39236L26.1304 8.16554L22.5598 6.80462L22.2352 6.5778L21.9106 6.35098L21.4237 5.89733L20.9368 5.67051H20.4499H20.1253L19.963 5.89733L19.8007 5.67051L19.4761 5.44369L19.1515 5.21687L18.8269 4.99005L18.1777 4.76323H18.0154H17.8531L17.5285 4.53641L17.3662 4.30959L17.0416 4.08277L16.717 3.85595H16.5547L14.9316 3.17549L14.607 2.94867L13.9578 2.72185L12.1725 2.04138H12.0102H11.8479H11.6856L11.5233 1.81456L11.1987 1.58774L10.7118 0.907282L10.5495 0.680462L8.92653 0H8.60193V0.226821V0.907282L8.43963 1.1341H7.14122L6.49202 1.36092L6.65432 2.26821V2.49503H6.16742L5.03132 2.26821H4.70671L3.24601 2.94867H2.92141H2.75911L2.59681 3.17549H1.94761L1.1361 2.94867H0.973803L0.162301 4.08277V4.30959L0.486902 4.76323L0.649202 4.99005V5.21687H0.324601L0 5.44369L0.486902 6.35098L1.62301 7.93872L1.94761 8.61918L2.10991 9.29964L2.43451 9.9801L3.08371 10.6606L3.73291 11.341L4.38211 12.0215L5.84282 14.5165L6.49202 15.6506L7.14122 16.3311L8.11503 17.2384L8.76423 17.9188L9.25113 18.5993L9.73803 19.2797L9.90033 19.9602L10.2249 20.4138L10.7118 21.0943L11.361 21.7748L12.1725 22.4552L12.4971 22.9089L12.984 23.3625L13.4709 24.043L13.7955 24.2698L14.1201 24.4966L14.2824 24.7234V24.9503L14.607 25.4039C14.7693 25.6307 14.9316 25.8575 15.0939 26.3112L15.4185 26.7648L16.0677 27.2185L16.8793 27.8989L17.6908 28.3526L20.6122 29.2598L20.7745 29.033H20.9368L22.3975 30.394L22.8844 30.8476L23.3713 31.3012L24.832 32.6622L25.4812 33.1158L27.4288 33.7963L28.2403 34.2499L28.4026 34.4767H28.078L27.5911 34.2499H27.2665V34.4767L29.3764 35.384L30.6748 36.0645L31.6486 36.9717L29.3764 36.0645L28.2403 35.1572H27.5911H27.2665L27.1042 35.384L27.4288 36.2913L28.5649 37.1986L30.9994 38.5595L30.6748 39.0131H30.0256L28.4026 38.5595L29.0518 39.4668H28.7272L27.9157 39.0131L27.2665 38.3327L26.9419 38.1059L26.2927 37.879L26.1304 38.1059L27.9157 40.1472L28.5649 41.0545L29.2141 41.9618L30.3502 43.7764L30.5125 44.0032L30.9994 44.4568L31.1617 44.6836L31.324 45.1373V45.3641V45.5909V45.8177L32.6224 46.4982L33.2716 46.9519L33.4339 47.4055H32.4601V47.6323V48.3128H32.2978L32.4601 48.5396L33.1093 50.3542L33.4339 50.8078L33.7585 51.2614L33.9208 51.4883H33.7585L33.1093 51.2614H32.7847H32.6224L32.4601 51.7151L31.1617 53.3028V53.5296V53.7565L30.1879 54.4369V55.3442L30.0256 55.571H29.5387L29.701 55.7979L30.5125 57.8392L32.947 58.0661L33.7585 58.2929L35.2192 58.0661H36.0307L37.0045 58.5197L35.7061 59.2002L37.4914 59.427L38.1406 59.8806V60.3343V60.5611L38.3029 61.0147L43.9834 60.1074L45.1195 60.3343L45.4441 61.2415L41.8735 61.6952L41.5489 62.1488L43.0096 62.3756L43.8211 62.6025L44.6326 63.2829H44.308L43.6588 63.7366L43.8211 64.417L43.6588 64.6439L43.1719 64.8707L42.5227 65.5511L42.1981 65.778L42.3604 66.0048L44.1457 67.5925L44.7949 68.0462L47.3917 69.8607L47.8786 70.0875L48.8525 70.3144H49.0148L49.3394 70.0875H49.5017L50.1509 70.3144L52.0985 71.2216L52.91 71.6753L53.5592 72.1289L50.6378 71.2216H50.4755V71.4485L50.6378 71.9021V72.1289L50.4755 72.5826L48.8525 73.263L48.6902 73.4899V74.1703L49.1771 74.8508L50.3132 75.7581L50.9624 76.2117L52.0985 76.6653L52.7477 77.119L52.91 77.3458L53.0723 77.5726L53.2346 77.7994L53.7215 78.0263L54.0461 78.2531L54.6953 78.7067L54.8576 79.614L55.0199 80.0676L55.3445 80.2945H55.6691L56.156 80.0676H56.6429L56.4806 80.2945V80.5213L56.8052 80.7481L57.4544 81.2018L59.5643 82.7895L59.2397 83.0163H58.7528L57.6167 82.5627L58.1036 83.0163L58.7528 83.6968L59.8889 84.6041L60.5381 85.0577L62.648 86.1918L62.8103 86.4186L61.5119 85.965H61.3496H61.1873H61.025H60.7004H60.5381L59.8889 85.5113H59.402L58.4282 85.7382L58.9151 86.1918L59.0774 86.4186L59.402 86.6454L59.2397 86.8723L58.7528 87.0991L58.5905 87.3259L59.7266 87.5527L59.8889 87.7795L60.3758 88.2332L60.5381 88.46L62.3234 88.9137L63.7841 89.3673V88.9137H64.1087H64.4333L64.7579 89.1405L65.0825 89.3673L65.4071 90.0478L65.894 90.2746L66.3809 90.5014L67.8416 90.2746H68.3285L68.1662 90.7282L67.6793 90.955H67.0301L66.3809 90.7282L66.8678 91.1819L67.517 91.6355L68.1662 91.8623H68.6531L68.8154 92.0891L68.3285 91.8623H67.1924L66.8678 92.0891L67.3547 92.316L67.8416 92.7696H67.3547H67.0301L66.7055 92.9964L66.5432 93.2232H66.7055L66.8678 93.4501L67.1924 93.6769L67.517 93.9037H67.1924L66.5432 93.4501L66.3809 93.6769L66.7055 93.9037L67.3547 94.1305L68.0039 94.5842L68.4908 95.2646L69.14 95.9451L71.8991 98.6669H71.7368L71.8991 98.8938H71.4122L69.3023 98.2133H68.9777L68.8154 98.4401L68.9777 98.8938L69.14 99.3474V99.5742H68.6531L68.3285 99.3474L67.8416 98.8938L67.517 98.6669V99.1206L68.0039 99.5742L68.4908 100.028L68.9777 100.481L69.3023 100.708V100.935H68.9777H68.6531H68.4908L68.6531 101.162L70.2761 101.842L70.763 102.069L71.2499 102.523L71.7368 103.203L72.0614 103.884L72.2237 104.337L73.1975 105.245L74.3336 105.925L76.1189 106.606L76.2812 106.832L74.3336 106.152L73.0352 105.018L72.0614 104.337L71.5745 103.43L70.6007 102.523L68.4908 101.162L68.1662 100.708L67.8416 100.481H67.6793L67.517 100.708L67.3547 100.935H66.8678L66.0563 100.708L65.7317 100.481L64.9202 99.5742L64.5956 99.3474L62.8103 98.6669L63.2972 98.8938L63.7841 99.3474L63.6218 99.5742H63.4595H63.1349L62.8103 99.3474L63.1349 99.801L63.6218 100.255L64.4333 101.162L64.9202 101.389L65.5694 101.616L66.0563 102.069L66.7055 103.657L66.8678 104.111L67.1924 104.791V105.018L65.4071 105.472L64.9202 106.152L66.2186 107.286L66.3809 107.513L65.894 107.286H65.4071L65.2448 107.513L65.4071 107.967L65.894 108.42L66.3809 108.647H66.8678H67.1924L67.6793 108.193H68.0039L68.4908 108.42L68.6531 108.647L68.9777 109.101H69.14H69.4646L69.9515 109.327H70.1138V109.101V108.874L70.4384 109.101L71.0876 109.327L71.4122 109.554L69.4646 109.781L69.14 110.008L70.2761 110.915L70.6007 111.369L70.4384 111.823H69.9515L68.6531 111.369L68.1662 111.596L68.6531 111.823L69.6269 112.276L70.2761 112.73H69.14L68.6531 112.957L67.6793 112.73L67.3547 112.957L67.1924 113.41L65.7317 113.637L65.4071 114.091L65.894 114.544L66.5432 115.452L66.8678 115.905H66.5432L65.7317 115.452H65.4071L66.2186 116.132L66.7055 116.813L66.8678 117.266L66.5432 117.72H66.0563L65.0825 116.813H64.7579L65.894 118.174L66.2186 118.627V118.854L65.7317 118.627L65.2448 118.174L64.9202 117.947H64.7579H64.5956L64.4333 118.174V118.4L64.5956 118.627L64.9202 118.854L65.0825 119.081H65.2448L65.4071 119.534L65.2448 119.761L65.0825 119.988L64.9202 120.442L65.0825 120.669L65.2448 120.895L65.4071 120.669H65.7317H66.5432L66.0563 121.349L65.894 121.803L66.0563 122.256L66.2186 122.483L66.3809 122.71V122.937L65.7317 123.164H65.4071L65.2448 122.937L65.0825 122.256V121.803L64.7579 121.576L63.9464 121.349H63.4595H62.9726L62.8103 121.803L63.4595 122.71L62.9726 122.483L62.3234 121.803L61.5119 121.122L60.8627 120.215L60.0512 119.761L59.7266 120.215L60.0512 120.669L60.7004 120.895V121.349V121.576L60.8627 121.803L61.1873 122.256L61.8365 122.937L62.648 123.844L63.4595 124.524L63.7841 124.751L64.1087 125.205L64.4333 125.659L64.5956 126.112V126.339H64.4333L64.271 126.112L63.7841 125.659L63.2972 125.432V125.659L63.6218 126.112L63.7841 126.339L64.1087 126.566L65.4071 127.473L65.7317 127.7L66.2186 128.154L66.7055 128.607V128.834H66.3809L66.5432 129.288H66.2186L66.3809 129.741H66.0563H65.5694H65.2448L65.7317 130.195L65.894 130.649L66.0563 131.102L66.5432 131.783L67.1924 132.236L67.6793 132.463H68.6531L68.9777 132.69L69.3023 132.917L69.6269 133.144L70.1138 133.824L70.4384 134.051H70.763L71.0876 134.278L71.8991 134.958L72.7106 135.412L73.3598 135.639L73.8467 135.412L71.7368 134.051L70.4384 133.144L69.7892 132.69L70.1138 132.463L71.2499 133.144L73.5221 134.958L74.9828 136.319L75.3074 136.546L75.7943 137L77.5796 137.907L79.5272 139.268L79.8519 139.721L80.1765 140.175L80.6634 140.402H81.3126L81.6372 140.629L82.4487 141.309L82.9356 141.536L83.4225 141.763L83.5848 142.216L83.7471 142.897L84.234 143.124L86.0193 144.258L91.0506 146.526L92.8359 147.66L93.3228 147.887L95.1081 148.567L95.7573 149.021L98.1918 150.836L99.9771 151.743L100.464 152.197L101.113 152.877V153.104H100.789L100.464 153.331L102.574 154.465L103.061 154.692H102.899L103.385 155.145L104.522 156.279L105.171 156.733L105.658 156.96L106.631 157.187L107.118 157.413L109.066 158.774L111.014 160.362L111.5 160.816L112.15 161.723L112.474 161.95L112.799 162.177L112.961 162.404H113.123H113.286L113.61 162.63L113.773 162.857L113.935 163.084L114.26 163.311L114.746 163.764L117.019 166.033L117.506 166.259L117.83 166.486L117.992 166.713L118.966 167.394L119.453 167.847L119.778 168.301L120.265 168.754L120.752 169.208L121.076 169.435L121.401 169.662L123.024 171.25L124.971 173.064L126.27 175.105L126.757 175.559L128.217 176.92L130.003 178.961L130.977 179.869L131.463 180.096V180.322H131.139L131.463 180.549L132.275 181.456L132.6 181.683L132.924 181.91L133.411 182.364L137.469 187.127L139.578 189.849L140.065 190.756L140.39 191.21L140.715 191.663L141.039 191.89L141.364 192.117L141.688 192.571L142.013 193.024L142.338 193.478L142.662 194.612L142.987 195.292L143.311 195.746L144.285 196.88L145.259 198.241L146.395 199.602L147.369 200.963L148.505 202.324L148.83 202.778L149.316 203.231L149.641 203.912L150.128 205.046L150.615 205.726L152.562 209.582L153.861 211.624L154.348 212.304V212.531L154.51 212.984L154.835 213.438L155.159 213.892V214.119L155.808 215.026L156.295 215.933L156.62 216.614L156.945 217.294L157.431 218.201L157.918 219.109L158.243 219.789V220.923L158.405 221.377L159.054 223.418L159.217 223.872L159.704 224.779L160.191 226.821L160.353 227.728L160.191 228.408L159.704 228.862H159.054H158.73L158.568 229.089V229.316L158.892 229.769V229.996L158.73 230.45L158.081 231.357L157.107 234.759L155.808 236.801V237.708H156.133L156.458 237.254L156.945 237.027L157.107 236.801H157.269L157.431 237.254V238.162L157.269 238.615L156.945 239.069L156.295 240.657L151.426 246.554H150.939L150.615 246.781L149.966 249.503L149.641 249.729L148.18 249.956L147.693 251.771L146.882 251.998H147.044L145.259 253.132L144.285 254.493L143.798 254.719H143.636L143.149 255.4L142.175 255.854L142.013 256.08L141.851 256.307H140.552L139.578 256.761L138.929 256.534L138.28 257.441L137.793 257.668H137.144L136.17 257.895H135.034L134.223 258.349L132.113 258.575L131.788 258.802L131.139 260.163L130.814 260.39L123.673 261.297L123.186 261.751H122.861H121.725H121.563L121.238 261.978H119.453H119.291L119.129 262.205H118.966H118.317L117.83 262.431H117.343L117.019 262.658H116.694L116.369 262.431L116.045 262.205V261.978L116.207 261.751H115.883L116.045 262.205L116.369 262.658L116.532 263.112H116.369H116.045H115.72L114.584 264.019H114.097L114.26 264.246L116.045 264.473L116.532 264.246L116.045 263.792H116.369L116.694 264.019L117.019 264.246L117.343 264.7V264.926L116.856 265.38L119.291 265.607L119.615 266.06V266.514L119.453 266.968V267.421H119.778H120.102L120.589 267.195H120.427H120.265H120.102L119.94 266.968L120.265 266.741H120.752L121.401 266.968L122.05 267.421L122.212 267.875L121.888 268.102H120.589L120.752 268.329L121.725 268.556L122.861 269.236L123.511 269.916L123.024 270.143L123.348 270.37L123.673 270.597H123.835H123.998L124.16 270.824L124.484 271.277L124.971 271.731L125.296 271.958L125.458 272.185L125.621 272.638L125.783 273.319H126.107L127.244 273.772L127.406 273.999L126.919 274.226H126.594H126.27L126.432 274.453H126.594L126.757 274.68H126.594V274.906L127.244 275.133L127.893 275.814L128.542 276.721L128.704 277.402H129.354L129.678 277.628L130.165 278.082H130.003H129.84L129.678 278.309L130.814 278.762L133.898 279.443L134.223 279.67L134.385 280.123H134.06L133.573 279.897L133.249 279.67V279.897L133.736 280.123L133.898 280.35L133.411 280.804L133.086 281.257V281.711H133.736L134.709 281.938L135.683 282.392L136.17 282.845H136.495H136.819L137.306 282.618L137.631 283.299H138.28L139.254 282.845H140.715H141.526L142.175 283.072L142.013 283.299L141.851 283.753H141.688H140.877H140.552L140.39 283.979H140.715H141.039H141.364L141.688 284.206V284.433V284.66L141.201 284.433V284.66L141.526 284.887L142.013 285.113H141.526L140.715 284.887H140.228L140.715 285.567L138.118 285.113L137.631 285.34L138.442 285.567L141.851 286.021L143.149 286.474V286.701L145.097 287.608H145.259L145.746 288.062L147.207 288.743L147.856 289.423L145.584 288.969L145.097 289.196L145.259 289.423H145.421L145.584 289.65L145.746 289.877H145.421H145.097H144.934L144.772 290.103H145.746L146.233 290.33L146.72 290.784H145.746L146.72 291.011H147.207L147.044 291.464L146.233 291.238L144.447 290.557L145.584 291.011L147.693 291.691L148.83 292.599H148.18L147.369 292.372H146.72L146.233 292.599L146.882 292.825L147.531 293.052L148.018 293.506L148.18 294.186L150.615 294.413L151.913 294.867L153.049 295.774L152.076 295.547L150.939 294.867L149.803 294.413L148.992 294.64L149.154 294.867H149.316H149.479L149.966 295.094L148.992 295.774L149.479 296.228H149.641H149.966L150.128 297.362L150.453 297.815L151.102 298.042V298.496L150.939 298.723L149.154 298.496H148.83V298.949L149.479 299.176L150.777 299.63L151.426 299.857H152.076H152.4L152.725 300.084L152.887 300.31L152.725 300.537H152.4H152.076L152.4 300.991L152.725 301.218H153.049H153.374L153.536 301.444V301.671L153.374 301.898L152.887 301.671V301.898V302.125V302.579L153.049 303.032H153.212H153.699H153.861L154.348 302.579L154.835 302.805L155.322 303.032L155.808 303.259L155.971 303.486L156.133 303.713L156.945 303.94L157.431 304.393V304.847L156.782 305.074L156.295 304.847L155.484 304.393L154.997 304.166V304.62L155.322 304.847L155.646 305.074L156.295 305.527L156.62 305.754L157.269 305.981L157.594 306.208L157.269 306.435L156.782 306.661H156.133L155.322 305.981V305.754L154.997 305.527H155.159H155.322H154.997H154.348L153.861 305.754L153.536 306.208L154.185 306.661L154.672 307.115L155.159 307.569L155.971 307.795L156.133 308.022L155.971 308.249L156.133 308.476H156.458L156.62 308.249L156.782 308.022H157.107H157.431H157.756L158.081 308.249L158.892 309.156L159.217 309.383L159.541 309.61L159.866 309.837L160.191 310.29L160.353 310.744L160.515 311.198L160.353 311.651L160.515 312.105L160.84 312.332L161.327 312.786L161.814 313.239L161.976 313.693L161.814 314.146L161.976 314.373L162.301 314.6L162.625 314.827L163.112 315.054L163.599 315.281H163.924L164.086 315.507H163.924L163.599 315.961H163.924H164.248L164.573 316.188L164.897 316.641H164.735L164.248 316.868H164.086H164.41L164.735 317.095L165.06 317.322L165.384 317.549L165.06 317.776L164.735 318.002V318.229L165.547 318.683L165.871 321.858H166.358H166.683H167.007L167.494 322.085V322.539L167.17 322.992L166.845 323.219H166.52L167.332 323.673L168.306 324.127L169.279 324.353L169.766 324.127H169.604L169.442 323.9H169.929L170.253 324.127L170.578 324.353L170.902 324.807L171.389 325.034H171.714H172.363V325.261V325.487V325.714L172.201 325.941L171.714 325.714L171.065 325.941L170.578 325.714L170.902 326.395V326.622L170.416 327.075L170.74 327.302L171.227 327.756L171.876 328.436L172.363 328.663L172.85 328.89L173.175 329.117L173.986 329.343H174.311L175.934 328.89H176.258L175.285 330.704V330.931H175.609H175.934H176.096L176.421 330.704L176.908 331.385L177.232 331.838V332.065L176.745 332.292H174.96L174.635 332.519L174.96 333.199L175.609 333.426L176.421 333.653L176.908 333.88L177.557 334.56V335.014L177.232 335.241H176.745L176.908 335.468H177.881L178.531 335.694L178.855 336.148L178.693 337.055L179.18 337.282L179.667 337.509H179.991L180.316 337.282L180.64 337.736L181.127 338.189H180.64L180.803 338.416H181.127L181.452 338.643L181.777 338.87L182.101 339.097H181.614L181.127 339.55H180.64L180.803 339.777H181.127L181.939 340.004H182.263V340.231L182.426 340.684V340.911H182.75L183.075 340.684H183.4L184.049 340.911L184.211 341.592H184.698L185.672 341.365L185.996 341.592L186.483 341.819L186.97 342.045L187.295 342.499L187.457 342.726V342.953L187.295 343.179V343.406L188.593 343.633L188.755 343.86L189.08 344.087L189.242 344.314L188.755 344.54L188.918 344.767L189.242 344.994L189.729 345.221L190.054 345.448V345.901V346.355V346.582L190.541 347.262L191.028 347.489L191.515 347.943L191.677 348.85L191.352 349.757V350.211L191.839 350.891L192.164 350.665H192.651H193.787L194.274 350.891L194.761 351.118L195.248 351.345L195.734 351.572L195.897 351.799L193.625 351.118H192.975L192.488 351.345V351.572L193.625 352.933V353.386L193.462 353.84V354.067L193.625 354.294L193.949 354.974V355.201L193.787 355.881L193.462 356.108L192.975 356.335L192.651 356.562L192.813 356.789L193.138 357.016H193.3L193.138 357.469H192.651H191.677L192.001 357.696L192.326 357.923L192.488 358.15L192.651 358.603V358.83H192.488H192.326L192.488 359.737L192.326 360.191L190.703 360.871L189.729 361.098L189.242 361.325L189.567 361.779L190.378 362.686L190.865 363.366L192.001 364.047L192.326 364.501L192.488 364.954L192.326 365.408L192.001 365.862L191.515 366.088L191.19 366.315H190.865H190.541L189.892 366.088H189.567H189.08L188.755 366.315L188.593 366.769V367.449L189.242 367.676L189.729 368.13L190.703 369.037L191.19 369.264L191.677 369.491L192.651 369.944L192.975 370.852L193.625 371.305L194.436 371.532H195.085L195.41 371.759L196.384 372.439L196.708 372.666H197.033H197.682H198.007L197.844 373.12L198.007 374.027L198.494 375.161L199.143 375.842L200.117 376.295H201.74L202.713 376.976H201.415H201.253L200.441 377.429L200.279 377.883V378.79L200.117 379.017L199.792 379.244L199.63 379.698L199.792 380.151L200.279 380.605L201.415 381.059L202.064 381.512H201.577L201.415 381.739L201.253 382.646L201.09 383.1V383.327V383.554L201.577 384.914L201.902 385.595L202.226 386.049L203.2 386.502L203.849 386.956L204.499 387.409L204.986 387.863L203.363 387.409L203.038 387.183L201.415 386.049L200.928 385.595L200.603 385.141L200.441 384.688L200.603 384.234V384.007L200.279 383.554L198.007 381.059L196.384 378.79L195.897 378.337L195.085 377.656L194.761 377.203L194.436 376.749L193.949 375.842L193.625 375.388L192.975 374.934L191.19 374.027L190.703 373.573L190.054 373.12L189.405 372.666H189.08L188.918 372.893L188.755 373.12L188.593 373.347H188.269L186.159 373.12L185.834 372.893L185.185 372.213L184.86 371.532V370.398L184.698 369.491L184.211 369.264L183.562 369.037L181.939 368.13L181.452 368.357L179.829 371.078L179.017 371.759L178.044 371.986L178.855 372.666L179.829 373.573L180.64 374.481L180.965 374.934C184.049 380.605 187.132 386.502 190.216 392.173L191.352 393.307L192.001 393.534L192.651 393.76L193.462 394.214L194.923 395.348L197.033 397.39L197.52 397.616L198.169 398.07L198.818 398.977L199.63 400.338L199.143 400.111L198.818 399.658L198.494 399.204L198.169 398.751L197.844 398.524L196.546 397.616L196.059 397.163L195.248 396.255L194.761 395.802L190.703 392.853C198.007 406.236 205.148 419.845 212.127 433.227C219.43 447.063 226.734 460.899 234.037 474.509C238.419 482.901 242.964 491.52 247.346 499.912L248.482 501.727C249.131 502.861 249.78 503.995 250.43 505.356C250.917 506.037 251.241 506.717 251.566 507.398L252.053 508.532L252.215 509.439L252.053 510.346V511.48L252.377 512.614L253.189 513.749L254.163 514.656L255.299 515.563L256.272 516.244C256.759 516.697 257.246 516.924 257.895 517.378L258.545 517.831L259.032 518.285L259.518 518.965L260.168 520.099L260.655 521.234L261.142 522.368L261.628 523.502L262.764 525.09L264.388 526.224L266.011 527.358L267.471 528.492L269.257 530.08L271.042 531.214C272.178 531.894 273.314 532.575 274.45 533.028L278.183 536.884L279.319 537.792L280.78 538.472L281.591 538.926L282.078 539.606L282.565 540.286L283.214 540.967L284.675 542.101L286.136 543.008L287.596 543.916L292.141 545.503L292.79 545.957L293.277 546.638L293.926 547.091L294.738 547.318L302.041 547.545L303.177 547.318H303.989L304.476 547.772L304.963 547.998L305.612 547.772L306.586 547.318L309.832 547.091L311.779 547.545L314.701 547.091L320.057 547.545H321.03H321.68L327.198 548.906L329.145 549.813L329.47 550.04L330.119 550.267H330.606L331.093 550.493L331.58 550.72L332.554 551.174L333.365 551.628L333.852 552.081L334.177 552.535L334.501 552.988L334.988 553.442L335.8 553.896L336.611 554.349L337.423 554.803L338.234 555.257L339.37 555.71L340.506 555.937C341.318 556.164 341.967 556.164 342.779 556.391H343.428H344.077L344.564 556.164L344.726 555.483L344.564 555.03L344.239 554.576L343.915 554.123L343.59 553.669L343.428 553.215L343.59 552.988H343.752L344.239 552.762H344.726H345.7L346.349 552.988L346.836 553.442L347.323 553.896L348.135 555.257L348.621 555.937L349.108 556.391L349.595 556.844H349.92L350.244 557.071L350.569 557.298L351.056 557.752L351.381 558.205L352.03 559.113L352.517 559.566L353.166 560.02L353.491 560.247L354.302 561.154L354.627 561.381L354.951 561.608L355.438 561.834L356.087 562.061H358.522L359.496 562.288H359.983H360.145L360.794 562.515H360.956L361.119 562.742H361.443L362.255 563.195L362.579 563.422H362.904H363.553H363.878L364.04 563.195L364.527 562.742L364.689 562.515V562.288V561.834V561.608V561.381L365.988 560.7L366.475 560.474H368.422L369.071 560.7L369.721 561.154H370.045L370.857 561.381L371.181 561.608L371.83 562.061L372.155 562.288L372.317 562.515L372.642 562.742L373.778 563.422L374.103 563.649H374.427H374.752L375.888 563.195L376.05 562.969V562.742V561.834L376.213 561.154L376.537 560.7L377.024 560.247L378.16 559.793L381.731 556.618L382.218 555.71L382.542 555.257L386.762 553.442L387.087 552.988L387.411 552.308L387.736 551.854L388.223 551.628L391.469 550.947L392.443 550.267H392.767H392.93L393.092 550.04L393.254 549.813V549.586H393.741L394.228 549.813L395.364 550.267L396.338 550.493L397.312 550.72L398.285 550.493L399.746 550.72H399.908C400.882 553.442 401.694 555.937 402.668 558.659C403.966 559.339 405.264 560.02 406.4 560.7L406.725 560.927L406.887 560.7H407.05L407.212 560.474V560.247L408.023 558.886L408.348 558.659L408.51 558.432V557.298L408.673 556.844L409.322 556.391L411.107 555.937L411.432 555.257H411.594L410.945 554.803L410.133 554.123L409.484 553.442L409.322 552.988L408.997 552.535L408.835 552.988H408.348L407.699 552.762H407.212H406.725L403.317 552.535H402.668H402.181L401.694 552.308L401.207 551.854L400.72 551.401L400.395 551.174H400.72L401.531 551.628L401.856 551.854H402.181L403.804 551.174H404.128H404.291L404.777 551.401L405.589 551.854H405.914H406.076H406.563L407.699 551.628L408.348 551.174L408.673 550.947L408.835 550.493V550.267V550.04L408.997 549.813L409.322 549.586V549.359L409.16 548.679V547.545L409.646 544.596L410.458 543.235L413.379 541.647L414.029 540.286V538.699L413.866 537.792L414.029 537.338L414.515 536.431V535.523L414.191 533.028L413.866 531.894L413.704 531.441L413.379 530.987V530.306L414.029 529.626L414.515 529.399L415.002 528.492L414.84 527.585L414.191 525.997L413.866 525.543L414.678 524.182L415.489 523.275L416.463 522.368L416.95 522.141L418.248 521.914L418.573 521.687L419.06 521.007L419.709 517.604L419.871 517.151L420.521 516.697L420.845 516.017L421.008 515.79L421.494 515.336L421.819 514.656L421.657 514.202L421.008 512.614H420.358L420.521 512.388L421.332 511.48L422.468 510.8L422.955 510.346L423.28 509.666L423.767 507.624L424.091 507.398H424.578H425.065H425.227L425.714 507.624H425.877L426.688 507.398L427.013 507.171L427.5 506.49L428.149 506.037L428.96 505.129L429.609 504.676L431.232 503.995L431.395 503.768L431.557 503.315L431.719 503.088L432.044 501.954V501.727L431.882 501.5V501.273L431.719 500.366V500.139L432.531 494.696L432.855 494.015L434.154 492.427L434.478 491.747L434.641 490.84L434.478 489.932L434.154 487.891L434.316 487.664V486.984L433.992 485.623L433.505 484.262L433.342 483.581L433.505 483.355V483.128L432.855 481.767L432.693 481.313H432.855H433.18H433.342L433.505 480.86L433.829 480.406L434.154 479.952L434.965 479.499L435.128 479.272L435.29 478.818L435.615 478.591V478.365V477.684L435.452 477.457L435.29 477.23L435.128 477.004L434.803 476.777L434.641 476.323L434.478 475.87V475.416L434.641 474.962V474.509L434.316 474.055V473.601H434.478H434.641L434.803 473.374V473.148L435.128 472.467V472.014L434.965 470.879V470.653L435.128 470.199V469.972L434.965 469.519L434.478 468.384L434.316 467.931L434.154 466.57L433.992 466.116L433.667 465.436L433.505 464.982L433.342 464.755L433.18 464.528V464.302L433.342 464.075V463.848L433.018 463.394L432.369 462.033L432.206 461.58V460.673L432.044 460.219L431.557 459.992H430.583L430.096 459.765L429.447 459.538L427.986 458.404L427.5 458.177L427.013 457.951H426.039L425.552 457.724L424.903 458.404H423.767L422.306 457.951L420.845 457.27V457.497L420.683 457.724H420.521L420.034 457.27H419.709H419.384L418.735 457.043H417.924L417.437 456.817H417.112H415.976L415.165 457.27L413.055 457.724L412.568 457.951L412.243 458.631L412.081 458.858H411.756L411.432 458.631L411.107 458.177L410.62 457.724L411.432 457.497L411.756 457.27L411.919 457.043L411.756 456.59L411.269 456.363L410.783 456.136H409.809L408.023 455.682H407.699L406.725 456.136L407.05 455.909L407.374 455.456L407.699 455.229H409.646L410.62 455.456H410.783H410.945L411.107 455.229H411.269H411.756L412.243 455.456L413.217 455.909L413.704 456.136H414.029L414.515 455.909L418.086 456.136L418.411 455.909L418.573 455.456H419.06L421.008 456.363L421.494 456.59H421.981H422.468L423.604 457.27L424.091 457.497L424.903 457.27L425.552 456.817L426.363 456.59L427.337 457.043C427.824 457.27 428.311 457.497 428.96 457.951L429.447 458.404L430.421 459.085L430.908 459.312H431.232L431.719 459.085H432.044L432.693 459.312H432.855L433.018 459.085L433.18 458.631V456.817L433.018 456.59V456.363V456.136H433.342L433.505 455.682V455.229V454.775L433.667 454.548L433.829 454.322L433.667 453.641L433.342 452.28V450.466L433.18 449.332L432.693 448.424L432.531 448.197L432.206 447.29L431.882 445.929V445.702H432.044H432.206H432.369L432.855 445.249L432.693 444.341L431.232 440.939L431.07 440.485L431.232 440.259L431.882 440.032L432.044 439.805V439.351L431.882 439.125L431.719 438.898V438.671L432.044 438.444L432.206 438.217L432.369 437.99L432.693 436.856V436.63V436.403V436.176L432.855 435.949L434.641 435.269L434.316 435.042H433.829L433.505 434.815L433.992 434.134L433.505 433.454L433.18 432.774L433.018 432.093V431.639L433.18 431.413L433.829 430.959L433.992 430.732V430.505L434.316 430.052V429.371L434.478 429.144L434.316 428.918L433.829 428.237L433.18 427.557L432.693 427.33H432.855L433.505 427.557L433.829 428.01L434.641 428.464L435.128 429.144L435.29 429.598L435.128 430.732H435.615H435.777L435.939 430.505L436.101 429.825L436.264 429.598L437.4 428.918L437.724 428.464L437.4 428.01L437.238 427.784L436.913 427.33H436.751L436.426 427.557H436.101L434.965 427.103L434.803 426.876H435.128H435.939H436.101V426.649H436.264H436.588L436.426 425.969L436.101 425.289L435.939 424.835L436.588 425.062V424.608V424.381L436.426 424.154L436.913 424.381H437.238L437.724 424.154H438.049H439.023H439.672H439.834V423.928V423.701V423.474L439.997 423.247H440.159L440.97 423.02L441.295 422.793H441.457L441.782 423.02L441.944 422.567L442.269 422.34L444.216 421.886L444.379 421.659L444.216 418.938L444.054 418.257L443.73 417.577L443.243 416.669L442.594 415.762L442.107 415.308L441.62 414.174L441.457 413.947V413.494V412.587L441.295 412.133L440.97 411.679L440.646 411.452L440.321 411.226L439.997 410.772L439.834 410.318L439.672 409.865L439.51 409.411L439.347 408.731V408.277V407.823L439.51 407.596H439.834L440.159 407.823H440.321V407.37L440.159 406.916L439.834 406.236L439.672 405.782L439.834 405.328L439.672 405.102L439.347 404.875L439.185 404.648L439.023 404.421L438.861 404.194L438.698 403.741V403.06L439.672 402.38L439.997 401.926V401.472L439.672 400.111V399.204L439.834 398.751L439.997 398.524L439.834 398.297L439.672 398.07L439.51 397.843L439.347 397.616H439.672L440.321 397.843H440.646H440.808H440.97H441.133L441.782 398.07H442.269V397.843L442.431 397.616V397.39L442.269 397.163H441.944L441.62 397.39L441.457 397.616L441.295 397.843L440.646 397.39L440.321 397.163L440.159 396.709V396.255V395.575L440.321 395.121L440.484 394.895H440.808L441.133 395.121L441.295 395.348L441.457 395.575L441.62 395.802L441.782 396.029V396.255H441.944L442.756 396.482L443.08 396.255L443.405 396.029L443.73 395.802H444.216H444.541L444.866 396.029L445.19 396.255L445.84 396.029H446.164L445.84 395.575L444.703 394.668L444.379 394.214L444.541 393.987L444.703 394.441L445.028 394.668H445.19L445.353 394.441V394.214L445.19 393.08L445.353 392.626H445.84L446.489 392.853L447.138 393.08H447.462L448.761 392.853L449.735 391.946L450.709 391.492L451.358 390.812L453.143 390.131L453.305 389.904L454.117 390.358L454.604 390.585L454.766 390.358L454.928 390.131H455.415H456.551L457.687 389.904L457.85 389.678H458.012H458.174L458.499 389.904H458.661L461.258 388.997L462.07 388.317L462.232 387.863L462.394 387.636H462.719H463.043L463.53 387.863L463.855 388.09L464.342 388.317L465.802 388.544L466.939 388.317V387.863V387.636L467.588 387.409L467.912 386.956L469.698 386.275H469.86L470.185 386.502H470.347L470.834 386.275H470.996L471.158 386.502L471.483 386.729L471.645 386.956H471.808H471.97H472.132H472.294L472.619 387.183H472.781L473.268 386.729H473.593H473.917L474.242 386.956L474.567 387.183L474.891 387.636H475.054H475.216H475.54V387.409L475.378 386.956V386.729L475.54 386.502H476.514L477.001 386.275L477.163 386.049V385.822L477.001 385.595L476.677 385.368L476.514 385.141L476.677 384.914L477.163 384.688H477.813H477.975V384.461L477.813 384.007V383.78H477.975H478.137L478.462 384.007L478.624 384.234H478.786H479.111L479.76 383.78H480.085L480.247 383.554V383.327L480.085 383.1H480.409L480.572 382.873L480.896 382.419L481.059 382.646L480.896 383.1L481.059 383.327L482.844 383.1L483.98 382.646H484.142L484.305 382.873H484.467H484.629V382.646L484.467 382.419V382.193V381.966H484.629H484.792L484.954 382.193L485.116 382.419L485.279 382.193V381.966H485.441H485.603L485.928 382.193L486.252 382.419L486.902 382.646H487.226L488.038 382.419H489.336H489.661L489.823 382.193V381.966V381.739H489.985H490.148H490.31L490.634 381.512H490.959L491.284 381.739L491.608 381.966L492.095 382.193L492.582 382.646L492.907 383.327L493.394 383.554L493.556 383.327L493.718 382.646L494.205 382.193L494.367 381.966L494.205 381.512H494.367L494.53 381.739L494.692 381.966V382.193H494.53L494.043 383.1H493.88L493.718 383.327V383.78H493.556L493.718 384.007L494.367 383.78L494.53 383.554L494.692 382.873L495.017 382.419L495.341 381.512L495.99 381.059L496.64 379.924L497.289 379.471H497.613L498.263 379.698H498.425L498.1 379.244H498.263L498.749 379.471V379.244L498.912 379.017H499.236L499.074 378.79L498.912 378.563H499.074H499.236H499.399H499.561V378.337L499.723 378.563H499.886H500.048V376.976L500.21 376.522H500.535L500.372 376.749V376.976V377.203L500.535 377.656H500.697L501.184 377.883V377.656L501.022 377.203V376.976V376.749H501.184L501.671 376.522V376.295V376.068V375.615L502.158 376.295H502.482L502.807 375.842V375.615L502.645 375.161V374.934L502.969 374.708L503.132 374.481L503.294 374.708H503.456V374.481V374.254H503.618H503.781H503.943H504.105L504.43 374.481H504.592V374.254L504.43 374.027L504.268 373.8V373.573H504.43H504.917V373.347L504.43 372.666V372.439L504.755 372.666L504.917 372.893H505.079V372.666L505.241 372.893V373.12V373.347V373.573H505.566V373.12L505.404 372.439V372.213H505.566C505.728 372.439 505.891 372.666 506.053 372.893L506.215 373.12L506.378 373.347V373.573L506.702 373.347L506.864 373.8H507.027V373.573V373.347V373.12V372.893L507.351 373.12H507.514V372.893L507.351 372.439H507.514L507.838 372.666H508.001L507.838 372.213V371.986V371.759L508.001 371.532L508.163 370.852V370.398L508.001 369.944L507.838 369.717V369.944L508.001 370.171L508.163 370.398H508.001L507.838 370.171L507.676 369.944L507.514 369.717H507.189H507.027L506.864 369.491V369.037L506.54 368.13V367.676H506.702L506.864 367.449H507.027V367.222V366.996V366.769L507.189 366.542L507.351 366.088L507.838 365.862V365.635L507.676 365.408L507.514 365.181L507.351 364.954V364.727V364.501V364.274L507.189 364.047L507.027 363.82V363.593V363.366V363.14L506.864 362.913L506.54 362.232L506.378 362.006V361.779H506.54L506.378 361.552H506.215H506.053L505.891 361.325V361.098H506.215H506.378V360.871L506.215 360.191V359.964V359.737L506.053 359.511L505.891 359.284L505.728 359.057V358.83H505.891L506.215 359.057L506.54 359.284L506.378 358.83L506.215 358.603L506.053 357.469L505.728 356.789L505.079 355.655L504.917 355.201V354.974H505.079L505.241 355.201L505.404 355.428L505.566 355.655L505.728 356.335L505.891 356.562L506.378 357.242L506.864 357.696L507.351 357.923L507.514 357.696H507.351H507.189H507.027L506.864 357.469L507.027 357.242V357.016V356.789L506.864 356.562V356.335V356.108V355.881L506.54 355.655L506.215 355.201L505.891 354.747L506.053 354.521L505.728 354.294H505.566H505.404L505.241 354.067L505.079 353.84L504.917 353.613L504.755 353.386H504.592H504.43H504.268V353.16V352.933L503.943 352.479L503.781 352.252H503.618H503.456L503.132 352.025V351.799H503.294V351.572V351.345V351.118V350.891V350.665H503.456L503.781 350.891L504.105 351.572L504.268 352.025H504.43V351.799L504.268 351.345V351.118V350.891L504.105 350.665H503.943L504.755 353.84L504.592 353.613V353.386L504.917 353.613H505.079V353.386L504.917 353.16H505.079L505.404 352.706V352.479L505.241 352.025V351.799L505.404 351.572V351.345L505.241 351.118L505.079 350.891L504.917 350.665L504.268 350.438L503.943 350.211L503.618 349.984L503.294 349.53L503.132 349.304L503.456 349.53L503.618 349.757H503.781H503.943L503.781 349.53L503.618 349.304L503.456 349.077L503.294 348.623H503.456L503.781 348.85L504.105 349.304V349.077V347.489H504.592L505.728 347.943H506.215L505.891 347.716L505.566 346.809L505.241 346.582H505.566H505.728L505.891 346.809L506.215 347.262L506.54 347.489H506.702L507.027 347.262V347.035V346.809H507.189H507.351L507.676 346.355V346.128H507.838L508.163 345.674V345.448L508.001 344.54L507.838 343.633L508.001 343.406L507.838 342.726V342.499L508.001 342.726L508.163 342.953L508.325 343.179H508.487L508.325 342.953L508.001 342.499L507.676 342.045V341.819H507.838V341.592L508.001 341.819L508.163 342.045L508.325 342.272L508.487 342.499H508.65L508.812 342.045L508.65 341.592H508.812L508.974 341.819L509.137 342.272L509.299 342.499L509.786 341.819H509.948L510.273 342.045H510.435V341.819V341.592L510.273 341.365L509.948 341.138V340.911H510.11H510.273H510.435L510.597 340.458L510.922 340.004L511.084 339.777L511.571 340.004L511.896 340.684L512.545 341.138L513.194 341.592H513.356V341.365H513.519H513.843L513.032 340.458ZM508.65 365.862L508.487 365.635L507.676 364.727L507.351 364.501L507.189 364.727L507.351 364.954L507.676 365.408L507.838 365.635H508.001H508.163V365.408H508.325L508.812 366.542L508.974 366.769L509.299 366.996H509.461V366.769V366.542V366.315L509.299 366.088L508.65 365.862ZM470.834 388.997L470.996 388.77L470.834 388.544L470.022 387.863H469.86H469.698V388.317L470.022 388.77L470.509 389.224L470.834 388.997ZM535.916 445.702L535.592 446.156L535.429 446.383V446.61L535.592 447.063L536.241 448.197L536.403 448.651V448.878L536.728 449.785L536.89 450.466L537.215 450.919H537.539L538.026 450.692L538.188 450.239L538.351 450.012L538.513 450.239L538.838 450.012L539 449.785V449.332L538.675 448.651L538.838 449.105V449.332H538.675H538.188H538.026L537.702 449.105L537.377 448.878L537.539 449.332H537.377L537.052 449.105L536.89 448.878L536.728 448.651L536.403 447.971L536.241 447.744V447.517V447.29L536.565 447.063V446.836L536.403 446.383L536.241 445.929V445.702H536.728V445.476L536.079 443.661L535.916 442.527V442.073L536.079 441.62L535.754 441.846V442.3L536.241 445.022V445.476L535.916 445.702L536.079 444.568L536.241 444.341V443.888L535.916 442.527V445.702ZM505.404 348.396L505.241 348.17L505.079 347.943L504.917 348.17H504.43L504.268 348.396V348.85V349.304L504.43 349.53H505.404V349.304V348.623V348.396ZM533.969 436.403V435.949L534.131 435.722H533.806L533.644 436.176V436.403H533.969Z" fill="#4D80D9" fill-opacity="0.24"/>
</svg>
