<?xml version="1.0" encoding="utf-8"?>
<!-- Generator: Adobe Illustrator 22.0.1, SVG Export Plug-In . SVG Version: 6.00 Build 0)  -->
<svg version="1.1" id="Calque_1" xmlns="http://www.w3.org/2000/svg" xmlns:xlink="http://www.w3.org/1999/xlink" x="0px" y="0px"
	 viewBox="0 0 332.4 251.1" style="enable-background:new 0 0 332.4 251.1;" xml:space="preserve">
<style type="text/css">
	.st0{fill-rule:evenodd;clip-rule:evenodd;fill:#577CB8;}
</style>
<path id="Quebec_1_" class="st0" d="M267.9,212.8l0.2,0l0.1-0.1l0.1-0.2l0-0.5l0-0.1l-0.1,0l-0.3,0.1l-0.2,0.1l-0.1,0.1l0,0.1l0,0.1
	l0.1,0.1l0.1,0.1L267.9,212.8 M253,245.1L253,245.1l-0.1,0.1l-0.2,0.2l-0.1,0l-0.9,0.1l-0.1,0l-0.1,0.1l-0.1,0.1l0,0.1l0.1,0.1
	l0.1,0.1l0.2,0.1l0.1,0l0.1,0l0.1,0l0.6-0.2l0.3-0.1l0.1-0.1l0.2-0.1l0.1-0.1l0.1-0.1l0-0.2l0.1-0.2l0-0.1l0,0l0-0.1l0-0.1l0-0.1
	l-0.1-0.1L253,245.1L253,245.1 M314.7,179.6l-0.1-0.1l0-0.1l0-0.1l0-0.1l-0.3-0.1l-0.3-0.1l-0.5-0.3l-0.2-0.1l-0.2-0.1l-0.1,0
	l-0.1-0.1l-0.2-0.1l-0.1,0l-0.3-0.1l-0.1-0.1l-0.1-0.1l-0.6-0.2l-0.3-0.1l-0.1,0l-0.2,0.1l-0.1,0l-0.3-0.1l-0.4-0.1l-0.1,0l-0.8,0.1
	l-0.4-0.1l-0.1,0l-0.1,0l-0.1-0.1l-0.1-0.1l-0.1,0l-0.4-0.2l-0.1-0.1l-0.1,0l-0.2,0l-0.1,0l-0.4-0.1l-0.1,0l-0.1,0.1l-0.1,0l-0.1,0
	l-0.7-0.3l0,0l-0.1-0.1l-0.1,0l-0.1,0l-0.1,0l-0.1,0l-0.5-0.3l-0.3-0.1l-0.4,0l-0.2,0l-0.8-0.2l-0.2,0l-0.2,0l-0.2,0l-0.2,0
	l-0.7-0.2l-0.3,0.1l-0.1,0l-0.5-0.2l-0.3-0.1l-0.7,0l-0.8-0.2l-0.6,0l-1.5-0.2l-1.1,0l-0.7,0.1l-0.8-0.1l-1.9,0l-0.5-0.1l-0.1,0
	l-0.2,0l-1-0.2l-0.6,0.1l-0.1,0l0,0.1l0,0.1l0,0.1l-0.1,0l-0.2,0l-0.4,0.1l-0.5,0.3l-0.1,0.3l0.1,0.3l0.2,0.1l0.2,0l0.2,0.1l0.2,0.2
	l0.3,0.1l0.3,0.1l0.2,0l-0.3-0.2l0.1-0.1l0.3,0.1l0.4,0.2l0.2,0.1l1.2,0.2l1.1,0.1l1.3,0.2l1.8,0.5l1.2,0.5l0.5,0.2l0.2,0.1l0.2,0.1
	l0.2,0.2l0.2,0.2l0.2,0.1l0.3,0.1l0.2,0.1l0.1,0.2l1.1,0.1l0.4,0l0.2,0l0.2,0l0.3,0.1l0.5,0l0.8,0.3l0.4,0l0.8,0.2l1.7,0.1l1.7,0.2
	l1.2-0.2l0.8,0.1l0.6,0l0.2,0.1l0.2,0.1l0.2,0l0.2,0l0.6-0.3l0.6-0.1l0.9-0.4l0.1,0l0.4,0.1l0.1,0l0-0.4l0.1,0l0.1,0l0.1,0
	L314.7,179.6L314.7,179.6 M252.3,244.2l0.1,0.1l0.3,0.1l0.1,0.1l0,0l0,0l0.2,0l0.2,0l0.1,0l0,0l0.1-0.2l0.1,0l0.1,0l0,0l0,0l-0.1,0
	l-0.2,0l-0.2,0l-0.1,0l-0.2-0.1l-0.1,0l-0.1,0l-0.7,0.1l0,0l0,0l0,0l0,0.1L252.3,244.2 M267.5,219.9l0.4-0.5l0.2-0.5l0.1-0.1l0-0.1
	l-0.1-0.6l0-0.2l-0.1-0.2l-0.2-0.1l-0.2-0.1l-0.2,0l-0.3,0.2l-0.1,0.3l-0.1,0.8l-0.4,0.7l-0.1,0.4l0.3,0.2l0.4-0.1L267.5,219.9
	 M252,243.6C252,243.6,252.1,243.6,252,243.6l0.2,0.1l0,0l0.1,0l0.2,0l0.6-0.4l0.3-0.3l0.1-0.1l0.1,0l0.9-0.1l1.3,0.1l0.1,0l0.1,0
	l0.1-0.1l0-0.1l0-0.2l0-0.1l0,0l0.1-0.1l0,0l0-0.1l0-0.1l-0.1-0.1l-0.4-0.4l-0.1-0.1l-0.1-0.1l-0.1-0.1l0-0.1l0-0.1l0-0.3l0-0.1
	l-0.1-0.1l-0.2-0.2l-0.3-0.7l-0.1-0.1l-0.1-0.2l-0.1-0.1l-0.1,0l-0.2,0.1l-0.1,0.1l0,0.1l0,0.1l0,0.2l-0.3,0.6l0,0.1l0,0.1l0,0.3
	l0,0.1l0,0.3l-0.1,0.3l-0.1,0.2l-0.4,0.3l-0.1,0.1l-0.1,0l-0.1,0l-0.1,0l-0.2,0.1l-0.2,0l0,0l0,0.1l0,0.3l0,0.1l-0.2,0.2l-0.4,0.6
	L252,243.6L252,243.6L252,243.6 M143.1,66.3l0.5,0.4l0.7,0.4l0.3,0.2l0,0.1l0,0l0.2,0.2l0,0.1l0,0l0,0l0.3,0.3l0.1,0.1l0.1,0.2
	l0,0.2l0,0.1l0.4,0.2l0.2,0l0-0.2l-0.2-0.3l0.7,0.4l0.3,0.1l0.1-0.1l-0.3-0.2l0-0.2l0.2-0.2l0-0.1l-0.2-0.2l-0.1-0.1l0,0l0.1-0.1
	l0,0l-0.3-0.2l-0.2,0l-0.2,0l-0.2-0.1l-0.2-0.2l-0.4-0.5l-0.1,0l-0.2-0.2l-0.4-0.1l-0.5,0l0,0.1L143.1,66.3L143.1,66.3 M253.5,240.2
	l0.1-0.3l0.1-0.2l0.1-0.2l0-0.1l-0.1-0.1l-0.1,0l-0.1,0l-0.5,0.3l-0.1,0l-0.2,0l-0.1,0l-0.1,0l-0.3,0.3l-0.1,0.2l-0.1,0.2l-0.1,0.6
	l-0.1,0.2l-0.1,0.3l0,0.2l0,0.1l0.1,0.1l0.1,0l0.2,0l0.7-0.2l0.3-0.1l0.1-0.1l0.1-0.1l0.1-0.1l0.1-0.3l-0.1-0.6l-0.1-0.1
	L253.5,240.2L253.5,240.2 M252,242.3L252,242.3l-0.4,0.3l0,0l0,0.1l0,0.1l0,0.1l0.1,0l0.1,0l0.1,0l0.1,0l0.1-0.1l0.1-0.2l0-0.2
	L252,242.3L252,242.3 M304.7,189.5l-0.4-0.1l-0.3-0.1l-0.1-0.1l-0.2-0.2l-0.2-0.4l0.1-0.1l0.2,0l0.1-0.1l-0.2-0.1l-0.2-0.1l-0.2-0.1
	l-0.1,0l-0.2-0.1l-0.8-0.4l-0.6-0.2l-0.2,0l-0.3-0.1l-0.1,0l-0.1,0l0,0.1l0,0l-0.1,0l0-0.1l0.1,0l0.2,0l0-0.1L301,187l-0.1-0.1
	l-0.1,0l-0.2-0.1l-0.2,0l-0.3,0l-0.3,0.2l-0.2,0l-0.1-0.1l0.4-0.2l-0.1-0.1l-0.8-0.3l-0.2,0l0.2,0l2.1,0.2l0.6,0.2l0.2,0l0.2,0.1
	l0.3,0.2l0.3,0.1l0-0.2l-0.2-0.1l-0.3-0.1l-0.5-0.3l-0.3-0.5l-0.3-0.2l-0.8-0.3l-0.1-0.1l-0.2-0.1l-0.1,0l-0.1,0l-0.2,0l-0.1,0
	l-0.5-0.2l-0.2-0.1l-0.5-0.1l-0.1,0l-0.3-0.2l-0.1,0l-0.1,0l-0.1,0l-0.7-0.3l-0.3,0l-0.3-0.1l-0.1,0l-0.6,0l-0.2,0l-0.5-0.1
	l-0.5-0.2l-0.2-0.1l-0.4,0l-0.8-0.1c-0.8,0.1-1.6,0.1-2.5,0.2l-1,0l-1.3,0.2l-0.3,0.1l-0.3,0.3l-1.3,0.5l-1.3,0.2l-1,0.4l-1.5,1.3
	l-0.6,0.3l-1.2,1.2l-1,1.3l-1,0.7l-0.3,0.3l-0.2,0.4l-0.9,0.3l-0.1,0.4l-0.3,0.1l-0.1,0.1l-0.1,0.3l0,0.1l-1,1.4l-0.1,0.1l-0.4,0.1
	l-0.2,0.1l-0.1,0.1l0,0.3l-0.1,0.1l-0.4,0.1l-0.1,0.1l-0.3,0.8l0,0.4l-0.1,0.1l-0.4,0.1l-0.1,0.3l0.1,0.8l-0.1,0.3l-0.4,0.3l0,0.1
	l0,0.1l-0.2,0.5l-0.2,0.1l-0.5,0.1l-0.1,0.1l0.1,0.3l-0.5,0.8l-0.2,0.8l0,1.1l-0.3,0.8l0,0.8l-0.1,0.2l-0.1,0.1l-0.3,0.2l-0.2,0.1
	l-0.1,0.1l0.2,1.4l0.1,0.2l0.2,0.2l0.1,0.1l0.1,0.1l0.1,0.1l0,0.1l-0.1,0.2l0,1.2l0.1,1.4l-0.1,1.1l-0.2,0.2l0,0.1l0,0.1l0,0.1
	l-0.1,0.1l-0.1,0.1l0,0.1l0,0.4l0.5,0.9l0.1,0.4l-0.5,0.8l0,0.4l0.2,1l0,1.3l-0.3,1.5l-0.1,0.1l-0.4,0.1l-0.8,0.7l-0.1,0.1l0.1,0.3
	l0,0.1l-0.1,0l-0.2,0l-0.1,0l0,0.1l0,0.2l-0.1,0.1l-0.1,0l-0.3,0l-0.1,0l-0.1,0.1l-0.1,0.5l-0.3,0.2l-0.9,0.2l-0.3,0.2l0,0.2
	l0.1,0.5l-0.1,0.1l-0.1,0.1l-0.1,0.3l-0.1,0.1l-2.8,2.2l-0.5,0.1l-0.6-0.1l-0.3-0.1l-0.3,0l-0.2,0.1l-0.1,0.4l-0.3,0.4l0,0.2l0,0.2
	l0,0.2l-0.2,0.1l-0.2,0.1l-0.4,0.2l-0.5,0.6l0,0.1l0.1,0.2l0.1,0.3l0.1,0.5l-0.1,0.3l-1,0.5l-0.3,0.4l-0.2,0.1l-0.1,0.1l-0.1,0.8
	l-0.3,0.5l-0.2,0.3l-0.1,0.2l0.2,0.2l0.2,0.2l-0.2,0.6l-0.2,0.1l-0.6,0.6l-0.3,0.1l-0.3,0.1l-0.3-0.1c-0.1,0.1-0.1,0.3-0.2,0.5
	l-0.1,0.2l-0.1,0.2l-0.1,0.2l0,0.1l-0.9,0.4l-0.1,0.1l0,0.1l0,0.1l0.1,0.1l0.1,0.1l0.1,0.1l0,0.3l0,0.2l0.2,0.2l0.2,0.2l0.2,0.2
	l0.1,0.2l0,0.7l-0.6,1.6l0,0.3l0.1,0.4l0.2,0.4l0.4,0.4l0,0.1l0.1,0.2l0.1,0.1l0,0.1l-0.1,0.2l0.1,0.6l0.1,0.2l0.1,0.2l0.1,0.1
	l0.6,0.5l0.2,0.2l0,0.3l-0.1,0.1l-0.1,0.1l-0.1,0.1l-0.1,0l-0.2-0.1l-0.1,0l-0.2,0.1l-1,0.1l-0.1,0.1l0,0.1l-0.2,0.1l0,0.1l0,0.4
	l0,0.1l-0.3,0.5l-0.1,0.2l-0.1,0.1l-0.3,0l-0.1,0.1l-0.1,1.1l-0.2,0.4l-0.4,0.3l-1.1,0.2l-0.2,0.1l-0.1,0.4l-0.2,0.1l-0.9,0.4
	l-0.2,0.1l-0.1,0.3l-0.1,0.1l-0.1,0.1l-0.1,0l-0.1,0.1l0.1,0.1l0.1,0.1l0.1,0.1l0,0.4l-0.2,0.3l-1.3,1.1l-0.7,0.4l0.2,0
	c6.4-1.4,12.6-2.8,18.5-4.3c5.1-1.2,10.1-2.5,15-3.8l-0.3-0.3l-0.1-0.2l-0.1-0.2l-0.1-0.6l-0.1-0.1l-0.1-0.2l-0.1-0.1l-0.1-0.5
	l-0.1-0.2l-0.3-0.1l-0.3-0.1l0-0.1l0.3-0.2l0-0.1l0-0.4l0.1-0.2l0.2-0.1l0.2,0l1.2,0.2l0.3,0l0.3,0l0.1-0.1l-0.1-0.5l0-0.2l0.1-0.1
	l0.2-0.1l0.1-0.1l0-0.2l0-0.2l0-0.1l0.2-0.1l0.3,0l0.3,0.1l1.3,0.9l0.2,0.1l0.1-0.2l-0.1-0.1l-0.2-0.2l-0.1-0.1l0-0.1l0.1-0.2l0-0.1
	l-0.2-0.2l-0.5-0.5l-0.2-0.2l-0.1-0.2l0-0.2l0.1-0.1l0.2,0l0.3,0l0.6,0.2l0.3,0l0.2,0l0.1-0.1l0-0.2l-0.3-0.2l-0.3-0.1l-0.5-0.1
	l-0.3-0.1l-0.3-0.2l-0.2-0.2l-0.3-0.9l0.1-1.1l0.1-0.2l0.3-0.4l0.1-0.3l0.1-0.1l0.2-0.1l0.1,0l0.1-0.2l0-0.2l-0.1-0.2l-0.2-0.2
	l-0.1-0.1l-0.1-0.1l-0.1-0.1l-0.1-0.1l0-0.1l0-0.2l0.3-0.7l0-0.3l-0.1-0.4l-0.2-0.3l-0.1-0.1l-0.2,0l-0.3-0.1l-0.3-0.1l-0.2-0.2
	l-0.3-0.4l0,0l0-0.1l0,0l-0.1-0.1l-0.1,0l-0.1,0l-0.1,0l-0.1-0.1l-0.1-0.1l0-0.1l0.1-0.3l0-0.2l-0.2-0.2l-0.3-0.2l-0.3-0.2l-0.3-0.1
	l-0.2-0.2l-0.2-0.5l-0.2-0.5l0-0.2l0.2-0.1l-0.1-0.1l-0.2-0.3l-0.1-0.3l0.1-0.2l0.1-0.1l0.2-0.7l-0.2-0.3c-0.6-0.9-1.2-1.7-1.9-2.6
	l-0.3-0.5c-0.4-3.3-0.7-6.6-1-9.9l0-0.2l0.1-0.1l0.1,0l1.6,0.1l0.3,0.1l0.3,0.3l0.5,0.7l0.3,0.4l0.1,0.1l0,0l0-0.1l0.4-0.4
	c0.3-0.2,0.6-0.4,0.9-0.6l0.4-0.3c0.3-0.3,0.6-0.7,0.9-1l0.1-0.2l0-0.3l0-0.3l0-0.3c0-0.2,0.1-0.3,0.1-0.5l-0.1-0.3l-0.2-0.3
	c-0.1-0.2-0.3-0.3-0.4-0.5c-1-1.1-2-2.3-3.1-3.4c0.7-0.1,1.4-0.3,2.2-0.4l-0.1-0.1l-0.1-0.1l-0.1-0.1c-0.1-0.1-0.1-0.1-0.2-0.2
	l-0.1-0.1c-0.1-0.1-0.1-0.1-0.2-0.2c1.4-0.3,2.7-0.6,4-0.8l0.1,0.1c0.1,0.1,0.2,0.2,0.3,0.3l0.1,0.1l0.1,0.1l0.1,0.1l0.1,0.1l0.2,0
	l0.2,0l0.2,0l0.2,0l0.3,0l0.2,0c0.1,0,0.2,0.1,0.4,0.1l0.2,0l0.1,0l0.1,0l0.1,0l0.1,0l0.1,0.1l0.1,0.1l0.1,0.1l0.1,0.1l0.3,0.1
	l0-0.1l-0.2-0.2l-0.1-0.2l0-0.1l0.1,0l0.2,0l0.1,0c0.1,0,0.1-0.1,0.2-0.1l0.1,0l0.2,0l0.2,0l0.1,0l0.1-0.1l0.1-0.1l0.1-0.1l0-0.1
	l0-0.1l0-0.1l0.1-0.1l0.1-0.1l0.1-0.1l0.2,0l0.2,0.1l0.3,0.1l0.3,0.1l0.1-0.1l-0.1-0.2l-0.2-0.2l-0.2-0.2l-0.1-0.2l0-0.2l0.1-0.2
	l0.1-0.1l0.2,0l0,0l-0.1,0l0.1-0.1l0.1,0l0.2,0l0.1,0l0.1-0.1l0.3-0.2l0.2-0.2l0-0.1l0-0.1l0-0.1l0.1,0l0.2,0l0.1,0l-0.1-0.2l0.3,0
	l-0.1-0.2l-0.2-0.4l0.2-0.2l0.8-0.1l0.4,0.1l0.1,0l0.1,0l0.1,0.1l0.1,0l0.1,0l0,0l0,0l0,0l0.1,0l0.1,0.1l0.1,0l0.1,0l0-0.1l-0.2-0.3
	l-0.2,0l-0.1,0l-0.1,0l0-0.1l0.1-0.1l0.7-0.1l0.8,0.1l0.2-0.1l0-0.2l-0.1-0.9l0-0.1l0.1-0.1l0.1,0l0.1,0l0-0.1l-0.1-0.2l0.2,0.2
	l0.2,0.2l0.2,0.2l0.3,0.1l0.6,0.3l0.4,0.1l1,0l1,0.2l0.3,0l0.3,0l0.1,0l0.1,0.1l0.2,0.2l0.1,0.1l0.2,0.1l0.3,0l0.2,0l0.1-0.1
	l0.7-0.2l0.4-0.5l0.3-0.8l0.2-0.4l0-0.3l-0.2-0.1l-0.2-0.1l-0.1-0.1l0,0l0.1,0.1l0.1,0l0.1,0l0.1,0l0.6-0.5l-0.1-0.2l-0.1-0.2
	l-0.2-0.3l-0.1-0.2l0,0l0,0l0-0.1l0-0.1l0-0.1l-0.1-0.1l-0.1-0.1l-0.1,0l-0.1,0l0-0.1l0.2-0.1l0-0.1l0.4-0.6l0.3-0.1l0.2-0.2
	l0.5-0.2l0.1-0.1l0-0.2l-0.2,0l-0.1-0.2l0-0.2l0-0.1l0.1-0.1l0.2-0.1l0-0.1l0-0.1l0-0.1l0-0.1l0-0.1l-0.1,0L304.7,189.5 M173.9,67.9
	L173.9,67.9L173.9,67.9L173.9,67.9 M330.8,193.5l-0.7,0.2l-0.1,0.1L330,194l0.1,1.1l0-0.1l0.1-0.1l0-0.2l-0.1-0.4l0-0.2l0.1-0.1
	l0.1-0.1l0.2,0l0.1,0.2l0.1,0.2l0,0.2l-0.1,0.1l0.2,0.1l0.1-0.1l0.1-0.2l-0.1-0.2l-0.1-0.2l0-0.1l0.1-0.1l0-0.1L330.8,193.5
	L330.8,193.5 M316.1,150.1c-1.9-1.8-3.8-3.6-5.6-5.4c-3.2,0.9-6.6,1.7-10,2.4c-3.7,0.8-7.4,1.6-11.4,2.3c-4.1,0.8-8.4,1.5-12.9,2.1
	c-1.3,0.2-2.6,0.4-4,0.6l-0.4-0.1l-0.5-0.3l-0.4-0.3l0.2-0.1c0.3,0.1,0.5,0.1,0.8,0.2l0.4,0.1l0.2,0l-0.1-0.2l-0.2-0.2l-0.3-0.2
	l-0.2-0.2l-0.5-0.5l-0.6-0.5l-0.6-0.4l-0.6-0.3c-0.1-0.1-0.2-0.1-0.4-0.2l-0.2-0.1l-0.1-0.1l0-0.1l0.1,0l0-0.1l-0.1-0.1l-0.3-0.1
	l-0.3,0l-0.3,0.1l-0.2,0l-0.3,0l-0.5-0.1l-0.5-0.1l-0.2-0.2l0.2,0l0.3,0l0.1-0.1l-0.4-0.3l-0.2-0.1l-0.2-0.1l-0.2-0.1l-0.1-0.1
	l-0.2,0l0,0.1l0,0.1l0,0.1l-0.1,0l-0.2,0l-0.2-0.1l-0.3-0.2l-0.1-0.2l-0.1-0.3l-0.1-0.3l0-0.2l0.1-0.3l0.1-0.2l0.2-0.2l0.2-0.1
	l0.3-0.1c0.4-0.1,0.7-0.2,1.1-0.3c0.2,0,0.3-0.1,0.5-0.1l0.2,0l0.2,0l0.2,0l0.2,0l0.1-0.2l-0.3-0.2l-0.4-0.2l-0.4-0.2l-0.2-0.1
	l-0.2,0l-0.2,0l-0.2-0.1c-0.2-0.1-0.3-0.1-0.5-0.2l-0.2-0.1l-0.2,0c-0.2-0.3-0.5-0.6-0.7-0.9l-0.4-0.5l-0.4-0.5l-0.3-0.3l-0.3-0.2
	l-0.3-0.2l-0.3-0.1l-0.3-0.1l-0.2-0.1l-0.2-0.2l-0.2-0.2l-0.4-0.2l-0.4-0.1l-0.4,0l-0.2,0.1c-0.2,0.1-0.3,0.1-0.5,0.2l-0.1,0.2
	l0.1,0.3l0.2,0.2l0.3,0.2l0.3,0.2l0.2,0.2l0.1,0.2l0,0.2l0,0.2l0.3,0.2l0.5,0.4l0,0.1l-0.3,0l-0.3,0l-0.3,0l-0.2,0.1l-0.1,0.1l0,0.3
	l0.1,0.2l0.2,0.2l0.2,0.2c0.2,0.1,0.5,0.3,0.7,0.4l0.2,0.2l0.1,0.2l0.2,0.3l0.2,0.2l0.5,0.4l0.2,0.2l0.1,0.1l0,0.1l0,0.1l0.1,0.1
	l0.2,0.2l0.2,0.1l0.2,0.1l0.2,0.1l0.3,0.2l0.3,0.2c0.2,0.2,0.5,0.3,0.7,0.5l0.2,0.1l0.2,0.1l0.1,0.1l0.2,0.1l0.2,0.2l0.1,0.1
	c0,0.1,0.1,0.2,0.1,0.3l0.2,0.3l0.2,0.3l0.3,0.3l0.3,0.3l0.2,0.2c0.2,0.1,0.3,0.3,0.5,0.4l0.2,0.2l0.1,0.2l-0.2,0.1l-0.3,0l-0.2,0
	l-0.2,0.1l0.1,0.2l0.2,0.2l0.2,0.3l0.1,0.1l0.1,0.1l0.1,0.1l0.1,0.1l0.2,0.1l0.2,0.1l0.1,0.1l0,0.1l0,0.2l0.2,0.2l0.3,0.3l0.3,0.3
	l0.1,0.2l0.1,0.2l0.1,0.2l0.3,0.2l0.2,0.1l0.2,0.2l0.2,0.1l0.2,0.1l0.1,0l0.1,0l0.1,0l0.2,0.1l0.1,0.1l0,0.1l0,0.1l0,0.1l0,0.2
	l-0.1,0.1l-0.1,0.1l-0.1,0.1l-0.1,0.1l0,0.2c0.1,0.2,0.1,0.3,0.2,0.5l0,0.1l0,0.1l0,0.1l0,0l-0.1,0l-0.1,0l-0.1,0l0,0l0,0.1
	c0,0.1,0.1,0.2,0.1,0.3l0,0.1l-0.2-0.1l-0.3-0.3l-0.3-0.3l-0.3-0.3l-0.4-0.2l-0.4-0.1l-0.3-0.1l-0.3-0.2c-0.2-0.1-0.3-0.3-0.5-0.4
	l-0.1-0.1l0.1-0.1l0.1-0.1l0.2-0.1l0-0.2l-0.3-0.3l-0.4-0.2l-0.4-0.1l-0.4,0l-0.4-0.1l-0.3-0.1l-0.4-0.1l-0.4-0.2l-0.3-0.2l-0.2-0.3
	l-0.1-0.2l-0.1-0.2l-0.4-0.2l-0.4-0.2l-0.4-0.1l-0.4-0.1l-0.4-0.2c-0.3-0.2-0.6-0.3-0.9-0.5l-0.5-0.2l-0.4-0.2l-0.4,0
	c-0.2,0.1-0.4,0.1-0.7,0.2l-0.4-0.1l-0.1-0.1c-0.1-0.1-0.2-0.1-0.3-0.2l-0.1-0.1l-0.2,0l-0.2,0l-0.1,0l-0.1,0l-0.1,0l-0.1,0
	l-0.1,0.1l0,0.1l0.1,0.2l0.1,0.2l0.1,0.2l0,0.2l0.2,0.3l0.3,0.4l0.2,0.3l-0.2,0.1l-0.2-0.1l-0.2-0.1l-0.2-0.1l-0.2-0.1l-0.3-0.1
	l-0.3,0l-0.3,0l-0.2,0l-0.1,0l-0.1,0l-0.1,0.1l0,0.1l0.1,0.2l0.2,0.2l0.2,0.2l0.1,0.1l-0.1,0l-0.1,0l-0.2-0.1l-0.1,0l-0.2,0l-0.1,0
	l-0.1,0l-0.2,0l-0.3-0.1l-0.4-0.1l-0.5-0.2l-0.4-0.2l-0.3-0.3l-0.2-0.3l-0.2-0.3l-0.3-0.2l-0.3-0.1l-0.2,0.1l-0.2,0.1l-0.4-0.1
	l-0.2-0.1c-0.1-0.1-0.2-0.1-0.4-0.2l-0.2-0.1l-0.2-0.1l-0.2-0.1l-0.1-0.1l-0.2-0.1l-0.2,0l0,0.2l0.2,0.3l0.3,0.3l0.1,0.1l0.1,0.1
	l0.1,0.1l0.1,0.1l0,0.1l0,0.1l0.1,0.1l0.2,0.2l0.2,0.1l0.1,0.1l0,0l-0.2-0.1l-0.2-0.1l-0.1,0l-0.1,0l-0.2,0l-0.4-0.2l-0.3-0.2
	l-0.3-0.3l-0.4-0.3l-0.3-0.2L249,151l-0.2-0.2l-0.2-0.3l-0.1-0.1l-0.1-0.1l0-0.1l0-0.1l0.1-0.1l0.1-0.1l0.1-0.1l0-0.1l-0.1,0
	c-0.1-0.1-0.3-0.2-0.4-0.2l-0.1-0.1l-0.1-0.1l-0.1-0.1l-0.1-0.1l-0.2-0.1l-0.2-0.1l-0.2-0.1c-0.1-0.1-0.2-0.1-0.3-0.2l-0.3-0.2
	l0.1,0l0.2,0l0.2,0l0.1-0.1l-0.3-0.2l-0.5-0.3l-0.3-0.2l-0.1-0.1l-0.1-0.1l-0.1-0.1l-0.1-0.1l-0.1-0.1l-0.1-0.1l-0.1-0.1l-0.1-0.1
	l-0.3-0.3l0-0.1l0.2,0l0.3,0.1l0.2,0l0-0.1l-0.2-0.2l-0.2-0.2l-0.3-0.2l-0.4-0.2L244,145l-0.2-0.3l0.1-0.1l0.2-0.1l0.1-0.2l-0.1-0.2
	l-0.3-0.1l-0.3-0.1l-0.3-0.2l-0.3-0.3l-0.3-0.3l-0.3-0.2l-0.3-0.1l-0.3-0.1l-0.2-0.1l-0.2-0.1l-0.2-0.1l-0.1,0l-0.1,0.1l0.1,0.1
	l0.1,0.1l0.2,0.2l0.3,0.3l0.1,0.2l-0.1,0.1l-0.2,0l-0.3,0l-0.3-0.1l-0.1,0.1l0.2,0.3l0.3,0.3l0.6,0.6c0.3,0.3,0.6,0.6,0.8,0.9
	l0.3,0.3l0.1,0.2l-0.2,0.1l-0.2,0.1l-0.1,0.1l0.1,0.3l-0.1,0.2l-0.4-0.3l-0.5-0.4l-0.3-0.2l-0.2,0l0.3,0.3l0.4,0.3l0.2,0.2l-0.1,0
	l-0.2-0.1l-0.2-0.1l-0.2-0.1l-0.2,0l-0.2,0l-0.1,0l-0.1,0l-0.3,0l-0.3-0.1l-0.3-0.2L239,146l-0.2-0.3l-0.2-0.3l-0.3-0.3l-0.4-0.4
	c-0.2-0.2-0.4-0.3-0.6-0.5l-0.3-0.2l-0.2-0.2l-0.1-0.3c0-0.1,0.1-0.2,0.1-0.4l-0.1-0.3c-0.1-0.2-0.2-0.4-0.3-0.5l-0.2-0.3l-0.2-0.2
	l-0.3-0.2l-0.3-0.2l-0.3-0.2l-0.3-0.3l-0.2-0.4l-0.1-0.3c-0.1-0.2-0.1-0.4-0.2-0.6l-0.2-0.2l-0.3-0.2l-0.3-0.2
	c-0.2-0.1-0.4-0.2-0.6-0.3l-0.2-0.1l-0.2,0l-0.1,0l0,0.1l0,0.1l0,0.1l-0.2,0l-0.2-0.2l-0.3-0.3l-0.3-0.2l-0.2-0.1L231,138l-0.2-0.1
	l-0.2-0.2l-0.2-0.2l-0.1-0.2l-0.1-0.2l-0.2-0.1l-0.5-0.2l-0.5-0.1l-0.4,0l-0.3,0l-0.3,0l-0.4,0l-0.4,0l-0.4-0.1l-0.8-0.4l-0.4-0.7
	l-0.4-0.7l-0.6-0.6l-0.2-0.1l-0.2-0.1l-0.2-0.1l-0.2-0.1l-0.3-0.1l-0.3-0.1l-0.3-0.1l-0.3-0.1l-0.2-0.1l-0.1-0.1l-0.1-0.1l-0.2-0.2
	l-0.2-0.2l-0.2-0.1l-0.2-0.1c-0.2-0.1-0.4-0.2-0.6-0.3l-0.4-0.2l-0.4-0.2l-0.4-0.2l-0.4-0.2l-0.2-0.2l-0.1-0.2
	c0-0.1-0.1-0.2-0.1-0.4l-0.1-0.2l0-0.1l0-0.1l0.1-0.1l0.1-0.1l0-0.1l0-0.2l0-0.1l0.1-0.1c0.1,0,0.1-0.1,0.2-0.1l0-0.1l0-0.1l0-0.1
	l0-0.1l0.1,0l0.1,0l0.1,0l0-0.1l-0.2-0.2l-0.2,0l-0.2,0l-0.1,0c0-0.1,0-0.2-0.1-0.4l-0.2-0.3l-0.4-0.2c-0.2-0.1-0.5-0.2-0.7-0.2
	l-0.3-0.2l-0.3-0.3l-0.2-0.2l-0.1-0.2l-0.2-0.2l-0.2-0.2l-0.2-0.1l-0.2-0.1l-0.2-0.1l-0.2-0.2l-0.2-0.3l-0.2-0.3l-0.2-0.3l-0.1-0.2
	l0.1-0.1l0.3,0l0.4,0l0.4,0.1l0.6,0.3l0.7,0.3l0.6,0.2l0.3-0.1l0-0.1l0-0.1l-0.1-0.1l-0.2-0.2l-0.2-0.2l0-0.1c0-0.1,0-0.1,0-0.2
	c0-0.1,0-0.1,0-0.2l0-0.1l0.1,0l0.2,0l0.2,0.1l0.2,0l0.2,0l0.1-0.1l0.1-0.1l0-0.2l-0.3-0.2l-0.3-0.1l-0.3-0.1l-0.3,0l-0.3,0l-0.1,0
	l-0.1,0l-0.1,0l-0.2,0l-0.1-0.1l-0.1-0.1l0-0.1l0-0.1l0-0.1l-0.1-0.1L216,123l-0.2-0.1l-0.3-0.1l-0.5-0.2l-0.5-0.2l-0.3-0.2l0-0.1
	l0.1-0.1l0.1-0.1l0-0.1l-0.2-0.1l-0.3-0.1c-0.2-0.1-0.3-0.1-0.5-0.2l-0.4-0.2l-0.3-0.2c-0.2-0.2-0.5-0.4-0.7-0.6l-0.3-0.2l-0.3-0.2
	l-0.3-0.2l-0.3-0.2l-0.4-0.4l-0.1-0.3l0-0.2l0.2-0.1l0.2,0l0.2,0.1l0.3,0.1c0.1,0,0.3,0.1,0.4,0.1l0.1,0.1l0,0.1l0,0.1l0,0.1l0,0.1
	l0,0.1l0.1,0.1l0.2,0.1l0.3,0.1c0.2,0,0.3,0.1,0.5,0.1l0.4,0.2l0.4,0.2l0.5,0.2l0.5,0.2l0.2,0.1l0.2,0.1l0.2,0.1l0.3,0.1l0.2,0.1
	l0.2,0.2l0.3,0.2l0.2,0.2l0.5,0.3l0.4,0.2l0.4,0.1l0.4,0.1c0.4,0.1,0.7,0.2,1.1,0.4l0.5,0.1l0.2-0.1l-0.1-0.1
	c-0.1-0.1-0.3-0.1-0.4-0.2l-0.1-0.1l0-0.1l0.2,0l0.2,0l0.2,0l0-0.3l-0.8-0.6l-1-0.6l-0.7-0.4l-0.2-0.3l0.1-0.1l0.2-0.1l0-0.1
	l-0.2-0.1l-0.2-0.1c-0.1-0.1-0.3-0.1-0.4-0.2l-0.2-0.1l-0.2-0.1L216,119l-0.2-0.1l-0.1-0.1c-0.1-0.1-0.2-0.1-0.3-0.2l-0.1-0.1
	l-0.2-0.1l-0.1-0.1l-0.1-0.1l-0.1-0.1l-0.1-0.2l-0.1-0.2l-0.1-0.1l-0.1-0.1l0-0.1l0.1,0l0.1,0l-0.1-0.1l-0.3-0.2l-0.5-0.2l-0.5-0.2
	l-0.3-0.2l-0.2-0.1l-0.3-0.1l-0.3-0.2l-0.2-0.1l-0.2-0.1l0-0.1l0.1,0l0.1,0l0.3,0l0.4,0.1l0.5,0.2c0.3,0.2,0.5,0.4,0.8,0.6l0.2,0
	l0.2,0l0.3,0l0.4,0.2l0.4,0.3l0.5,0.3l0.4,0.3l0.2,0.1l0.2,0.1l0.2,0l0.2,0.1l0.2,0.1l0.2,0.1l0.2,0.1l0.2,0.1l0.8,0.4l0.8,0.5
	l0.8,0.4l0.7,0.2c0.1,0,0.3,0,0.4,0.1l0.2,0.1l0.3,0.1l0.3,0.1l0.3,0.2l0.3,0.1l0.2,0.1l0.1,0l0-0.1l0-0.1l0,0l0.2,0l0.2,0
	c0.1,0,0.3,0.1,0.4,0.1l0.1,0l0.2,0l0.2,0.1l0.2,0.1l0.2,0.2l0.2,0.2l0.2,0.1l0.2,0.2l0.5,0.3l0.4,0.2l0.4,0.2l0.4,0.2l0.4,0.2
	l0.3,0.2l0.2,0.1l0.3,0l0.3-0.1c0.2-0.1,0.3-0.2,0.5-0.3l0.3-0.1l0.1,0c0.1,0,0.2,0,0.4,0.1l0.2,0l0.2,0l0.2,0l0.2,0l0.2,0
	c0.3,0.1,0.6,0.2,0.9,0.2l0.4,0.1l0.4,0l0.6-0.1c0.3-0.2,0.6-0.3,0.8-0.5l0.5-0.1l0.3,0l0.4,0.1c0.3,0.1,0.6,0.1,0.8,0.2l0.4,0
	l0.3-0.1l0.2-0.1l0.2-0.2l0.2-0.1l0.3,0l0.3,0.1l0.4,0.1l0.6,0.2l0.5,0.2l0.5,0.2l0.5,0.2l0.9,0.3l0.9,0.2l0.8,0.1l0.7,0l0.2-0.2
	l-0.1-0.4l-0.4-0.6c-0.3-0.4-0.6-0.8-0.9-1.2l-0.4-0.6l-0.3-0.6l-0.2-0.5l-0.2-0.3l-0.4-0.2l-0.4-0.2l-0.3-0.1l-0.4-0.2l-0.3-0.2
	l-0.3-0.3l-0.3-0.4l-0.2-0.3l-0.2-0.3l-0.1-0.3l0-0.2l0.2-0.1c0.2,0,0.3-0.1,0.5-0.1l0.2-0.1c0.1-0.2,0.3-0.4,0.4-0.5l0.1-0.4
	l-0.2-0.4l-0.3-0.2l-0.3-0.2l-0.3-0.2l-0.3-0.1l-0.3-0.2l-0.2-0.3l-0.2-0.3l-0.2-0.3l-0.4-0.3l-0.3,0l-0.3,0.1l-0.2,0l-0.3-0.1
	l-0.4-0.2l-0.4-0.2l-0.3-0.1l-0.2-0.1l-0.2-0.1l-0.2-0.1l-0.3-0.2l-0.2-0.2l-0.2-0.2l-0.2-0.2l-0.2-0.2l-0.3-0.2l-0.3-0.2l-0.3-0.1
	l-0.3-0.2c-0.5-0.2-1-0.5-1.5-0.7l-0.9-0.5l-0.7-0.6l-0.2-0.3l-0.1-0.2l0-0.1l0.1-0.1c0-0.1,0-0.1,0.1-0.2l0-0.1l0-0.1l0.1-0.1
	l0.1,0l0.1,0l0.1,0l0.1,0l0.1-0.1l0-0.1l-0.1-0.1l-0.2-0.1l-0.2,0l-0.2,0.1l-0.1,0l-0.1,0l-0.1,0l-0.2,0l-0.2,0l-0.2-0.1l-0.2-0.1
	l-0.2-0.1l-0.2,0l-0.2,0l-0.2,0l-0.2,0l-0.3-0.1l-0.1-0.1l-0.1-0.1l-0.1-0.1l-0.1,0l-0.1,0l-0.1,0l-0.1-0.1l0-0.1l0-0.1l0-0.1l0-0.1
	l-0.1-0.1l-0.1,0l-0.1,0l-0.1,0.1l0,0.1l0,0.1l-0.1,0.2l-0.1,0.1l-0.3-0.2c-0.2-0.2-0.3-0.4-0.5-0.5l-0.2-0.2l0-0.2l0.1-0.1l0.2-0.1
	l0.1-0.1l-0.2-0.3l-0.4-0.2l-0.5-0.2l-0.4-0.1l-0.2,0l-0.1,0.1l-0.1,0l-0.1,0l-0.2-0.1l-0.1,0l-0.1-0.1c-0.1,0-0.1-0.1-0.2-0.1
	l-0.1-0.1l-0.1,0l-0.1,0l-0.1-0.1l-0.1-0.2l-0.2-0.3l-0.3-0.3l-0.4-0.3l-0.1-0.1l-0.2-0.1l-0.2-0.1l-0.2-0.1l-0.1-0.1l0.1,0l0.2,0
	l0.1,0l0.5,0.1l0.4,0.1l0.3,0l0.3-0.1l0.1-0.1l-0.1-0.1l-0.3-0.1l-0.3-0.1l-0.3-0.1l-0.2-0.2l-0.2-0.3l-0.2-0.2l-0.2-0.1l-0.2-0.1
	l-0.2-0.1l-0.2-0.1l-0.3-0.1l-0.2-0.1l-0.2-0.1l-0.3-0.2l-0.3-0.2l-0.3-0.1l-0.3-0.2l-0.4-0.2l-0.2-0.2l-0.2-0.3l-0.1-0.2l-0.1-0.2
	l0.1-0.1l0.2-0.1l0.1-0.1l-0.3-0.3l-0.4-0.3l-0.1-0.2l0-0.1l0.1-0.1l0.1,0l0.2,0l0.2,0l0-0.1l-0.1-0.1l-0.2-0.1l-0.2-0.1l-0.2-0.1
	l-0.3-0.2l-0.2-0.2l-0.1-0.2l0-0.1l0-0.1l-0.1-0.1l-0.2-0.1l-0.2-0.1l-0.1-0.1l-0.2-0.2l-0.1-0.2L214,95l0-0.2l0.1-0.1l0.1-0.1
	l-0.2-0.3l-0.1-0.1l-0.2-0.1l-0.1-0.1l-0.1-0.1l-0.1-0.2l-0.1-0.2l-0.1-0.2l-0.1-0.2l-0.3-0.2l-0.4-0.2l-0.3-0.2l-0.1,0
	c0.2,0.2,0.4,0.4,0.6,0.7l0.2,0.3l-0.2-0.1l-0.4-0.3l-0.2-0.3l-0.2-0.3l-0.2-0.3l-0.1-0.1l-0.1-0.1l-0.1-0.1l0-0.1l0-0.1l0-0.1
	l0-0.1l0-0.1l0.1-0.1l0.1-0.1l-0.1-0.2L211,91l-0.3-0.2l-0.3-0.2l-0.3-0.3c-0.2-0.2-0.4-0.4-0.6-0.6l-0.4-0.3l-0.3-0.3l-0.2-0.3
	l0-0.2l0.1-0.1l0.1-0.1l0-0.2l-0.1-0.2l-0.1-0.3l-0.3-0.3l-0.4-0.3l-0.2-0.1l-0.1,0l-0.1,0.1l0.1,0.1l0.1,0.1l0.1,0.1l0.1,0.1
	l0.1,0.1l0,0.2l-0.3-0.2c-0.3-0.2-0.5-0.3-0.8-0.5l-0.3-0.2l0,0.1l0.1,0.2l0.1,0.2l-0.1,0l-0.1-0.1l-0.2-0.1l-0.2-0.1l-0.2-0.1
	l-0.1,0l-0.1,0l-0.2-0.1l-0.3-0.2l-0.3-0.2l-0.3-0.2l-0.2-0.1l-0.2-0.1l-0.2,0l-0.2,0l-0.2-0.1l-0.1,0l0.1,0.1l0.2,0.2l0.1,0.2
	l-0.1,0.1l-0.8-0.5l-0.9-0.6l-0.6-0.5l-0.4-0.2c-0.2-0.2-0.5-0.3-0.7-0.5l-0.4-0.3l-0.3-0.3l-0.3-0.3l-0.3-0.2l-0.3,0l-0.1,0l-0.2,0
	l-0.2-0.1l-0.2-0.1l-0.2,0l-0.1,0l-0.1,0l-0.1,0l-0.3-0.1l-0.3-0.3c-0.2-0.2-0.3-0.4-0.5-0.6l-0.3-0.5l0.1-0.2l0.3-0.1l0.3,0l0.1,0
	l0-0.1l0-0.1l-0.1-0.1l-0.1-0.2c-0.1-0.1-0.2-0.2-0.3-0.4l-0.1-0.2l-0.1-0.1l-0.1-0.1l-0.1-0.1l0-0.1l0-0.1l0.1-0.1
	c0.1,0,0.2,0,0.3-0.1l0-0.1l-0.1-0.2l-0.1-0.2l0-0.2l0.2,0l0.3,0l0.2,0l0-0.2l-0.1-0.2l-0.1-0.1L197,78l-0.2-0.1l-0.2-0.1l-0.2-0.1
	l-0.1-0.1l-0.2-0.1l-0.4-0.2l-0.1,0.1l0,0.2l-0.1,0.1l-0.2,0l-0.2,0l-0.2-0.1l-0.4-0.2l-0.4-0.2l-0.3-0.2l-0.3-0.3l-0.2-0.3
	l-0.2-0.4l0.1-0.1l0.2,0l0.3,0l0.1,0l0.1-0.2l0.1,0l0.2,0l0.2,0l0.2,0l0.1,0c0.2,0,0.5,0,0.7,0l0.4,0l0.3-0.1l0.2-0.1l0.1-0.2
	l-0.2-0.3l-0.6-0.4l-0.3-0.1l-0.3-0.1l-0.3-0.1l-0.3-0.1l-0.3-0.1l-0.2-0.1l-0.2,0l-0.2-0.1l-0.4-0.1l-0.3-0.1l-0.3,0l-0.1,0.1
	l0,0.1l0.1,0.1l0,0.1l0,0.1l-0.1,0.1l-0.2,0l-0.2,0l-0.2,0l-0.2,0l-0.1,0.2l0,0.2l0,0.3l-0.1,0.2l-0.2,0l-0.3-0.1
	c-0.2-0.1-0.3-0.1-0.5-0.2l-0.2-0.1l-0.2-0.1l-0.2-0.1l-0.2-0.2c-0.1-0.1-0.2-0.2-0.3-0.3l-0.2-0.2l-0.5-0.3l-0.4-0.1l-0.3,0l-0.2,0
	l-0.2,0l-0.2-0.1l-0.2-0.1l-0.2,0l-0.2,0c-0.1,0-0.2,0-0.3,0.1l-0.2,0l-0.4-0.1l-0.4-0.2l-0.4-0.2l-0.4-0.2l-0.2,0
	c0,0.1-0.1,0.2-0.1,0.3l-0.2,0l-0.1,0l-0.2-0.1l-0.2-0.1l-0.2-0.1l0-0.1l0-0.1l0-0.1l-0.1-0.1l-0.1-0.1l-0.1-0.1l-0.1-0.1l-0.1-0.1
	l0-0.1c-0.1-0.1-0.1-0.2-0.2-0.3l0-0.1l0-0.2l0.2-0.1l0.3,0l0.4,0.2l0.2,0.1l0.2,0.1l0.2,0.1l0.2,0.1l0.2,0l0.2,0l0.2,0l0.3,0.1
	l0.2,0.1l0.1,0l0.1,0l0.2,0.1l0.3,0.1l0.2,0.1l0.2,0l0.2,0l0.2,0l0.2-0.1l0-0.2l-0.4-0.3l-0.2-0.1l-0.2-0.1l-0.2-0.1l-0.2-0.1
	l-0.3-0.1c-0.1,0-0.3,0-0.4-0.1l-0.3-0.1l-0.4-0.2l-0.3-0.3l-0.2-0.3l-0.3-0.2l-0.2-0.1l-0.2-0.1l-0.2-0.1l-0.2-0.1l-0.2-0.2
	l-0.1-0.2l-0.1-0.1l-0.1-0.2l-0.2-0.1l-0.2-0.1l-0.2-0.1l-0.2-0.1l-0.1-0.1l-0.1-0.1l0-0.1l0-0.1l-0.2-0.2l-0.3-0.2l-0.3-0.2l0-0.1
	l0.1,0l0-0.1l0-0.1l-0.2-0.1l-0.2-0.1l-0.1-0.1l0-0.1c0-0.1,0.1-0.1,0.1-0.2c0-0.1,0.1-0.1,0.1-0.2l0.1-0.1l0.1-0.1l0.1-0.1l0-0.1
	l-0.2-0.2l-0.4-0.2l-0.4-0.1l-0.3,0l-0.1,0.1l-0.1,0.1l-0.1,0.2l-0.1,0.1l-0.1,0.1l-0.1,0.1l-0.1,0.1l-0.2,0l-0.3-0.1l-0.2-0.1
	l-0.2-0.1l-0.2-0.1l-0.2-0.2l-0.1,0l0,0l0-0.1l-0.1-0.1l-0.1-0.1l-0.1,0l-0.1,0l-0.1,0l-0.4-0.2l-0.3-0.2l-0.2-0.2l-0.2-0.3l0-0.1
	l0,0l0-0.1l-0.1-0.1l-0.1-0.1l-0.1-0.1l-0.1-0.1l-0.1-0.1l-0.1-0.2l-0.1-0.2l-0.1-0.2l-0.1-0.2l-0.1-0.1l-0.1-0.1l-0.1-0.1l-0.1-0.1
	c-0.1-0.1-0.2-0.1-0.3-0.2c-0.1-0.1-0.2-0.2-0.3-0.2l-0.1-0.1l-0.1-0.1l-0.1-0.1l-0.1-0.1l0-0.1l0-0.1l0,0l0,0l-0.1-0.1l-0.1-0.1
	l-0.1-0.1l-0.2-0.1l0-0.1l0.1,0l0.1,0l0-0.1L173,61c-0.1-0.1-0.3-0.2-0.4-0.2l-0.1-0.1l0.1-0.1l0.4,0.1l0.2,0l-0.3-0.4l-0.4-0.3
	l-0.3-0.1l-0.3-0.1l-0.3-0.1l-0.2-0.1l-0.2-0.1l-0.1-0.1l-0.1,0l-0.1,0.1l-0.1,0l-0.1-0.1l-0.2-0.1l-0.2-0.1l-0.2-0.1l-0.2-0.1
	l-0.2-0.1l-0.2-0.1l-0.2-0.1l-0.1-0.1l-0.1-0.1l0.1,0l0.2,0.1l0.3,0.1l0.2,0.1l0.1,0l0.1,0c0,0,0.1-0.1,0.1-0.1l0.1,0l0.1,0l0-0.1
	l-0.1-0.1c-0.1-0.1-0.3-0.1-0.4-0.2l-0.2-0.1l0.1,0c0.1,0,0.3,0,0.4,0c0.1,0,0.3,0,0.4,0l0.1,0l-0.1-0.1l-0.2-0.1l-0.2-0.2l-0.6-0.4
	l-0.4-0.1l-0.2,0l-0.2,0.1l-0.3-0.1l-0.5-0.2l-0.5-0.3l-0.3-0.2l-0.3-0.3l0.1-0.2l0.2-0.1l0.2,0l0.2,0c0.1,0,0.3,0,0.4,0.1l0.2,0
	c0.1,0,0.2,0,0.3-0.1l0.2,0l0.2,0l0,0l-0.1,0l-0.7-0.3l-0.2-0.1l-0.2-0.1l-0.4-0.1l-0.2-0.1l0.1,0.1l0.1,0l0.1,0l0.2,0.1l-0.1,0
	l-0.3-0.1l-0.1,0l-0.4-0.2l-0.2-0.1l-0.3,0l-0.1,0l-0.1,0l-0.1,0l0,0l0.1,0.1l0.3,0.2l0.2,0.2l0.1,0.2l0.1,0.2l0,0.2l0,0.1l-0.2,0.1
	l1.1,0.6l0.2,0.2l0,0.1l-0.2,0l-0.2,0l0.2,0.2l0.2,0.2l0,0l-0.1,0l0,0l0.1,0.1l0.1,0.1l0.1,0.1l0,0l0,0l0.1,0.1l0,0.1l-0.1-0.1
	l-0.1,0l-0.1,0l-0.1,0.1l0,0.1l0.1,0.1l0.2,0.1l0.3,0.1l0.2,0.3l-0.1,0.1l-0.5,0l0.1,0.1l0.1,0.1l0.2,0.2l0.2,0.1l0.2,0.1l0.2,0.1
	l0.2,0.1l0.2,0.2l-0.1,0l-0.2-0.1l-0.1,0l-0.1,0.1l0.6,0.3l0.3,0.2l0.1,0.2l-0.4-0.2l-0.1-0.1l-0.2-0.1l-0.1,0l0,0l0,0l0.1,0.1l0,0
	l0,0l0.1,0.1l0.1,0.1l0,0l0,0l-0.1,0.1l-0.1,0l-0.3,0l0.1,0.1l0.5,0.1l0.3,0.1l0.3,0.2l0.1,0.2l-0.3-0.1l-0.4-0.2l-0.1,0l-0.1-0.1
	l-0.1,0l0,0l0.1,0.1l0.1,0.1l0.3,0.2l0.2,0.1l-0.1,0.1l0,0l0.1,0.1l0.3,0.1l0.8,0.4l0.5,0.2l0.4,0.2l0.1,0l0.6,0.1l0.1,0.1l-0.5-0.1
	l-0.3-0.1l-0.4-0.2l-0.5-0.2l-0.5-0.3l-0.2-0.1l-1.1-0.4l-0.1,0l-0.1,0l0,0.1l-0.1,0l0,0l0.1,0.1l0.2,0.1l0.2,0.1l-0.2-0.1l-0.2-0.1
	l-0.2-0.1l0,0.1l0.1,0.2l0,0.1l-0.1,0l-0.1,0l-0.3-0.1l0,0l0,0l0,0.1l0.5,0.3l0,0.1l-0.2,0.1l0,0.2l0.3,0.2l0.3,0.2l1.2,1l1.7,1.2
	l0.3,0.2l0.2,0.1l0.7,0.1l0.7,0.3l0.5,0.1l0.2,0.1l0.9,0.5l0.7,0.3l0.6,0.3l0.5,0.1l-0.1,0.1l-0.4-0.1l-0.1,0l-0.2-0.1l-1.5-0.7
	l-0.1-0.1l-0.1-0.1l-0.1-0.1l-0.1,0l-0.1,0l0,0l0,0l-0.5-0.1l-1.1-0.2l-0.1,0l-0.2,0.1l-0.3,0l-0.8-0.3l-0.3,0l0.3,0.2l0.3,0.1
	l0.3,0.1l0.3,0.1l0.1,0.1l-0.2,0l0.1,0.1l1,0.3l0.4,0.2l-0.3-0.1l-0.1,0l0.1,0.2l0.2,0.3l0.2,0.2l0.2,0.1l0.2,0l1.1,0.8l-0.1,0
	l-2.1-1.1l-0.6-0.3l0,0.1l0.2,0.2l0.3,0.3l0.3,0.2l0.2,0.1l0.2,0.1l0.5,0.3l0.2,0.1l0.1,0.1l-0.1,0l-0.4-0.2l-0.1,0l0.1,0.1l0,0.1
	l0,0l-0.1,0l0,0l-0.1-0.1l-0.1-0.1l0,0l0,0.1l0.7,0.5l0.2,0.2l-1.1-0.7l-0.5-0.3l-0.5-0.1l-0.1,0l0,0l0.1,0.1l0.1,0.1l0.2,0.1
	l0.1,0.1l0.3,0.2l0.2,0.1l0.2,0.1l0.3,0.1l-0.1,0.1l0,0.1l0.1,0.1l0.2,0.2l0.1,0.1l0.8,0.5l0.5,0.4l0.2,0.1l0.2,0.1l0.2,0l0.1,0
	l0-0.1l0-0.1l0-0.1l-0.1-0.1l-0.1-0.1l0,0l0.1,0.1l0.1,0.1l0.1,0l0.1,0l0.5,0.1l0.6,0.3l0.6,0l0.4,0.2l0.1,0.1l-0.2,0.1l-0.8-0.1
	l-0.4-0.1l-0.3-0.1l-0.1,0l-0.2,0l-0.1,0l-0.2,0.1l0,0.1l0.6,0.3l0.1,0.1l0.2,0l0.2,0.1l0.2,0.1l0.3,0.2l-0.1,0l-1.1-0.4l-0.8-0.4
	l-0.2,0l-0.1-0.1l-0.2,0.2l-0.1,0l-0.2,0l0.4,0.1l0.1,0.1l-0.3,0l-0.1,0l0.1,0.1l1.1,0.4l0.1,0.1l0.1,0.1l0.2,0.1l0.2,0.1l0.1,0.2
	l0.1,0.1l-0.1-0.1l-0.3-0.2l-0.8-0.4l-1.3-0.5l-0.1,0l0.2,0.2l0.3,0.2l0.3,0.2l0.2,0.2l0,0l-0.3,0.1l0,0.1l-0.2,0.1l0.2,0.2l0.3,0.2
	l0.3,0.1l0.5,0.1l0.7,0.1l0.1,0.1l0.1,0.1l0,0.1l-0.1,0.1l-0.2,0.1l-0.8-0.2l0,0.2l-0.7-0.4l-0.1-0.1l0,0l0,0.1l0.3,0.7l0,0.1
	l0.2,0.1l0.6,0.2l0.1,0.1l0.3,0.2l0.3,0.3l0.1,0.2l0.3,0.1l0.5,0.1l0.3,0.2l0.1,0.1l0.3,0.3l0.2,0.1l0.2,0.1l0.3,0.1l0.1,0.1
	l0.4,0.3l0,0l0.1,0.1l0.4,0.2l-0.1,0.1l-0.4-0.1l-0.1,0l0,0.1l0.1,0.1l0.1,0.1l0.1,0.1l0.1,0.1l0,0.1l0,0l0,0.3l0,0.2l0.1,0.2
	l0.2,0.1l0.2,0l0.2,0.1l0.2,0.2l0,0l-0.1,0.1l0,0c0.1,0.1,0.2,0.1,0.2,0.2l0.1,0.1l0,0.1l-0.1,0l-0.1,0l-0.1,0l0,0.1l0.1,0.2
	l0.2,0.2l0.1,0.1l-0.1,0l-0.2-0.1l-0.5-0.3l-0.1-0.2l0.2-0.2l0-0.2l-0.2-0.3l-0.4-0.3l-0.4-0.3l-0.2-0.1l-0.1-0.1l-0.1-0.2l-0.1-0.2
	l0-0.1l0-0.1l-0.1-0.1l-0.1-0.1l-0.1-0.1l0,0l0,0l0,0l-0.1-0.2l-0.1-0.2l-0.1-0.2l-0.2-0.1l-0.2-0.1l-0.3-0.1l-0.2-0.1l-0.1-0.2
	l-0.2-0.1l-0.2,0l-0.1,0.1l-0.1,0l-0.2-0.1l-0.3-0.2l-0.2-0.2l-0.3-0.2l-0.2-0.2l-0.2-0.1l-0.2-0.1l-0.2,0l-0.6-0.2l-0.2-0.1
	l-0.5-0.4l-0.3-0.1l-0.4-0.1l-0.8-0.4l-0.1-0.1l0-0.1l0,0l-0.2,0l-0.2-0.1l-0.1,0l0,0l0,0.1l0,0.1l0,0l-0.1,0l-0.1,0.1l0,0.1
	l0.1,0.1l0.2,0.1l0.2,0.2l0.1,0.2l-0.1,0.1l0.2,0.1l0.1,0.1l0.3,0.1l0.1,0.3l-0.2,0l-0.3,0l-0.1,0.1l0.3,0.3l0.1,0.2l-0.1,0
	l-0.2-0.1l0.1,0.1l0.2,0.2l0.2,0.1l0.2,0.2l0.1,0.2l0,0.1l0.1,0.2l0.2,0.2l0.2,0.2l0.1,0.1l-0.1,0.1l-0.2,0.1l0.3,0.2l0.7,0.4
	l-0.1,0.1l-0.2,0l-0.5-0.1l-0.8-0.1l0.3,0.3l0.1,0.2l-0.1,0.2l0.1,0.1l0.1,0.1l0,0.1l-0.1-0.1l-0.1-0.1l-0.2-0.1l-0.3-0.1l-0.4-0.5
	l-0.4-0.2l-0.3,0l0,0.1l0.1,0.1l0.2,0.5l0,0.1l-0.1,0l-0.3,0l0.2,0.2l0.2,0.1l0.1,0.1L173,78l0.1,0.1l0,0.1l-0.1,0l-0.1,0l-0.2-0.1
	l-0.3-0.1l-0.2-0.1l-0.1,0.1l0,0.2l0,0.1l-0.1,0l-0.5,0l-0.2,0.1l0.2,0.5l-0.3,0l-0.4-0.1l-0.2,0l-0.1,0.1l0,0.1l0.1,0.4l0,0l-0.2,0
	l0,0l0,0l0.1,0.3l0.2,0.3l0.1,0.4l0.1,0.3l0.3,0.2l0.3,0.2l0.3,0.2l0.2,0.2l0.1,0.2l0,0.3l0.1,0.2l0.3,0.3l0.3,0.2l0.2,0.1l0.1,0.1
	l-0.1,0l-0.1-0.1l-0.2-0.1l-0.1-0.1l-0.3-0.3l-0.2-0.2l-0.1-0.2l0-0.2l-0.1-0.2l-0.4-0.6l-0.7-0.5l-0.5-0.4l-0.3-0.4l-0.3-0.6
	l-0.1-0.2l-0.2-0.2l-0.3-0.2l-0.3-0.2l-0.3-0.1l-0.2,0l-0.1,0l0-0.1l0,0l-0.4-0.3l-0.1-0.1l0-0.3l-0.4-0.3l-0.1-0.3l-0.1-0.2
	l-0.3-0.2l-0.3-0.1l-0.1,0l-0.1-0.1l-0.1-0.1l-0.1,0l-0.3-0.1l-0.2-0.1l-0.2,0l0,0.1l0.1,0.1l0.2,0.2l0.1,0.1l0.1,0.3l0,0.1l0.1,0.1
	l0.8,0.8l0.3,0.2l0.4,0.3l-0.1,0.2l0.1,0.2l0.3,0.3l-0.2,0l-0.2,0.1l-0.1,0.2l0.1,0.3l0.3,0.5l0,0.1l0,0.1l-0.2,0.1l0,0.1l0.1,0.4
	l0,0.1l-0.2-0.1l-0.1-0.2l-0.4-0.7l0.1-0.6l0.1,0l0.1-0.6l0-0.2l-0.1-0.2l-0.2-0.2l-0.2-0.2l-0.1-0.1l-0.7-0.4l-0.2-0.1l0,0
	l-0.1-0.1l-0.1-0.1l-0.1-0.1l-0.1-0.1l-0.1-0.1l-0.1-0.1l-0.1-0.1l-0.5-0.5l-0.1-0.2l-0.1-0.2l-0.1-0.2l-0.3-0.2l-0.2,0l-0.2,0
	l-0.2-0.1l-0.1-0.1l-0.1-0.2l-0.5-0.3l-0.4-0.1l0.2,0.3l0.2,0.2l0.1,0.1l0,0l-0.1,0l-0.2,0l-0.2,0l-0.3-0.1l-0.2-0.1l0,0.1l0.1,0.3
	l0,0.1l0.1,0.1l0.8,0.8l0.1,0.1l0.1,0.1l0.1,0.1l0,0l0,0.1l0.1,0.1l0.2,0.1l0.1,0.1l0.2,0.4l0.1,0.3l0.2,0.3l0.2,0.2l0.2,0.2
	l0.1,0.2l-0.2,0.1l0,0.1l0.2,0.3l0.3,0.3l0.5,0.5l0.1,0.2l0.1,0.1l0.1,0.2l0,0.1l-0.2,0.1l0,0.1l0,0.1l0.1,0.1l0.1,0.1l0,0.1
	l-0.2,0.2l-1,0.2l-0.7,0l-0.4,0.2l-1.4,0.3l-0.4,0.4l-0.5,0.1l0,0.1l0,0.2l-0.9,1.1l0.2-1.1l0.3-0.4l0.7-0.1l0-0.1l0.2-0.2l0-0.1
	l0-0.1l0-0.1l0.9-0.1l0.7-0.4l1.6-0.1l0.2-0.1l0-0.8l0.1-0.1l0-0.1l-0.1-0.2l-0.1,0l-0.2-0.1l-0.2-0.1l0-0.1l-0.1-0.1l-0.6-0.8
	l-0.6-1.3l-0.4-0.5l-0.3-0.3l-0.1-0.1l0-0.1l-0.1-0.1l-0.2-0.2l-0.2-0.1l-0.3-0.2l-0.2-0.3l-0.3-0.5l-0.2,0l-0.1,0.2l-0.2,0
	l-0.3-0.1l-0.1-0.2l-0.1-0.2l-0.2-0.3l-0.3-0.2l-0.3,0.1l-0.3-0.2l-0.3-0.3l-0.3-0.5l-0.2-0.2l-0.2-0.1l-0.5-0.2l-0.1-0.1l-0.2-0.1
	l-0.3-0.3l-0.1-0.1l0-0.2l-0.1-0.1l-0.2-0.2l-0.2-0.1l-0.3-0.1l-0.2-0.1l-0.1-0.1l-0.2-0.1l-0.9-0.2l-0.1-0.1l-0.6-0.3l-1.1-0.5
	l-0.3-0.1l-0.9-0.2l-0.3-0.1l-0.1-0.1l-0.1-0.1l-0.1-0.1l-0.1,0l-0.4,0.5l-1-0.1l0-0.1l-0.1-0.1l0-0.1l-1.3-0.1l-0.5,0l-0.7-0.1
	l-0.2,0l-0.1,0.1l-0.2,0l-0.1,0l-0.1,0l-0.1,0l0,0.1l0,0.2l0.1,0.2l-0.2,0.4l-0.5,0.2l-0.2,0.1l0.1,0.3l-0.1,0l0.2,0.2l0.1,0.1
	l0.1,0.2l-0.1,0l-0.1,0l-0.2-0.1l-0.1,0l0,0l0.1,0.1l0,0l0.1,0.2l0.1,0.2l-0.1,0.3l0.1,0.2l0.2,0.2l-0.1,0l-0.3-0.1l-0.3-0.1
	l-0.3-0.2l-0.2-0.1l-0.1-0.1l0-0.1l0-0.2l0,0l0.1,0l0.1-0.1l0-0.1l0-0.1l-0.1-0.1l-0.1-0.1l-0.5-0.2l-0.2,0l-0.1,0.1l0,0.2l-0.1,0.1
	l-0.3-0.2l-0.3-0.3l-0.2-0.2l-0.1-0.2l-0.1-0.1l-0.1-0.1l-0.2,0l-0.1,0l0,0.2l-0.1,0.1l-0.2,0.1l-0.2,0l-0.1-0.1l-0.2-0.2l-0.1,0
	l-0.7-0.1l-0.2-0.1l-0.4-0.2l-0.3-0.1l-0.5,0l0.1-0.1l0.1,0l0.8,0.2l0.5,0l0.1,0l0-0.2l0-0.1l0.1,0l0.4,0.1l0.2,0l0.4-0.2l-0.1-0.1
	l-0.1-0.1l-0.5-0.4l0.2,0l0.2,0.1l0.2,0.1l0.2,0.1l0.5,0.3l0.3,0.1l0.1,0l-0.1-0.1l-0.3-0.2l-0.3-0.2l-0.2-0.1l-0.4-0.5l-0.5-0.4
	l-0.5-0.2l-0.4-0.1l0.1-0.1l0-0.1l-0.1-0.1l-0.2-0.2l-0.5-0.4l-0.2-0.2l0-0.1l0.4,0.2L141,68l0.4,0.2l-0.2-0.2l0.4,0.1l0.5,0.3
	l0.2,0.3l0.1,0.1l0.1,0.1l0.1,0.1l0.1,0l-0.2-0.2l0,0l0.2,0.1l0.3,0.3l0.1,0.2l0,0.1l0,0.2l1.1,0.9l0.3,0.2l0.2,0l0.5-0.1l0-0.1
	l-0.2-0.3l-0.2-0.3l-0.2-0.2l-0.1-0.2l0.1,0l0.2,0.1l0.2,0.1l0.2,0.1l0-0.1l-0.1-0.2l-0.1-0.1l-0.6-0.5l-2.1-1.9l0.2,0l0.1,0.1
	l0.2,0.1l0.2,0.2l0.2,0.1l0.3,0.1l0.2,0.1l-0.2-0.4l0-0.2l0.2-0.2l-0.3-0.2l-0.2-0.1l-0.2-0.1l-0.2,0l0,0l-0.1,0.1l0,0l-0.1,0
	l-0.1,0l-0.1,0l-0.1-0.1l-0.3-0.2l-0.1-0.1l0,0.1l0,0l0,0l0,0l0,0.1l0.1,0.1l-0.2,0l-0.3-0.1l-0.2-0.2l0-0.1l-0.2-0.1l-0.1-0.1l0,0
	l0,0l-0.3-0.2l-0.1-0.2l0.2-0.5l0.1,0l0.2,0.1l0.1,0.1l0.1,0.1l0.1,0.1l0.1,0.1l0.1,0.1l0.1,0l0.1,0l0-0.1l0,0l-0.1-0.1l-0.2-0.3
	l-0.1-0.1l0-0.1l0.2,0L142,65l0.5,0.3l0.2,0.1l0.2,0l0.1-0.1l-0.1-0.2l-0.2-0.2l-0.2-0.1l-0.1-0.1l-0.2-0.1l-0.1-0.2l-0.1-0.1l0,0
	l-0.4-0.3l-0.3-0.2l-0.2,0l-0.1,0.2l-0.2,0l-0.2-0.1l0-0.2l-0.3-0.2l-0.3-0.1l-0.3-0.1l-0.2,0l-0.4,0.3l-0.4,0l-0.1,0l-0.1,0.1
	l-0.1,0l0,0l0,0.1l0,0.1l0,0l-0.9-0.1l-0.2,0l-0.3-0.2l-0.2-0.2l-0.1-0.1l0.7-0.2l-0.1-0.2l-0.1-0.1l-0.1-0.1l-0.3,0l-0.1-0.1l0-0.1
	l0-0.1l0.1,0l-0.2-0.2l-0.2-0.2l-0.2-0.1l-0.2-0.1l-0.2-0.1l-0.2-0.1l-0.1-0.1l-0.1-0.2l-0.3,0l-0.1,0l-0.2-0.1l0,0l0,0l-0.1-0.2
	l-0.1-0.1l0-0.5l0.1-0.2l0.2-0.1l0.2,0l0.1-0.1l0-0.2l-0.1-0.3l-0.4-0.4l-0.1-0.1l-0.6-0.1l-0.1-0.1l-0.1-0.1l-0.1-0.1l-0.1,0
	l-0.2,0l-0.1,0l-0.1-0.1l0-0.1l0-0.2l0.2-0.1l-0.1-0.3l0.1-0.1l-0.2-0.1l-0.2-0.1l-0.2-0.1l-0.2,0l-0.1-0.1l-0.1-0.1l-0.1-0.2
	l-0.1-0.1L132,57l-0.1-0.1l-0.1-0.1l0.1-0.2l0-0.1l-0.4-0.2l-1.6-0.5l-0.6-0.3l0.3,0l0-0.1l-0.1-0.2l-0.3-0.3l-0.3-0.2l-0.3-0.1
	l-0.7,0l-0.8-0.1l-0.8,0l-0.6-0.1l-0.7-0.2L124,54l-0.2,0l-0.8,0l-0.2-0.1l-0.4-0.2l-0.2,0l-0.2,0l-0.5,0.1l-1.1-0.2l-1.9-0.6
	l-0.6-0.1l-0.5-0.2l-0.6-0.2l-0.3-0.1l-0.7-0.3l-1.3-0.3l0.3-0.1l4.2,1.2l0.6,0.3l0.3,0.1l0.3,0.1l2.2,0.2l0.1-0.1l-0.3-0.2l-0.1,0
	l-0.1-0.1l0.5,0.2l4.1,0.8l1,0.3l0.2,0l0-0.1l-0.3-0.2l-0.4-0.1l-0.2-0.1l-0.3-0.4l-0.1-0.2l0.2,0l0.4,0.1l0.6,0.3l0.1,0l0,0
	l-0.1-0.2l0.1,0l0.4,0l0.1-0.1l-0.3-0.2l0.1-0.1l-0.1-0.2l-0.2-0.2l-0.2-0.3l-0.1-0.2l-0.1-0.1l-0.1-0.1l-0.5-0.1l-0.1-0.1l0-0.2
	l0-0.1l-0.3-0.2l-0.5-0.1l-0.3-0.2l-0.2-0.1l-0.9-0.5l-0.1,0l-0.2,0l-0.1-0.1l-0.3-0.2l-0.1-0.1l0-0.1l-0.1-0.2l-0.1-0.2l-0.1-0.2
	l-0.2-0.1l-0.4-0.4l-0.2-0.1l-0.2-0.1l-0.1-0.1l-0.1-0.1l0-0.2l-0.1-0.2L122,48l-0.6-0.3l-0.6-0.4l-0.2-0.1l0.1-0.1l0.9-0.1l0.1-0.1
	l-0.1-0.2l-0.3-0.2l-0.2-0.1l-0.2-0.1l-0.1-0.2l-0.2-0.2l-0.3-0.3l-0.3-0.2l-0.2-0.1l0.1-0.1l0.2-0.1l0.1,0l0-0.1l0-0.3l0.1-0.1
	l0.4-0.2l0.5,0l0.2-0.1l0-0.2l-0.2-0.3l-0.1-0.1l-0.4-0.3l-0.2-0.2l-0.2-0.2l-0.2-0.3l-0.1-0.2l-0.5-0.1l-0.1,0l-0.2-0.2l-0.4-0.3
	l-0.4-0.3l-0.2-0.1l-0.2-0.1l-1-0.8l-0.3-0.2l-0.3-0.2l-0.3-0.1l-0.3-0.1l-0.1,0l0,0.2l0,0l-0.1,0l0.1,0.1l0.1,0.1l0.1,0.1l0,0.1
	l0,0.1l0.1,0.1l0.1,0.1l0.2,0.3l0.1,0.1l0.2,0.2l0.3,0.2l0.4,0.2l0.2,0.2l0.3,0.4l-0.2,0.1l-0.5-0.2l-0.5-0.5l-0.3,0l-0.2,0.1
	l-0.1,0.2l0,0.2l-0.1,0l-0.1,0.1l0,0.1l0.2,0.1l0.2,0l0.2-0.1l0.1,0l0.1,0.2l-0.1,0.2l0,0.1l-0.1,0.1l-0.2-0.1l-0.4-0.2l-0.1-0.1
	l-0.3-0.2l-0.1-0.1l-0.1,0l-0.5-0.1l-0.2-0.1l-0.2-0.1l-0.1-0.2l-0.3-0.1l-0.7-0.1l-0.1-0.1l0.4,0l0-0.1l-0.1-0.1l-0.1-0.1l-0.1-0.1
	l-0.1,0l-0.1-0.1l-0.1-0.1l-0.1-0.1l0,0l0-0.1l-0.1-0.1l-0.1-0.1l-0.1-0.1l-0.1,0l-0.1,0l-0.1-0.1l-0.3-0.3l-0.1-0.1l0-0.1l-0.2-0.1
	l-0.1,0.1l-0.2,0l-0.2-0.2l-0.2-0.2l0-0.1l0.1-0.1l0,0l-0.1-0.1l-0.1,0l-0.1,0l-0.2-0.1l-0.1-0.1L110,39l-0.3-0.1l-0.1,0l0,0.1
	l-0.1,0l-0.2,0l-0.1-0.1l-0.3-0.2l-0.4-0.1l-0.1-0.1l-0.2-0.1l-0.1,0.1l0.1,0.2l0.2,0.2l-0.2,0l-0.6-0.3l-0.3-0.1l0.1,0.1l0.1,0.1
	l0.1,0.1L108,39l-0.2,0l-0.1,0l-0.1-0.1l0,0.1l0.1,0.1l0.2,0.1l0.2,0.2l-0.4-0.1l-0.1-0.1l-0.1-0.1l-0.2-0.2l-0.1,0l-0.2-0.1
	l-0.2-0.1l-0.2,0l-0.1,0l0.1,0.1l0.1,0l0.1,0l0.1,0l-0.1,0l-0.2,0l-0.1,0l0.2,0.2l0.2,0.1l0.2,0.1l0.1,0.1l0.1,0.1l-0.2-0.1
	l-0.7-0.3l-0.6,0l-0.3-0.1l0-0.1l0.1,0l-0.1-0.1l-1-0.5l-0.5-0.2l0,0.1l0.2,0.1l0.2,0.1l0.1,0.1l-0.1,0l-0.2,0l-0.2,0l-0.2-0.1
	l-0.2-0.1l0.1,0l-0.4-0.2l-0.9-0.1l-0.1-0.2l-0.3-0.2l-0.3-0.2l-1-0.4l-0.4-0.1l-0.1,0.1l-0.2,0l-0.8-0.3l-0.1,0l0.2,0.2l-0.2-0.1
	l-0.3-0.2l-0.2-0.2l-0.2-0.2l-0.2,0l-0.3,0.1L97,36.2l0.4,0.3l-0.2-0.1L97,36.3l-0.2-0.1l-1-0.6l-0.2-0.1l-0.3-0.3l-0.3-0.2
	l-0.3-0.1l-0.2,0.1l0,0.2l0.2,0.2l0.3,0.2l0.3,0.2l-0.1,0.1l-0.1,0l-0.1,0l-0.2,0l-0.2-0.1l-0.1-0.2l-0.1-0.3l-0.1-0.1l-0.2-0.1
	L94,34.8l-0.2-0.1l-0.1,0l0,0.2l-0.1,0l-0.2-0.2l-0.1-0.2l-0.1-0.3L92,33.8l-0.5-0.2l-0.1-0.1l0.2-0.1l0-0.1L91.5,33l-0.2,0
	l-0.5-0.2l-0.3-0.1l-0.4,0l-0.2-0.1l-0.3-0.1l0.1,0l0.1-0.1l-0.1-0.1l-0.1,0l-0.3-0.1l1.3,0.3l0.3,0l0-0.1l0-0.1l0-0.1l0.2,0
	l0.3-0.1l-0.5-0.2l-1.1-0.1L89,31.5l-0.6-0.1l-0.5-0.2l-0.1-0.1l0.7,0l0.3-0.1l0-0.2l-0.1,0l-0.2-0.1L88,30.6l-0.1-0.1l0.1,0
	l-0.1-0.1l-0.2-0.1l-0.1-0.1l-0.3,0L87.1,30l-0.2-0.2l0.5,0l1.2,0.3l0.5,0l0-0.1l-0.1-0.1l0-0.1l0.1,0l0.5,0.2l0.1,0l-0.1-0.2
	l-0.3-0.2l-0.3-0.2l-0.2-0.1l0.2,0l-0.3-0.2l-1.2-0.6l-0.3-0.1l-0.7-0.2l-0.3-0.2L85.9,28l-0.6-0.2l-0.8-0.3l-1.2-0.4l-0.1,0
	l0.1,0.1l0.3,0.2l0.2,0.1l0.1,0.1l0.1,0.1l0.1,0.2l0,0.1l-0.1,0l0,0.1l0.1,0.1l0.1,0.2l0.1,0.1l0,0.1l-0.1,0l-0.4-0.1l-0.1,0
	l-0.2,0.1l-0.1,0l-0.4-0.1l-1.3-0.4l-0.2,0l-0.3,0.3l-0.2-0.5l0.2-0.1l0.5,0.1l1,0.3l0.3,0.1l0.2,0l0.1-0.1l0.1-0.3l0-0.2l-0.1-0.2
	l-0.1-0.1l-0.2-0.1L83,27.3l-0.3-0.1L82.6,27l-0.1-0.1l-0.2-0.1L82,26.6l-0.3-0.1l-0.9-0.3l-0.1,0l0,0.2l-0.1,0l-0.1,0l-0.1,0
	L80,26.1l-0.2-0.2l0-0.2l0.2,0l-0.1-0.1l-0.1,0l-0.2-0.1l0.5,0l0.2,0l-0.2-0.2L79.5,25l-0.2-0.2l-0.2-0.1l-0.2-0.1l-0.2-0.2
	l-0.5-0.3l-1.4-0.4L74.8,23l-1-0.3l-0.4-0.2l-0.1,0l0,0.2l0.4,0.4l0.5,0.4l0.5,0.4l0.4,0.4l-0.4-0.2l-0.7-0.5l-0.5-0.5l-0.2,0.1
	l0,0.3l-0.1,0.1l-0.4-0.1l0.2-0.8l-0.1-0.1l-0.2-0.2l-0.3-0.3l0-0.1l0-0.1l0.5,0l0.1-0.1l-0.2-0.2l-0.2-0.3l-0.1-0.2l-0.2-0.1
	l-0.2-0.1L71.9,21l0.1,0l-0.3-0.2l-0.2-0.1l-0.4-0.1l0-0.2L71,20.2L70.7,20l-0.8-0.3l-0.6-0.3l-0.3-0.1l-0.2,0l-0.5,0l-0.1,0.1
	l0.7,0.4l0.1,0.1l-0.6-0.2l-1.4-0.3l0.1,0l0.1,0l0.1,0l0-0.1l-0.6-0.3l-0.6-0.3l-0.6-0.2l-0.4-0.1L65,18l-0.2-0.1l-0.2-0.2l-0.2-0.2
	l-1.9-0.9l-0.4-0.3l-0.2-0.3l-0.3-0.2l-0.5-0.2l-0.9-0.3l-0.4-0.2l-0.4-0.3L59,14.6l-0.4-0.2l-0.2,0l-0.1,0l-0.1,0L58,14.4l-0.1-0.1
	l-0.2-0.1l-0.2-0.1L57.3,14L57,13.9l-0.2,0l-0.3-0.1L56,13.4l-1.1-0.8l-0.3-0.2l-0.4-0.2l-0.3,0l-0.5,0L52.1,12l0.1,0.1l0,0.2l0,0.2
	l-0.2,0.1l0,0.2l0.1,0.4L52,13.2l-0.1,0l-0.7,0l-0.3,0.2l-0.1,0l-0.2,0l-0.2-0.1l-0.4-0.2l-0.1,0l-0.1,0l-0.3,0l0.1,0.3l-0.1,0.1
	l-0.3,0l-0.1,0l0,0.1l0,0.1l-0.1,0.1l-0.2,0l-3.4-0.7l-0.1,0l0,0.2l0.1,0.2l0.2,0.2l0.3,0.2l1.1,0.6l0.7,0.3l0.9,0.5l0.4,0.1
	l0.1,0.1l-0.5-0.1l-1.1-0.4l-1.4-0.6l-0.2-0.1l-0.3-0.3L45.3,14l-0.1-0.1l-0.9-0.5l-1-0.6l-1.9-0.8l-0.6-0.2l-0.4,0l0.1,0l-0.2,0
	l0,0.3l-0.2,0l-0.2-0.3l-0.2-0.3l-0.3-0.2L39,11.3l-2.2-0.8l-1.6-0.1l-0.2,0l-0.3,0.5L33.9,11l-0.1,0.1l-0.4,0.2l-0.4,0l-0.2,0.2
	l-0.2,0l-0.8-0.2l0.4-0.2l0.1-0.1l0.1-0.1l0.5,0l0.1-0.1l0.2-0.2l1.2-0.1l-0.1-0.1L33,9.9l-2.4-0.7L30.2,9l-0.9-0.3l-0.5-0.3
	l-0.2-0.1l-0.2,0l-0.3,0.1l-0.2,0l-0.1-0.1L27.4,8l-0.2-0.1l-0.2,0l-0.1,0l-0.1,0l-0.2-0.1l-0.1-0.1l-0.4-0.3l-0.2-0.1l-0.3-0.1
	L25.1,7l-0.5-0.3l-1.2-0.4l-1.6-0.7l-0.9-0.2L19.7,5l-0.8-0.2l-0.4-0.1l-0.5-0.2l0-0.1l-0.3-0.2L17.1,4l-0.3-0.1l-0.4-0.2l-0.3-0.1
	l-2.2-0.6l-0.2-0.1l-0.2-0.1l-0.3-0.2l-0.3-0.1l-0.3,0l-0.2,0l-0.1,0.1l-0.1-0.1l-0.2-0.1l-0.2-0.1l-0.2-0.1l-0.4-0.1l-0.1,0l-0.1,0
	L10.8,2l-0.1-0.1l-0.2-0.1l-0.2-0.1l-0.1,0l-1-0.3L9,1.3L8.6,1.2L7.5,0.9l-0.1,0l-0.1,0l-0.1,0L7.1,0.8L6.9,0.7L6.6,0.4L6.5,0.3
	L5.5,0L5.3,0l0,0.1l0,0.3L5.2,0.5l-0.8,0L4,0.6L4.1,1l0,0.1l-0.3,0L3.1,1L2.9,1L2,1.3l-0.2,0l-0.1,0L1.6,1.4l-0.4,0L0.7,1.3l-0.1,0
	L0.1,1.8l0,0.1l0.2,0.2l0.1,0.1l0,0.1l-0.2,0L0,2.4l0.3,0.4L1,3.5l0.2,0.3l0.1,0.3l0.2,0.3l0.4,0.3l0.4,0.3l0.4,0.3l0.9,1.1L4,6.9
	l0.4,0.3L5,7.6l0.4,0.3l0.3,0.3L6,8.5l0.1,0.3L6.3,9l0.3,0.3L7,9.6l0.5,0.3l0.2,0.2L8,10.3l0.3,0.3l0.2,0.1l0.2,0.1l0.1,0.1L8.8,11
	L9,11.2c0.1,0.1,0.2,0.2,0.3,0.4l0.2,0.2L9.9,12l0.5,0.3l0.5,0.2l1.8,0.4l0.1-0.1l0.1,0l0.9,0.6l0.3,0.2l0.3,0.2l0.9,0.6l0.4,0.2
	l1.2,0.3l0.5,0.2l0.1,0.1l-0.2,0l-0.3-0.1l-0.2,0l0,0.1l1.3,0.4l0.8,0.3l0.6,0.4l-1.4-0.4l-0.7-0.4L17,15.5l-0.2,0l-0.1,0.1l0.2,0.4
	l0.7,0.4l1.5,0.6l-0.2,0.2l-0.4,0l-1-0.2l0.4,0.4l-0.2,0l-0.5-0.2l-0.4-0.3l-0.2-0.1l-0.4-0.1l-0.1,0.1l1.1,0.9l0.4,0.4l0.4,0.4
	l0.7,0.8l0.1,0.1l0.3,0.2l0.1,0.1l0.1,0.2l0,0.1l0,0.1l0,0.1l0.8,0.3l0.4,0.2l0.1,0.2l-0.6,0L20,21l0,0.3l-0.1,0l0.1,0.1l0.4,0.8
	l0.2,0.2l0.2,0.2l0.1,0.1l-0.1,0l-0.4-0.1l-0.2,0l-0.1,0l-0.1,0.2l-0.8,0.7l0,0.1l0,0.1l-0.6,0.3l0,0.4l-0.1,0.1l-0.3,0l0.1,0.1
	l0.5,0.9l1.5,0.1l0.5,0.1l0.9-0.1l0.5,0l0.6,0.2l-0.8,0.3l1.1,0.1l0.4,0.2l0,0.2l0,0.1l0.1,0.2l3.5-0.4l0.7,0.1L28,27l-2.2,0.2
	l-0.2,0.2l0.9,0.1l0.5,0.1l0.5,0.3l-0.2,0l-0.4,0.2L27,28.4l-0.1,0.1l-0.3,0.1l-0.4,0.3L26,29l0.1,0.1l1.1,0.7l0.4,0.2l1.6,0.8
	l0.3,0.1l0.6,0.1l0.1,0l0.2-0.1l0.1,0l0.4,0.1l1.2,0.4l0.5,0.2l0.4,0.2l-1.8-0.4l-0.1,0l0,0.1l0.1,0.2l0,0.1l-0.1,0.2l-1,0.3
	L30,32.4l0,0.3l0.3,0.3l0.7,0.4l0.4,0.2l0.7,0.2l0.4,0.2l0.1,0.1l0.1,0.1l0.1,0.1l0.3,0.1l0.2,0.1l0.4,0.2l0.1,0.4l0.1,0.2l0.2,0.1
	l0.2,0l0.3-0.1l0.3,0l-0.1,0.1l0,0.1l0.2,0.1l0.4,0.2l1.3,0.7l-0.2,0.1l-0.3,0l-0.7-0.2l0.3,0.2l0.4,0.3l0.7,0.4l0.4,0.2l1.3,0.5
	l0.1,0.1l-0.8-0.2l-0.1,0l-0.1,0l-0.1,0l-0.2,0l-0.1,0l-0.4-0.2l-0.3,0L36,37.8l0.3,0.2l0.1,0.1l0.2,0.1l-0.1,0.1l-0.3,0.1l-0.1,0.1
	l0.7,0.1l0.1,0.1l0.3,0.2l0.1,0.1l1.1,0.2l0.9,0.2l0,0l0-0.2l0,0l0.2,0l0.2,0l0.2,0.1l0.2,0.1l0.2,0.3l0.3,0.1l0.3,0.1l0.9-0.1
	l0.3,0l-0.1,0.2l-0.3,0.1l-0.4,0l-0.4-0.1l0.3,0.2l0.4,0.2l0.4,0.1l0.3,0l0.1,0.1l-0.3-0.1l-0.7,0l-0.2,0.1l0.3,0.1l0.3,0.2l-0.3,0
	l-0.2,0l-0.2,0.1l-0.1,0.1l0.1,0l0.1,0.1l0.2,0.1l0.2,0.1l-0.2,0L41,41.2l-0.1,0.1l0.2,0.1l0.4,0.1l0.4,0.2l0.3,0.3l0.4,0.3l1.7,1.2
	l-0.1,0l0.1,0.1l-0.3,0l-1.3-0.3l-0.2,0l-0.1,0.1l0.1,0.2l0.1,0.2l0,0.1l-0.3,0l-0.2-0.1l-0.3-0.2l-0.2-0.1l0,0.2l0.3,0.2l0.3,0.2
	l0.3,0.2l0.2,0.1l0,0.1l-0.2,0l-0.2,0l-0.1,0l0.1,0l-0.1,0l0,0l0.1,0.1l1,0.3l0.3,0.1l0.3,0.2l0.3,0.3l0.2,0.3l0.1,0.2l0.6,0.4
	l0.7,0.3l1.1,0.3l0.1,0.1l-1.2-0.3L45,46.3L44.4,46l-0.3-0.4l-0.6-0.4l-1.3-0.6L42,44.4l-0.2-0.1l-0.1,0l-0.1,0.1l-0.1,0.1l-0.3,0
	l-0.5-0.1l-0.2-0.1L40,43.9l-0.2-0.1l-1.1-0.3l0.3,0.1l0.3,0.2l-0.1,0.1l-0.1,0l-0.2,0l-0.2-0.1l0.2,0.2l0.3,0.2l0.5,0.4l0.3,0.1
	l0.4,0.1l0.3,0.2l0.4,0.7l0.1,0.2l0.2,0.3l0,0.1l-1.1,0.2l-0.3,0.3l0.8,0.5l0.1,0.1l-0.3-0.1l-0.3,0l-0.1,0.1l0.1,0.2l0.3,0.2
	l0.3,0.1l0.3,0l0.2,0l0.3-0.2l0.2,0l0.3,0.1l0.1,0.1l0.2,0.2l0,0l0.1,0l0.2,0l0.3,0.1l0.1,0l0-0.1l0-0.1l0.2,0.1l0.4,0.1l0.2,0.1
	l-1.2,0.1l-0.2,0.1l0.7,0.4l0.2,0.2l-0.1,0.2l-0.3,0l-0.8-0.2l-0.3,0.1l0.3,0.1l0.6,0.2l0.4,0.2l-0.7,0l-0.3,0.1l-0.6-0.1l-0.2,0.1
	L41.4,50l-0.9,0.1l-0.2,0.2l0.3,0.2l0.4,0.4l0.2,0.2l-0.2,0l-0.5-0.2l-0.2,0l0.5,0.3l0.3,0.3l0.1,0.2l-0.2,0.2l-0.3,0l-0.6-0.4
	l-0.2,0l0.7,0.6l0.2,0.2l0,0.1l-0.3-0.1l-0.3-0.2L40,52l-0.1,0l-0.1,0l-0.1,0.1l0,0.1l0.1,0.1l0.2,0.1l0.1,0.1l0.1,0l0.1,0.2
	l-0.1,0.1l-0.1,0.1L40,53.1l0.1,0.1l0,0l0.1,0.1l0.1-0.1l0.2,0l0.5,0l-0.3,0.3l-0.1,0.2l0.1,0.2l0.1,0.1l0.1,0.1l0,0.1l-0.4,0.1
	l-0.2,0l-0.1-0.1l-0.1-0.3l0-0.2l-0.2-0.1l-0.5-0.1l-0.3,0l-0.3,0l-0.1,0.2l0.4,0.4l-0.3-0.1l-0.4-0.3l-0.5-0.3L37.5,53l-0.5-0.2
	L36.8,53l0.2,0.2l0.4,0.1l0,0.2l0,0.1l0.1,0.1l0.2,0.2l0.4,0.3l0.5,0.4l0.5,0.3l0.2,0.1l0.2,0.2l0.2,0.2l0.1,0.2l0,0.1l-0.1,0
	l-0.1-0.1l-0.3-0.2l-0.3-0.1l0,0.1l0.2,0.2l0.1,0.1l0.2,0.1l0.8,0.4l0.2,0.1l0.3,0.2l0.3,0.2l0,0.1l-0.2,0L41,57l-0.2,0l0.1,0.2
	l-0.2,0l-0.3,0l-0.2,0l0.3,0.2l0.1,0.2l0.1,0.2l0.3,0.3l0.4,0.2l0.3,0.1l0.6,0l0.2,0.1l0.2,0.1l0.2,0.1l0.3,0.3l0.2,0.1l0.2,0
	l0.2,0.1l0.5,0.3l0.5,0.2l0.4,0.1l0.3-0.1l-1.3-0.6l-0.8-0.4L43,58.5l0.2-0.1l0.7,0.3l1.4,0.8l0.9,0.6l0.2,0.1l0.3,0.2l1.1,0.4
	l1.2,0.6l0.2,0.2l0.2,0.2l0.3,0.1l0.4,0l0.2,0.1l0.5,0.3l0.3,0.1l0.3,0.1l0.1,0.2l0.1,0.3l0.3,0.1l1.1,0.5l3.1,1l1.1,0.5l0.3,0.1
	l1.1,0.3l0.4,0.2l1.5,0.8l1.1,0.4l0.3,0.2l0.4,0.3l0,0.1l-0.2,0l-0.2,0.1l1.3,0.5l0.3,0.1l-0.1,0l0.3,0.2l0.7,0.5l0.4,0.2l0.3,0.1
	l0.6,0.1l0.3,0.1l1.2,0.6l1.2,0.7l0.3,0.2l0.4,0.4l0.2,0.1l0.2,0.1l0.1,0.1l0.1,0l0.1,0l0.2,0.1l0.1,0.1l0.1,0.1l0.2,0.1l0.3,0.2
	l1.4,1l0.3,0.1l0.2,0.1l0.1,0.1l0.6,0.3l0.3,0.2l0.2,0.2l0.3,0.2l0.3,0.2l0.2,0.1l0.2,0.1l1,0.7l1.2,0.8l0.8,0.9l0.3,0.2l0.9,0.6
	l1.1,0.9l0.6,0.4l0.3,0.1l0,0.1l0,0l0,0l-0.2,0l0.2,0.1l0.5,0.4l0.2,0.1l0.2,0.1l0.3,0.2l2.5,2.1l1.3,1.2l0.3,0.4l0.2,0.2l0.2,0.2
	l0.2,0.1l0.2,0.1l0.2,0.2l0.2,0.2l0.2,0.2l0.2,0.5l0.2,0.3l0.2,0.2l0.6,0.5l0.6,0.6l0.7,0.6l0.6,0.6l0.7,0.6l0.2,0.2l0.3,0.2
	l0.2,0.3l0.3,0.5l0.3,0.3l1.2,1.7l0.8,0.9l0.3,0.3l0,0.1l0.1,0.2l0.2,0.2l0.2,0.2l0,0.1l0.4,0.4l0.3,0.4l0.2,0.3l0.2,0.3l0.3,0.4
	l0.3,0.4l0.2,0.3l0,0.5l0.1,0.2l0.4,0.9l0.1,0.2l0.3,0.4l0.3,0.9l0.1,0.4l-0.1,0.3l-0.3,0.2l-0.4,0l-0.2,0l-0.1,0.1l0,0.1l0.2,0.2
	l0,0.1l-0.1,0.2l-0.4,0.4l-0.6,1.5l-0.8,0.9l0,0.4l0.2,0l0.2-0.2l0.3-0.1l0.1-0.1l0.1,0l0.1,0.2l0,0.4l-0.1,0.2l-0.2,0.2l-0.4,0.7
	l-3,2.6l-0.3,0l-0.2,0.1l-0.4,1.2l-0.2,0.1l-0.9,0.1L91,111l-0.5,0.1l0.1,0l-1.1,0.5l-0.6,0.6l-0.3,0.1l-0.1,0l-0.3,0.3l-0.6,0.2
	l-0.1,0.1l-0.1,0.1l-0.8,0l-0.6,0.2l-0.4-0.1l-0.4,0.4l-0.3,0.1l-0.4,0l-0.6,0.1l-0.7,0l-0.5,0.2l-1.3,0.1l-0.2,0.1l-0.4,0.6
	l-0.2,0.1l-4.4,0.4l-0.3,0.2l-0.2,0l-0.7,0l-0.1,0l-0.2,0.1l-1.1,0l-0.1,0l-0.1,0.1l-0.1,0l-0.4,0l-0.3,0.1l-0.3,0l-0.2,0.1l-0.2,0
	l-0.2-0.1l-0.2-0.1l0-0.1l0.1-0.1l-0.2,0l0.1,0.2l0.2,0.2l0.1,0.2l-0.1,0l-0.2,0l-0.2,0l-0.7,0.4l-0.3,0l0.1,0.1l1.1,0.1l0.3-0.1
	l-0.3-0.2l0.2,0l0.2,0.1l0.2,0.1l0.2,0.2l0,0.1L72,117l1.5,0.1l0.2,0.2l0,0.2l-0.1,0.2l0,0.2l0.2,0l0.2,0l0.3-0.1l-0.1,0l-0.1,0
	l-0.1,0l-0.1-0.1l0.2-0.1l0.3,0l0.4,0.1l0.4,0.2l0.1,0.2l-0.2,0.1l-0.8,0l0.1,0.1l0.6,0.1l0.7,0.3l0.4,0.3l-0.3,0.1l0.2,0.1l0.2,0.1
	l0.1,0l0.1,0l0.1,0.1l0.2,0.2l0.3,0.2l0.2,0.1l0.1,0.1l0.1,0.2l0.1,0.3l0.2,0l0.7,0.2l0.1,0.1l-0.3,0.1l-0.2,0l-0.2,0l0.1,0.1
	L78,121l0.1,0.1l-0.1,0l0,0l0,0.1l0,0l0.4,0.1l0.4,0.3l0.4,0.4l0.1,0.3l0.4,0l0.2,0.1l0.3,0.2l-0.1,0l-0.1,0l-0.1,0.1l0.7,0.2
	l1.9,0.3l0.2,0.1l0.1,0.2l-0.2,0l-0.3-0.1l-0.2-0.1l0,0.1l0.3,0.1l0.1,0.1l-0.3,0.2L82,124l0,0.2l0.4,0l0.6,0.1l0.6,0.2l0.3,0.2
	l0.2,0l0.2,0l0.3-0.1l0.2,0.3l0.4,0l0.6-0.2l0.9,0l0.5,0l0.4,0.1l-0.1,0.1l-0.1,0.2l-0.1,0l-0.5,0l-0.2,0l-0.1,0.1l0.2,0l0.2,0
	l0.2,0l0.2,0.1l0,0.1l0,0l0,0l0,0.1l-0.3-0.1l0,0.1l0.2,0.1l0.3,0.1l-0.3,0l-0.5-0.1l-0.3,0l0.3,0.3l-1.6-0.2l-0.3,0.1l0.5,0.1
	l2.1,0.2l0.8,0.2l0,0.1l0,0l0,0l1.2,0.4l0.1,0l0.3,0.2l0.9,0.3l0.4,0.3l-1.4-0.2l-0.3,0.1l0.1,0.1l0.1,0l0.1,0.1l0.1,0.1l-0.2,0
	l-0.2,0l-0.1,0l-0.1,0.1l0.6,0l0.3,0.1l0.3,0.2l-0.6,0l0.6,0.1l0.3,0l-0.1,0.2l-0.5-0.1l-1.1-0.3l0.7,0.2l1.3,0.3l0.7,0.4l-0.4,0
	l-0.5-0.1l-0.4,0l-0.3,0.1l0.4,0.1l0.4,0.1l0.3,0.2l0.1,0.3l1.5,0.1l0.8,0.2l0.7,0.4l-0.6-0.1l-0.7-0.3l-0.7-0.2l-0.5,0.1l0.1,0.1
	l0.1,0l0.1,0l0.3,0.1l-0.6,0.3l0.3,0.2l0.1,0l0.2,0l0.1,0.5l0.2,0.2l0.4,0.1l0,0.2l-0.1,0.1l-1.1-0.1l-0.2,0l0,0.2l0.4,0.1l0.8,0.2
	l0.4,0.1l0.4,0l0.2,0l0.2,0.1l0.1,0.1l-0.1,0.1l-0.2,0l-0.2,0l0.2,0.2l0.2,0.1l0.2,0l0.2,0l0.1,0.1l0,0.1l-0.1,0.1l-0.3-0.1l0,0.1
	l0,0.1l0,0.2l0.1,0.2l0.1,0l0.3,0l0.1,0l0.3-0.2l0.3,0.1l0.3,0.1l0.3,0.1l0.1,0.1l0.1,0.1l0.5,0.1l0.3,0.2l0,0.2l-0.4,0.1l-0.3-0.1
	l-0.5-0.2l-0.3-0.1l0,0.2l0.2,0.1l0.2,0.1l0.4,0.2l0.2,0.1l0.4,0.1l0.2,0.1l-0.2,0.1l-0.3,0.1l-0.4,0l-0.5-0.3l0-0.1l-0.2-0.1l0.1,0
	l0.1,0l-0.2,0l-0.4,0l-0.3,0.1l-0.2,0.2l0.4,0.2l0.3,0.2l0.3,0.2l0.5,0.1l0.1,0.1l-0.1,0.1l0.1,0.1l0.2,0l0.1-0.1l0.1-0.1l0.2,0
	l0.2,0l0.2,0l0.2,0.1l0.5,0.4l0.2,0.1l0.2,0.1l0.2,0.1l0.2,0.2l0.1,0.2l0.1,0.2l-0.1,0.2l0.1,0.2l0.2,0.1l0.3,0.2l0.3,0.2l0.1,0.2
	l-0.1,0.2l0.1,0.1l0.2,0.1l0.2,0.1l0.3,0.1l0.3,0.1l0.2,0l0.1,0.1l-0.1,0l-0.2,0.2l0.2,0l0.2,0l0.2,0.1l0.2,0.2l-0.1,0l-0.3,0.1
	l-0.1,0l0.2,0l0.2,0.1l0.2,0.1l0.2,0.1l-0.2,0.1l-0.2,0.1l0,0.1l0.5,0.2l0.2,1.4l0.3,0l0.2,0l0.2,0l0.3,0.1l0,0.2l-0.2,0.2l-0.2,0.1
	l-0.2,0l0.5,0.2l0.6,0.2l0.6,0.1l0.3-0.1l-0.1,0l0,0l0,0l-0.1-0.1l0.3,0l0.2,0.1l0.2,0.1l0.2,0.2l0.3,0.1l0.2,0l0.4,0l0,0.1l0,0.1
	l0,0.1l-0.1,0.1l-0.3-0.1l-0.4,0.1l-0.3-0.1l0.2,0.3l0,0.1l-0.3,0.2l0.2,0.1l0.3,0.2l0.4,0.3l0.3,0.1l0.3,0.1l0.2,0.1l0.5,0.1l0.2,0
	l1-0.2l0.2,0l-0.6,0.8l0,0.1l0.2,0l0.2,0l0.1,0l0.2-0.1l0.3,0.3l0.2,0.2l0,0.1l-0.3,0.1l-1.1,0l-0.2,0.1l0.2,0.3l0.4,0.1l0.5,0.1
	l0.3,0.1l0.4,0.3l0,0.2l-0.2,0.1l-0.3,0l0.1,0.1l0.6,0l0.4,0.1l0.2,0.2l-0.1,0.4l0.3,0.1l0.3,0.1l0.2,0l0.2-0.1l0.2,0.2l0.3,0.2
	l-0.3,0l0.1,0.1l0.2,0l0.2,0.1l0.2,0.1l0.2,0.1l-0.3,0l-0.3,0.2l-0.3,0l0.1,0.1l0.2,0l0.5,0.1l0.2,0l0,0.1l0.1,0.2l0,0.1l0.2,0
	l0.2-0.1l0.2,0l0.4,0.1l0.1,0.3l0.3,0l0.6-0.1l0.2,0.1l0.3,0.1l0.3,0.1l0.2,0.2l0.1,0.1l0,0.1l-0.1,0.1l0,0.1l0.8,0.1l0.1,0.1
	l0.2,0.1l0.1,0.1l-0.3,0.1l0.1,0.1l0.2,0.1l0.3,0.1l0.2,0.1l0,0.2l0,0.2l0,0.1l0.3,0.3l0.3,0.1l0.3,0.2l0.1,0.4l-0.2,0.4l0,0.2
	l0.3,0.3l0.2-0.1l0.3,0l0.7,0l0.3,0.1l0.3,0.1l0.3,0.1l0.3,0.1l0.1,0.1l-1.4-0.3l-0.4,0l-0.3,0.1l0,0.1l0.7,0.6l0,0.2l-0.1,0.2
	l0,0.1l0.1,0.1l0.2,0.3l0,0.1l-0.1,0.3l-0.2,0.1l-0.3,0.1l-0.2,0.1l0.1,0.1l0.2,0.1l0.1,0l-0.1,0.2l-0.3,0l-0.6,0l0.2,0.1l0.2,0.1
	l0.1,0.1l0.1,0.2l0,0.1l-0.1,0l-0.1,0l0.1,0.4l-0.1,0.2l-1,0.3l-0.6,0.1l-0.3,0.1l0.2,0.2l0.5,0.4l0.3,0.3l0.7,0.3l0.2,0.2l0.1,0.2
	l-0.1,0.2l-0.2,0.2l-0.3,0.1l-0.2,0.1l-0.2,0l-0.2,0l-0.4-0.1l-0.2,0l-0.3,0l-0.2,0.1l-0.1,0.2l0,0.3l0.4,0.1l0.3,0.2l0.6,0.4
	l0.3,0.1l0.3,0.1l0.6,0.2l0.2,0.4l0.4,0.2l0.5,0.1l0.4,0l0.2,0.1l0.6,0.3l0.2,0.1l0.2,0l0.4,0l0.2,0l-0.1,0.2l0.1,0.4l0.3,0.5
	l0.4,0.3l0.6,0.2l1,0l0.6,0.3l-0.8,0l-0.1,0l-0.5,0.2l-0.1,0.2l0,0.4l-0.1,0.1l-0.2,0.1l-0.1,0.2l0.1,0.2l0.3,0.2l0.7,0.2l0.4,0.2
	l-0.3,0l-0.1,0.1l-0.1,0.4l-0.1,0.2l0,0.1l0,0.1l0.3,0.6l0.2,0.3l0.2,0.2l0.6,0.2l0.4,0.2l0.4,0.2l0.3,0.2l-1-0.2l-0.2-0.1l-1-0.5
	l-0.3-0.2l-0.2-0.2l-0.1-0.2l0.1-0.2l0-0.1l-0.2-0.2L122,168l-1-1l-0.3-0.2l-0.5-0.3l-0.2-0.2l-0.2-0.2l-0.3-0.4l-0.2-0.2l-0.4-0.2
	l-1.1-0.4l-0.3-0.2l-0.4-0.2l-0.4-0.2l-0.2,0l-0.1,0.1l-0.1,0.1l-0.1,0.1l-0.2,0l-1.3-0.1l-0.2-0.1l-0.4-0.3l-0.2-0.3l0-0.5
	l-0.1-0.4l-0.3-0.1l-0.4-0.1l-1-0.4l-0.3,0.1l-1,1.2l-0.5,0.3l-0.6,0.1l0.5,0.3l0.6,0.4l0.5,0.4l0.2,0.2l0,0
	c1.9,2.5,3.8,5.1,5.7,7.6l0.7,0.5l0.4,0.1l0.4,0.1l0.5,0.2l0.9,0.5l1.3,0.9l0.3,0.1l0.4,0.2l0.4,0.4l0.5,0.6l-0.3-0.1l-0.2-0.2
	l-0.2-0.2l-0.2-0.2l-0.2-0.1l-0.8-0.4l-0.3-0.2l-0.5-0.4l-0.3-0.2l-2.5-1.3c4.5,5.9,8.9,11.9,13.2,17.8c4.5,6.1,9,12.2,13.5,18.2
	c2.7,3.7,5.5,7.5,8.2,11.2l0.7,0.8c0.4,0.5,0.8,1,1.2,1.6c0.3,0.3,0.5,0.6,0.7,0.9l0.3,0.5l0.1,0.4l-0.1,0.4l0,0.5l0.2,0.5l0.5,0.5
	l0.6,0.4l0.7,0.4l0.6,0.3c0.3,0.2,0.6,0.3,1,0.5l0.4,0.2l0.3,0.2l0.3,0.3l0.4,0.5l0.3,0.5l0.3,0.5l0.3,0.5l0.7,0.7l1,0.5l1,0.5
	l0.9,0.5l1.1,0.7l1.1,0.5c0.7,0.3,1.4,0.6,2.1,0.8l2.3,1.7l0.7,0.4l0.9,0.3l0.5,0.2l0.3,0.3l0.3,0.3l0.4,0.3l0.9,0.5l0.9,0.4
	l0.9,0.4l2.8,0.7l0.4,0.2l0.3,0.3l0.4,0.2l0.5,0.1l4.5,0.1l0.7-0.1l0.5,0l0.3,0.2l0.3,0.1l0.4-0.1l0.6-0.2l2-0.1l1.2,0.2l1.8-0.2
	l3.3,0.2l0.6,0l0,0l0.4,0l3.4,0.6l1.2,0.4l0.2,0.1l0.4,0.1l0.3,0l0.3,0.1l0.3,0.1l0.6,0.2l0.5,0.2l0.3,0.2l0.2,0.2l0.2,0.2l0.3,0.2
	l0.5,0.2l0.5,0.2l0.5,0.2l0.5,0.2l0.7,0.2l0.7,0.1c0.5,0.1,0.9,0.1,1.4,0.2l0.4,0l0.4,0l0.3-0.1l0.1-0.3l-0.1-0.2l-0.2-0.2l-0.2-0.2
	l-0.2-0.2l-0.1-0.2l0.1-0.1l0.1,0l0.3-0.1l0.3,0l0.6,0l0.4,0.1l0.3,0.2l0.3,0.2l0.5,0.6l0.3,0.3l0.3,0.2l0.3,0.2l0.2,0l0.2,0.1
	l0.2,0.1l0.3,0.2l0.2,0.2l0.4,0.4l0.3,0.2l0.4,0.2l0.2,0.1l0.5,0.4l0.2,0.1l0.2,0.1l0.3,0.1l0.4,0.1l1.5,0l0.6,0.1l0.3,0l0.1,0
	l0.4,0.1l0.1,0l0.1,0.1l0.2,0l0.5,0.2l0.2,0.1l0.2,0l0.4,0l0.2,0l0.1-0.1l0.3-0.2l0.1-0.1l0-0.1l0-0.2l0-0.1l0-0.1l0,0l0.8-0.3
	l0.3-0.1l1.2,0l0.4,0.1l0.4,0.2l0.2,0l0.5,0.1l0.2,0.1l0.4,0.2l0.2,0.1l0.1,0.1l0.2,0.1l0.7,0.3l0.2,0.1l0.2,0l0.2,0l0.7-0.2
	l0.1-0.1l0-0.1l0-0.4l0.1-0.3l0.2-0.2l0.3-0.2l0.7-0.2l2.2-1.4l0.3-0.4l0.2-0.2l2.6-0.8l0.2-0.2l0.2-0.3l0.2-0.2l0.3-0.1l2-0.3
	l0.6-0.3l0.2,0l0.1,0l0.1-0.1l0.1-0.1l0-0.1l0.3,0l0.3,0.1l0.7,0.2l0.6,0.1l0.6,0.1l0.6-0.1l0.9,0.1l0.1,0c0.6,1.2,1.1,2.3,1.7,3.5
	c0.8,0.3,1.6,0.6,2.3,0.9l0.2,0.1l0,0l0.1-0.1l0.1,0l0.1-0.1l0-0.1l0.5-0.6l0.2-0.1l0.1-0.1l0-0.5l0.1-0.2l0.4-0.2l1.1-0.2l0.2-0.3
	l0,0l0,0l0.1,0l-0.4-0.2l-0.5-0.3l-0.4-0.3l-0.1-0.2l-0.2-0.2l-0.1,0.2l-0.3,0l-0.4-0.1l-0.3,0l-0.3,0l-2.1-0.1l-0.4,0l-0.3,0
	l-0.3-0.1l-0.3-0.2l-0.3-0.2l-0.2-0.1l0.2,0l0.5,0.2l0.2,0.1l0.2,0l1-0.3l0.2,0l0.1,0l0.3,0.1l0.5,0.2l0.2,0l0.1,0l0.3,0l0.7-0.1
	l0.4-0.2l0.2-0.1l0.1-0.2l0-0.1l0-0.1l0.1-0.1l0.2-0.1l0-0.1l-0.1-0.3l0-0.5l0.3-1.3l0.5-0.6l1.8-0.7l0.4-0.6l0-0.7l-0.1-0.4
	l0.1-0.2l0.3-0.4l0-0.4l-0.2-1.1l-0.2-0.5l-0.1-0.2l-0.2-0.2l0-0.3l0.4-0.3l0.3-0.1l0.3-0.4l-0.1-0.4l-0.4-0.7l-0.2-0.2l0.5-0.6
	l0.5-0.4l0.6-0.4l0.3-0.1l0.8-0.1l0.2-0.1l0.3-0.3l0.4-1.5l0.1-0.2l0.4-0.2l0.2-0.3l0.1-0.1l0.3-0.2l0.2-0.3l-0.1-0.2l-0.4-0.7
	L259,226l0.1-0.1l0.5-0.4l0.7-0.3l0.3-0.2l0.2-0.3l0.3-0.9l0.2-0.1l0.3,0l0.3,0l0.1,0l0.3,0.1l0.1,0l0.5-0.1l0.2-0.1l0.3-0.3
	l0.4-0.2l0.5-0.4l0.4-0.2l1-0.3l0.1-0.1l0.1-0.2l0.1-0.1l0.2-0.5l0-0.1l-0.1-0.1l0-0.1l-0.1-0.4l0-0.1l0.5-2.4l0.2-0.3l0.8-0.7
	l0.2-0.3l0.1-0.4l-0.1-0.4l-0.2-0.9l0.1-0.1l0-0.3l-0.2-0.6l-0.3-0.6l-0.1-0.3l0.1-0.1l0-0.1l-0.4-0.6l-0.1-0.2l0.1,0l0.2,0l0.1,0
	l0.1-0.2l0.2-0.2l0.2-0.2l0.5-0.2l0.1-0.1l0.1-0.2l0.2-0.1l0-0.1l0-0.3l-0.1-0.1l-0.1-0.1l-0.1-0.1l-0.2-0.1l-0.1-0.2l-0.1-0.2
	l0-0.2l0.1-0.2l0-0.2l-0.2-0.2l0-0.2l0.1,0l0.1,0l0.1-0.1l0-0.1l0.2-0.3l0-0.2l-0.1-0.5l0-0.1l0.1-0.2l0-0.1l-0.1-0.2l-0.3-0.5
	l-0.1-0.2l-0.1-0.6l-0.1-0.2l-0.2-0.3l-0.1-0.2l-0.1-0.1l-0.1-0.1l0-0.1l0.1-0.1l0-0.1l-0.2-0.2l-0.4-0.6l-0.1-0.2l0-0.4l-0.1-0.2
	l-0.3-0.1l-0.6,0l-0.3-0.1l-0.4-0.1l-0.9-0.5l-0.3-0.1l-0.3-0.1l-0.6,0l-0.3-0.1l-0.4,0.3l-0.7,0l-0.9-0.2l-0.9-0.3l0,0.1l-0.1,0.1
	l-0.1,0l-0.3-0.2l-0.2,0l-0.2,0l-0.4-0.1l-0.5,0l-0.3-0.1l-0.2,0l-0.7,0l-0.5,0.2l-1.3,0.2l-0.3,0.1l-0.2,0.3l-0.1,0.1l-0.2,0
	l-0.2-0.1l-0.2-0.2l-0.3-0.2l0.5-0.1l0.2-0.1l0.1-0.1l-0.1-0.2l-0.3-0.1l-0.3-0.1l-0.6,0l-1.1-0.2l-0.2,0l-0.6,0.2l0.2-0.1l0.2-0.2
	l0.2-0.1l1.2,0l0.6,0.1l0.1,0l0.1,0l0.1-0.1l0.1,0l0.3,0l0.3,0.1l0.6,0.2l0.3,0.1l0.2,0l0.3-0.1l2.2,0.1l0.2-0.1l0.1-0.2l0.3,0
	l1.2,0.4l0.3,0.1l0.3,0l0.3,0l0.7,0.3l0.3,0.1l0.5-0.1l0.4-0.2l0.5-0.1l0.6,0.2c0.3,0.1,0.6,0.2,1,0.4l0.3,0.2l0.6,0.3l0.3,0.1
	l0.2,0l0.3-0.1l0.2,0l0.4,0.1l0.1,0l0.1-0.1l0.1-0.2l0-0.8l0,0l-0.1-0.1l0-0.1l0-0.1l0,0l0.2,0l0,0l0.1-0.2l0-0.2l0-0.2l0.1-0.1
	l0.1-0.1l-0.1-0.3l-0.2-0.6l0-0.8l-0.1-0.5l-0.3-0.4l-0.1-0.1l-0.2-0.4l-0.2-0.6l0-0.1l0.1,0l0.1,0l0.1,0l0.3-0.2l-0.1-0.4l-0.9-1.5
	l-0.1-0.2l0.1-0.1l0.4-0.1l0.1-0.1l0-0.2l-0.1-0.1l-0.1-0.1l0-0.1l0.2-0.1l0.1-0.1l0.1-0.1l0.2-0.5l0-0.1l0-0.1l0-0.1l0.1-0.1
	l1.1-0.3l-0.2-0.1l-0.3,0l-0.2-0.1l0.3-0.3l-0.3-0.3l-0.2-0.3l-0.1-0.3l0-0.2l0.1-0.1l0.4-0.2l0.1-0.1l0-0.1l0.2-0.2l0-0.3l0.1-0.1
	l-0.1-0.1l-0.3-0.3l-0.4-0.3l-0.3-0.1l0.1,0l0.4,0.1l0.2,0.2l0.5,0.2l0.3,0.3l0.1,0.2l-0.1,0.5l0.3,0l0.1,0l0.1-0.1l0.1-0.3l0.1-0.1
	l0.7-0.3l0.2-0.2l-0.2-0.2l-0.1-0.1l-0.2-0.2l-0.1,0l-0.2,0.1l-0.2,0l-0.7-0.2l-0.1-0.1l0.2,0l0.5,0l0.1,0l0-0.1l0,0l0.1,0l0.2,0
	l0,0l-0.1-0.3l-0.2-0.3l-0.1-0.2l0.4,0.1l0-0.2l0-0.1l-0.1-0.1l0.3,0.1l0.2,0l0.3-0.1l0.2,0l0.6,0l0.4,0l0.1,0l0-0.1l0-0.1l0-0.1
	l0.1-0.1l0.1,0l0.5-0.1l0.2-0.1l0.1,0l0.2,0.1l0.1-0.2l0.2-0.1l1.2-0.2l0.1-0.1l-0.1-1.2l-0.1-0.3l-0.2-0.3l-0.3-0.4l-0.4-0.4
	l-0.3-0.2l-0.3-0.5l-0.1-0.1l0-0.2l0-0.4l-0.1-0.2l-0.2-0.2l-0.2-0.1l-0.2-0.1l-0.2-0.2l-0.1-0.2l-0.1-0.2l-0.1-0.2l-0.1-0.3l0-0.2
	l0-0.2l0.1-0.1l0.2,0l0.2,0.1l0.1,0l0-0.2l-0.1-0.2l-0.2-0.3l-0.1-0.2l0.1-0.2l-0.1-0.1l-0.2-0.1l-0.1-0.1l-0.1-0.1l-0.1-0.1
	l-0.1-0.2l0-0.3l0.6-0.3l0.2-0.2l0-0.2l-0.2-0.6l0-0.4l0.1-0.2l0.1-0.1l-0.1-0.1l-0.1-0.1l-0.1-0.1l-0.1-0.1l0.2,0l0.4,0.1l0.2,0
	l0.1,0l0.1,0l0.1,0l0.4,0.1l0.3,0l0,0l0-0.1l0.1-0.1l0-0.1l-0.1-0.1l-0.2,0l-0.2,0.1l-0.1,0.1l-0.1,0.1l-0.4-0.2l-0.2-0.1l-0.1-0.2
	l0-0.2l0-0.3l0.1-0.2l0.1-0.1l0.2,0l0.2,0.1l0.1,0.1l0.1,0.1l0.1,0.1l0.1,0.1l0,0.1l0.1,0l0.5,0.1l0.2-0.1l0.2-0.1l0.2-0.1l0.3,0
	l0.2,0l0.2,0.1l0.2,0.1l0.4-0.1l0.2,0l-0.2-0.2L274,174l-0.2-0.2l0.1-0.1l0.1,0.2l0.2,0.1l0.1,0l0.1-0.1l0-0.1l-0.1-0.5l0.1-0.2
	l0.3,0l0.4,0.1l0.4,0.1l0.2,0l0.8-0.1l0.6-0.4l0.6-0.2l0.4-0.3l1.1-0.3l0,0l0.1-0.1l0,0l0.5,0.2l0.3,0.1l0.1-0.1l0.1-0.1l0.3,0
	l0.7,0l0.7-0.1l0.1-0.1l0.1,0l0,0l0.1,0l0.2,0.1l0.1,0l0,0l0,0l1.6-0.4l0.5-0.3l0.1-0.2l0.1-0.1l0.2,0l0.2,0l0.3,0.1l0.2,0.1
	l0.3,0.1l0.9,0.1l0.7-0.1l0,0l0-0.2l0-0.1l0.4-0.1l0.2-0.2l1.1-0.3l0.1,0l0.2,0.1l0.1,0l0.3-0.1l0.1,0l0.1,0.1l0.2,0.1l0.1,0.1
	l0.1,0l0.1,0l0,0l0.1,0l0.1,0l0.2,0.1l0.1,0l0.3-0.2l0.2,0l0.2,0l0.2,0.1l0.2,0.1l0.2,0.2l0.1,0l0.1,0l0.2,0l0-0.1l-0.1-0.2l0-0.1
	l0.1-0.1l0.6,0l0.3-0.1l0.1-0.1l0-0.1l-0.1-0.1l-0.2-0.1l-0.1-0.1l0.1-0.1l0.3-0.1l0.4,0l0.1,0l0-0.1l-0.1-0.2l0-0.1l0.1,0l0.1,0
	l0.2,0.1l0.1,0.1l0.1,0l0.2,0l0.4-0.2l0.2,0l0.1-0.1l0-0.1l-0.1-0.1l0.2,0l0.1-0.1l0.2-0.2l0.1,0.1l-0.1,0.2l0.1,0.1l1.1-0.1
	l0.7-0.2l0.1,0l0.1,0.1l0.1,0l0.1,0l0-0.1l-0.1-0.1l0-0.1l0-0.1l0.1,0l0.1,0l0.1,0.1l0.1,0.1l0,0l0,0l0.1-0.1l0-0.1l0.1,0l0.1,0
	l0.2,0.1l0.2,0.1l0.4,0.1l0.2,0l0.5-0.1l0.8,0l0.2,0l0.1-0.1l0-0.1l0-0.1l0.1,0l0.1,0l0.1,0l0.2-0.1l0.2,0l0.2,0.1l0.2,0.1l0.3,0.1
	l0.3,0.2l0.2,0.3l0.3,0.1l0.1-0.1l0.1-0.3l0.3-0.2l0.1-0.1l-0.1-0.2l0.1,0l0.1,0.1l0.1,0.1l0,0.1l-0.1,0l-0.3,0.4l-0.1,0l-0.1,0.1
	l0,0.2l-0.1,0l0.1,0.1l0.4-0.1l0.1-0.1l0.1-0.3l0.2-0.2l0.2-0.4l0.4-0.2l0.4-0.5l0.4-0.2l0.2,0l0.4,0.1l0.1,0l-0.2-0.2l0.1,0
	l0.3,0.1l0,0l0-0.1l0,0l0,0l0.1-0.1l0.2,0l0,0l0,0l-0.1-0.1l-0.1-0.1l0,0l0.1,0l0.1,0l0.1,0l0.1,0l0,0l0-0.1l0,0l0,0l0,0l0,0l0,0
	l0.1,0.1l0.1,0l0.1,0l0,0l0-0.7l0.1-0.2l0.2,0l-0.1,0.1l0,0.1l0,0.1l0.1,0.2l0.1,0l0.3,0.1l0-0.1l-0.1-0.2l0-0.1l0-0.1l0.1,0l0,0
	l0,0l0,0l0,0l0.3-0.1l0-0.1l0-0.1l0-0.2l0.3,0.3l0.2,0l0.2-0.2l0-0.1l-0.1-0.2l0-0.1l0.2-0.1l0.1-0.1l0.1,0.1l0.1,0l0,0l0,0l0-0.1
	l0-0.1l0.1,0l0.1,0l0.1,0l0.1,0l0.2,0.1l0.1,0l0,0l0-0.1l-0.1-0.1l-0.1-0.1l0-0.1l0.1,0l0.3,0l0-0.1l-0.3-0.3l0-0.1l0.2,0.1l0.1,0.1
	l0.1,0l0-0.1l0.1,0.1l0,0.1l0,0.1l0,0.1l0.2,0l0-0.2l-0.1-0.3l0-0.1l0.1,0c0.1,0.1,0.2,0.2,0.3,0.3l0.1,0.1l0.1,0.1l0,0.1l0.2-0.1
	l0.1,0.2l0.1,0l0-0.1l0-0.1l0,0l0-0.1l0,0l0,0l0,0l0,0l0-0.1l0.2,0.1l0.1,0l0-0.1l-0.1-0.2l0.1,0l0.2,0.1l0.1,0l-0.1-0.2l0-0.1
	l0-0.1l0.1-0.1l0.1-0.3l0-0.2l-0.1-0.2l-0.1-0.1l0,0.1l0.1,0.1l0.1,0.1l-0.1,0l-0.1-0.1l-0.1-0.1l-0.1-0.1l-0.2,0l-0.1,0l-0.1-0.1
	l0-0.2l-0.2-0.4l0-0.2l0.1,0l0.1-0.1l0.1,0l0-0.1l0-0.1l0-0.1l0.1-0.1l0.1-0.2l0.3-0.1l0-0.1l-0.1-0.1l-0.1-0.1l-0.1-0.1l0-0.1
	l0-0.1l0-0.1l-0.1-0.1l-0.1-0.1l0-0.1l0-0.1l0-0.1l-0.1-0.1l-0.2-0.3l-0.1-0.1l0-0.1l0.1,0l0,0l-0.1-0.1l-0.1,0l-0.1,0l-0.1-0.1
	l0-0.1l0,0l0.2,0l0.1,0l0-0.1l-0.1-0.3l0-0.1l0,0l0,0l0,0l0-0.1l-0.1-0.1l-0.1-0.1l-0.1-0.1l0-0.1l0.1,0l0.2,0.1l0.2,0.1l-0.1-0.2
	l-0.1-0.1l-0.1-0.5l-0.2-0.3l-0.4-0.5l-0.1-0.2l0-0.1l0.1,0l0.1,0.1l0.1,0.1l0.1,0.1l0.1,0.3l0.1,0.1l0.3,0.3l0.3,0.2l0.3,0.1
	l0.1-0.1l-0.1,0l-0.1,0l-0.1,0l-0.1-0.1l0.1-0.1l0-0.1l0-0.1l-0.1-0.1l0-0.1l0-0.1l0-0.1l-0.2-0.1l-0.2-0.2l-0.2-0.2l0.1-0.1
	l-0.2-0.1l-0.1,0l-0.1,0l-0.1-0.1l-0.1-0.1l-0.1-0.1l-0.1-0.1l-0.1,0l-0.1,0l-0.1,0l0-0.1l0-0.1l0,0l-0.2-0.2l-0.1-0.1l-0.1,0l0,0
	l0,0l-0.1,0l-0.2-0.1l0-0.1l0,0l0.1,0l0,0l0-0.1l0-0.1l0-0.1l0-0.1l0-0.1l0.1,0l0.2,0.1l0.2,0.3l0.1,0.2l0.1,0l0-0.1l-0.1-0.2l0-0.1
	l0-0.1l-0.1-0.1l-0.1,0l0,0l0,0L311,156l-0.1-0.1l0-0.1l0.2,0.1l0.1,0l0-0.1l-0.1-0.1l0.1,0l0.2-0.2l0-0.1l-0.1-0.2l0-0.1l0.1-0.1
	l0-0.1l-0.1-0.1l-0.1-0.1l-0.1-0.1l0,0l-0.4-0.1l-0.2-0.1l-0.2-0.1l-0.2-0.2l-0.1-0.1l0,0l0.2,0.1l0.1,0.1l0.1,0l0.1,0l0,0l-0.1-0.1
	l-0.1-0.1l-0.1-0.1l0,0l-0.1-0.2l0.1,0l0.2,0.1l0.2,0.2l0-0.1l0-0.7l0.3,0l0.7,0.2l0.3,0l-0.2-0.1l-0.2-0.4l-0.2-0.1l0.2,0l0.1,0
	l0.1,0.1l0.2,0.2l0.2,0.1l0.1,0l0.2-0.1l0-0.1l0-0.1l0,0l0.1,0l0.1,0l0.2-0.2l0-0.1l0.1,0l0.2-0.2l0-0.1l-0.1-0.4l-0.1-0.4l0.1-0.1
	l-0.1-0.3l0-0.1l0.1,0.1l0.1,0.1l0.1,0.1l0.1,0l0,0l-0.1-0.1l-0.2-0.2l-0.2-0.2l0-0.1l0.1,0l0-0.1l0.1,0.1l0.1,0.1l0.1,0.1l0.1,0.1
	l0.1,0l0,0l0.1-0.2l-0.1-0.2l0.1,0l0.1,0.1l0.1,0.2l0.1,0.1l0.3-0.3l0,0l0,0l0,0l0,0l0.1,0l0.2,0.1l0.1,0l0-0.1l0-0.1l-0.1-0.1
	l-0.2-0.1l0-0.1l0.1,0l0.1,0l0.1,0l0.1-0.2l0.2-0.2l0.1-0.1l0.3,0.1l0.2,0.3l0.4,0.2l0.4,0.2l0.1,0l0-0.1l0.1,0l0.2,0L316.1,150.1
	 M330.1,195.2L330.1,195.2L330.1,195.2L330.1,195.2 M313.4,161.3l-0.1-0.1l-0.5-0.4l-0.2-0.1l-0.1,0.1l0.1,0.1l0.2,0.2l0.1,0.1
	l0.1,0l0,0l0.1,0l0,0l0-0.1l0,0l0.1,0l0.3,0.5l0.1,0.1l0.2,0.1l0.1,0l0-0.1l0-0.1l0-0.1l0,0l0,0l-0.1-0.1L313.4,161.3 M290.1,171.5
	l0.1-0.1l-0.1-0.1l-0.5-0.3l-0.1,0l0,0l-0.1,0l0,0.2l0.2,0.2l0.3,0.2L290.1,171.5 M330.2,196.5L330.2,196.5l-0.2,0.2l-0.1,0.1l0,0.1
	l0.1,0.2l0.4,0.5l0.1,0.2l0,0.1l0.2,0.4l0.1,0.3l0.2,0.2l0.2,0l0.3-0.1l0.1-0.2l0.1-0.1l0.1,0.1l0.2-0.1l0.1-0.1l0-0.2l-0.2-0.3
	l0.1,0.2l0,0.1l-0.1,0l-0.3,0l-0.1,0l-0.2-0.1l-0.2-0.1l0.1,0.2l-0.1,0l-0.2-0.1l-0.1-0.1l-0.1-0.1l-0.2-0.3l-0.1-0.1l0-0.1l0-0.1
	l0.2-0.1l0-0.1l-0.1-0.2l-0.1-0.2l0-0.1l0.3,0l0-0.1l-0.4-0.8l-0.1-0.5l0-0.2l0.1-0.2l-0.2,0.1l0,0.2l0.3,1.2l0,0.2L330.2,196.5
	L330.2,196.5l0.1-0.5l0.1-0.1l0-0.2l-0.2-0.6L330.2,196.5L330.2,196.5 M311.4,153.6L311.4,153.6l-0.1-0.1l-0.1-0.1l-0.1,0.1l-0.3,0
	l-0.1,0.1l0,0.2l0,0.2l0.1,0.1l0.6,0l0-0.1l0-0.3L311.4,153.6L311.4,153.6L311.4,153.6 M329,192.4l0-0.2l0.1-0.1l0,0l0.1,0l0,0
	l-0.1,0l-0.2,0l-0.1,0.2l0,0.1l0,0L329,192.4"/>
</svg>
