<?xml version="1.0" encoding="utf-8"?>
<!-- Generator: Adobe Illustrator 22.0.1, SVG Export Plug-In . SVG Version: 6.00 Build 0)  -->
<svg version="1.1" id="Calque_1" xmlns="http://www.w3.org/2000/svg" xmlns:xlink="http://www.w3.org/1999/xlink" x="0px" y="0px"
	 viewBox="0 0 65.3 87.1" style="enable-background:new 0 0 65.3 87.1;" xml:space="preserve">
<style type="text/css">
	.st0{display:none;}
	.st1{display:inline;fill:#224492;}
	.st2{display:inline;fill:#FFFFFF;}
	.st3{fill:#FFFFFF;}
</style>
<g id="Calque_1_1_" class="st0">
	<rect x="-17.3" y="-6" class="st1" width="100" height="100"/>
	<path class="st2" d="M29.5,83.2c-23.4-34-27.8-37.5-27.8-50c0-17.1,13.9-31,31-31s31,13.9,31,31c0,12.5-4.4,16-27.8,50
		C34.4,85.5,31.1,85.5,29.5,83.2L29.5,83.2z M32.7,46.2c7.1,0,12.9-5.8,12.9-12.9s-5.8-13-12.9-13s-12.9,5.8-12.9,12.9
		S25.6,46.2,32.7,46.2z M32.7,46.2c7.1,0,12.9-5.8,12.9-12.9s-5.8-13-12.9-13s-12.9,5.8-12.9,12.9S25.6,46.2,32.7,46.2z"/>
	<path class="st1" d="M53.2,27.7c0-1-0.8-1.9-1.9-1.9H42c-1,0-1.9-0.8-1.9-1.9v-9.3c0-1-0.8-1.9-1.9-1.9H27.1c-1,0-1.9,0.8-1.9,1.9
		V24c0,1-0.8,1.9-1.9,1.9H14c-1,0-1.9,0.8-1.9,1.9v11.1c0,1,0.8,1.9,1.9,1.9h9.3c1,0,1.9,0.8,1.9,1.9V52c0,1,0.8,1.9,1.9,1.9h11.1
		c1,0,1.9-0.8,1.9-1.9v-9.3c0-1,0.8-1.9,1.9-1.9h9.3c1,0,1.9-0.8,1.9-1.9C53.2,38.9,53.2,27.7,53.2,27.7z"/>
	<circle class="st2" cx="32.7" cy="33.2" r="3.9"/>
</g>
<g id="Calque_1_-_copie">
	<g>
		<path class="st3" d="M32.7,0C14.7,0,0,14.6,0,32.7c0,13.2,4.6,16.9,29.3,52.7c1.6,2.3,5.1,2.3,6.7,0
			c24.7-35.9,29.3-39.5,29.3-52.7C65.4,14.6,50.8,0,32.7,0z M54.3,38.6c0,1.1-0.9,2-2,2h-9.8c-1.1,0-2,0.9-2,2v9.8c0,1.1-0.9,2-2,2
			H26.8c-1.1,0-2-0.9-2-2v-9.8c0-1.1-0.9-2-2-2H13c-1.1,0-2-0.9-2-2V26.8c0-1.1,0.9-2,2-2h9.8c1.1,0,2-0.9,2-2V13c0-1.1,0.9-2,2-2
			h11.7c1.1,0,2,0.9,2,2v9.8c0,1.1,0.9,2,2,2h9.8c1.1,0,2,0.9,2,2V38.6z"/>
		<circle class="st3" cx="32.7" cy="32.7" r="4.1"/>
	</g>
</g>
</svg>
